SplineFontDB: 3.0
FontName: KAN-KaveriItalic
FullName: KAN Kaveri Italic
FamilyName: KAN Kaveri
Weight: Book
Copyright: Copyright (c) 2009-2015, NLCI (http://www.nlci.in/fonts/)
Version: 1.0 Wed May 17 15:42:18 1995
ItalicAngle: 12
UnderlinePosition: -593
UnderlineWidth: 40
Ascent: 1638
Descent: 410
InvalidEm: 0
LayerCount: 2
Layer: 0 0 "Back" 1
Layer: 1 0 "Fore" 0
XUID: [1021 297 2115494286 1251845]
FSType: 0
OS2Version: 0
OS2_WeightWidthSlopeOnly: 0
OS2_UseTypoMetrics: 1
CreationTime: 1250825687
ModificationTime: 1523585766
PfmFamily: 81
TTFWeight: 400
TTFWidth: 5
LineGap: 0
VLineGap: 0
Panose: 5 0 0 0 0 0 0 0 0 0
OS2TypoAscent: -147
OS2TypoAOffset: 1
OS2TypoDescent: -401
OS2TypoDOffset: 1
OS2TypoLinegap: 0
OS2WinAscent: -483
OS2WinAOffset: 1
OS2WinDescent: -211
OS2WinDOffset: 1
HheadAscent: -483
HheadAOffset: 1
HheadDescent: 211
HheadDOffset: 1
OS2SubXSize: 1434
OS2SubYSize: 1331
OS2SubXOff: 0
OS2SubYOff: 293
OS2SupXSize: 1434
OS2SupYSize: 1331
OS2SupXOff: 0
OS2SupYOff: 928
OS2StrikeYSize: 102
OS2StrikeYPos: 530
OS2Vendor: 'Alts'
OS2UnicodeRanges: 00000000.00000000.00000000.00000000
Lookup: 262 0 0 "blwm" { "blwm-2sub"  } []
MarkAttachClasses: 1
DEI: 91125
TtTable: prep
NPUSHB
 1
 1
SCANTYPE
PUSHW_1
 511
SCANCTRL
EndTTInstrs
ShortTable: maxp 16
  1
  0
  319
  202
  5
  175
  6
  2
  8
  64
  10
  0
  3
  557
  4
  2
EndShort
LangName: 1033 "" "" "Italic" "NLCI:KAN Kaveri Italic" "" "1.0 Wed May 17 15:42:18 1995"
Encoding: Original
Compacted: 1
UnicodeInterp: none
NameList: Adobe Glyph List
DisplaySize: -48
AntiAlias: 1
FitToEm: 1
WinInfo: 0 37 14
BeginPrivate: 0
EndPrivate
AnchorClass2: "Sub" "blwm-2sub" "Nukta"""  "s"""  "V""" 
BeginChars: 572 313

StartChar: .notdef
Encoding: 0 -1 0
Width: 1024
Flags: HW
LayerCount: 2
Fore
SplineSet
63 0 m 1
 63 1237 l 1
 961 1237 l 1
 961 0 l 1
 63 0 l 1
897 63 m 1
 897 1174 l 1
 127 1174 l 1
 127 63 l 1
 897 63 l 1
EndSplineSet
EndChar

StartChar: exclam
Encoding: 4 33 4
Width: 708
VWidth: 1024
Flags: HW
LayerCount: 2
Fore
SplineSet
623 1325 m 0
 583.666666667 1171 547 1028 513 896 c 0
 498.333333333 840 484 784 470 728 c 0
 455.333333333 672 442 619 430 569 c 0
 418 519.666666667 407 476.333333333 397 439 c 0
 387.666666667 401 380.666666667 372.666666667 376 354 c 0
 244 354 l 0
 350 1261 l 0
 353.333333333 1287.66666667 358.666666667 1311.33333333 366 1332 c 0
 373.333333333 1353.33333333 383.333333333 1371.33333333 396 1386 c 0
 408.666666667 1401.33333333 425 1413 445 1421 c 0
 465 1429 489.333333333 1433 518 1433 c 0
 588 1433 623 1397 623 1325 c 0
411 102 m 0
 411 68.6666666667 398.333333333 40.3333333333 373 17 c 0
 348.333333333 -6.33333333333 314.666666667 -18 272 -18 c 0
 256.666666667 -18 241.333333333 -15.6666666667 226 -11 c 0
 210 -5.66666666667 195.333333333 2 182 12 c 0
 169.333333333 22 159 34.6666666667 151 50 c 0
 143 65.3333333333 138.666666667 82.6666666667 138 102 c 0
 138 120.666666667 141.333333333 137.666666667 148 153 c 0
 154.666666667 168.333333333 164.333333333 181.666666667 177 193 c 0
 189 204.333333333 203.333333333 213 220 219 c 0
 236.666666667 225 254 228 272 228 c 0
 290.666666667 228 308.333333333 225 325 219 c 0
 341.666666667 213 356.333333333 204.666666667 369 194 c 0
 381.666666667 183.333333333 391.666666667 170 399 154 c 0
 407 138.666666667 411 121.333333333 411 102 c 0
EndSplineSet
EndChar

StartChar: quotedbl
Encoding: 5 34 5
Width: 694
VWidth: 1024
Flags: HW
LayerCount: 2
Fore
SplineSet
788 1417 m 0
 788 1409.66666667 784.333333333 1393 777 1367 c 0
 769 1341 759 1309.33333333 747 1272 c 0
 735 1235.33333333 722 1196.66666667 708 1156 c 0
 694 1114.66666667 680.333333333 1075.33333333 667 1038 c 0
 653.666666667 1001.33333333 642 969 632 941 c 0
 617 899 617 899 612 885 c 0
 545 885 l 0
 570 1353 l 0
 571.333333333 1374.33333333 574.666666667 1393.66666667 580 1411 c 0
 585.333333333 1428.33333333 593 1443.33333333 603 1456 c 0
 613 1468.66666667 625.666666667 1478.66666667 641 1486 c 0
 657 1493.33333333 676.666666667 1497 700 1497 c 0
 725.333333333 1497 746.333333333 1490.33333333 763 1477 c 0
 779.666666667 1463 788 1443 788 1417 c 0
451 1417 m 0
 451 1409.66666667 447 1393 439 1367 c 0
 431.666666667 1341 422 1309.33333333 410 1272 c 0
 398 1235.33333333 385 1196.66666667 371 1156 c 0
 357 1114.66666667 343.666666667 1075.33333333 331 1038 c 0
 318.333333333 1001.33333333 307 969 297 941 c 0
 287 913 280 894.333333333 276 885 c 0
 210 885 l 0
 237 1353 l 0
 238.333333333 1374.33333333 241.333333333 1393.66666667 246 1411 c 0
 250.666666667 1428.33333333 257.666666667 1443.33333333 267 1456 c 0
 276.333333333 1468.66666667 289 1478.66666667 305 1486 c 0
 321 1493.33333333 341 1497 365 1497 c 0
 389 1497 409 1490.33333333 425 1477 c 0
 442.333333333 1463 451 1443 451 1417 c 0
EndSplineSet
EndChar

StartChar: numbersign
Encoding: 6 35 6
Width: 1558
VWidth: 1024
Flags: HW
LayerCount: 2
Fore
SplineSet
1130 883 m 0
 1030 583 l 0
 1367 583 l 0
 1367 478 l 0
 994 478 l 0
 816 -48 l 0
 711 -14 l 0
 877 478 l 0
 572 478 l 0
 394 -48 l 0
 290 -12 l 0
 457 478 l 0
 160 478 l 0
 160 583 l 0
 490 583 l 0
 594 883 l 0
 256 883 l 0
 256 990 l 0
 629 990 l 0
 797 1485 l 0
 904 1451 l 0
 744 990 l 0
 1051 990 l 0
 1217 1485 l 0
 1325 1451 l 0
 1166 990 l 0
 1459 990 l 0
 1459 883 l 0
 1130 883 l 0
709 883 m 0
 608 583 l 0
 912 583 l 0
 1013 883 l 0
 709 883 l 0
EndSplineSet
EndChar

StartChar: dollar
Encoding: 7 36 7
Width: 1165
VWidth: 1024
Flags: HW
LayerCount: 2
Fore
SplineSet
1025 1034 m 0
 902 1034 l 0
 912 1239 l 0
 912 1243.66666667 909.333333333 1249.66666667 904 1257 c 0
 898.666666667 1264.33333333 893.666666667 1269 889 1271 c 0
 887.666666667 1271.66666667 883.333333333 1273.66666667 876 1277 c 0
 868.666666667 1280.33333333 859.666666667 1284 849 1288 c 0
 838.333333333 1292 825.333333333 1295.66666667 810 1299 c 0
 795.333333333 1303 779.666666667 1305.66666667 763 1307 c 0
 665 786 l 0
 711.666666667 770.666666667 755.333333333 752.333333333 796 731 c 0
 836.666666667 709 872.333333333 683.666666667 903 655 c 0
 933.666666667 626.333333333 957.333333333 594 974 558 c 0
 991.333333333 521.333333333 1000 480.666666667 1000 436 c 0
 1000 382 991.333333333 334 974 292 c 0
 956.666666667 250 934 213.333333333 906 182 c 0
 878 150 846 123 810 101 c 0
 774.666666667 79 738.666666667 61 702 47 c 0
 666 32.3333333333 631.666666667 21.6666666667 599 15 c 0
 565.666666667 7.66666666667 537.333333333 3.33333333333 514 2 c 0
 474 -214 l 0
 350 -214 l 0
 390 0 l 0
 353.333333333 2 319 5.33333333333 287 10 c 0
 255 14.6666666667 224.666666667 21 196 29 c 0
 167.333333333 36.3333333333 139.333333333 45.3333333333 112 56 c 0
 84.6666666667 66.6666666667 57.3333333333 78.6666666667 30 92 c 0
 96 422 l 0
 237 422 l 0
 218 180 l 0
 218 174.666666667 219.666666667 170.666666667 223 168 c 0
 226.333333333 165.333333333 229.333333333 163.333333333 232 162 c 0
 234.666666667 160.666666667 241.666666667 157.333333333 253 152 c 0
 264.333333333 146.666666667 278.333333333 141 295 135 c 0
 311.666666667 129 330 123.333333333 350 118 c 0
 370 112.666666667 391 108.666666667 413 106 c 0
 516 642 l 0
 471.333333333 660.666666667 430.666666667 681.666666667 394 705 c 0
 356.666666667 728.333333333 324.333333333 754 297 782 c 0
 269.666666667 810 248.333333333 841.333333333 233 876 c 0
 217.666666667 910 210 947.333333333 210 988 c 0
 210 1047.33333333 222.333333333 1101.33333333 247 1150 c 0
 271.666666667 1198.66666667 305 1240.33333333 347 1275 c 0
 388.333333333 1310.33333333 436.666666667 1338.66666667 492 1360 c 0
 546.666666667 1381.33333333 603.666666667 1395 663 1401 c 0
 692 1559 l 0
 812 1559 l 0
 786 1407 l 0
 820 1405.66666667 853.666666667 1402.33333333 887 1397 c 0
 919.666666667 1391.66666667 949.666666667 1385.66666667 977 1379 c 0
 1004.33333333 1372.33333333 1028.66666667 1366 1050 1360 c 0
 1070.66666667 1354 1085 1349.66666667 1093 1347 c 0
 1025 1034 l 0
642 1298 m 0
 608.666666667 1288 578.333333333 1275 551 1259 c 0
 523.666666667 1243 500.333333333 1224.33333333 481 1203 c 0
 461.666666667 1181.66666667 446.666666667 1157.33333333 436 1130 c 0
 425.333333333 1103.33333333 420 1074.66666667 420 1044 c 0
 420 996.666666667 431.666666667 957 455 925 c 0
 478.333333333 892.333333333 511.333333333 865 554 843 c 0
 642 1298 l 0
780 380 m 0
 780 425.333333333 768 465.333333333 744 500 c 0
 720 535.333333333 682.333333333 565 631 589 c 0
 539 116 l 0
 617.666666667 135.333333333 677.333333333 167.666666667 718 213 c 0
 759.333333333 259 780 314.666666667 780 380 c 0
EndSplineSet
EndChar

StartChar: percent
Encoding: 8 37 8
Width: 1802
VWidth: 1024
Flags: HW
LayerCount: 2
Fore
SplineSet
1721 556 m 0
 1721 515.333333333 1717.33333333 472.333333333 1710 427 c 0
 1702.66666667 381.666666667 1691 337.333333333 1675 294 c 0
 1659 250 1639.66666667 208.333333333 1617 169 c 0
 1593.66666667 129.666666667 1566.33333333 95 1535 65 c 0
 1503.66666667 35 1468 11 1428 -7 c 0
 1388 -25 1344 -34 1296 -34 c 0
 1251.33333333 -34 1213.66666667 -26.3333333333 1183 -11 c 0
 1151.66666667 4.33333333333 1126 25.3333333333 1106 52 c 0
 1086 78.6666666667 1071.33333333 110 1062 146 c 0
 1052.66666667 182 1048.33333333 220 1049 260 c 0
 1049 300.666666667 1052.66666667 343.666666667 1060 389 c 0
 1067.33333333 434.333333333 1079 478.666666667 1095 522 c 0
 1111 565.333333333 1130.33333333 606.666666667 1153 646 c 0
 1176.33333333 685.333333333 1203.66666667 719.666666667 1235 749 c 0
 1267 779 1302.66666667 802.666666667 1342 820 c 0
 1381.33333333 838 1425.66666667 847 1475 847 c 0
 1519.66666667 847 1557.33333333 839.333333333 1588 824 c 0
 1619.33333333 808.666666667 1645 787.666666667 1665 761 c 0
 1685 735 1699.33333333 704.333333333 1708 669 c 0
 1716.66666667 633.666666667 1721 596 1721 556 c 0
411 0 m 0
 279 0 l 0
 1453 1407 l 0
 1583 1407 l 0
 411 0 l 0
816 1149 m 0
 816 1108.33333333 812.333333333 1065.33333333 805 1020 c 0
 797.666666667 975.333333333 786 931.333333333 770 888 c 0
 754 844 734.666666667 802.333333333 712 763 c 0
 688.666666667 723.666666667 661 688.666666667 629 658 c 0
 597 628 561.333333333 604.333333333 522 587 c 0
 482.666666667 569 438.666666667 560 390 560 c 0
 345.333333333 560 307.333333333 567.666666667 276 583 c 0
 244 598.333333333 218 619.333333333 198 646 c 0
 178 672.666666667 163.333333333 704 154 740 c 0
 144.666666667 776 140 814 140 854 c 0
 140 894.666666667 144 937.666666667 152 983 c 0
 160 1027.66666667 171.666666667 1071.66666667 187 1115 c 0
 202.333333333 1158.33333333 221.666666667 1199.66666667 245 1239 c 0
 268.333333333 1278.33333333 296 1313 328 1343 c 0
 360 1373 396 1396.66666667 436 1414 c 0
 476 1432 520 1441 568 1441 c 0
 612.666666667 1441 650.666666667 1433.33333333 682 1418 c 0
 713.333333333 1402.66666667 739 1381.66666667 759 1355 c 0
 779 1329 793.333333333 1298.33333333 802 1263 c 0
 811.333333333 1227 816 1189 816 1149 c 0
1569 596 m 0
 1569 614.666666667 1567.66666667 634 1565 654 c 0
 1562.33333333 674 1557 692.333333333 1549 709 c 0
 1541 725.666666667 1529.66666667 739.666666667 1515 751 c 0
 1500.33333333 762.333333333 1481 768 1457 768 c 0
 1425.66666667 768 1397.66666667 758 1373 738 c 0
 1348.33333333 718 1326.33333333 691.666666667 1307 659 c 0
 1287.66666667 626.333333333 1271 590 1257 550 c 0
 1243.66666667 510 1232.66666667 469.666666667 1224 429 c 0
 1215.33333333 389 1209 351 1205 315 c 0
 1201 279 1199 249.333333333 1199 226 c 0
 1199 206.666666667 1200.33333333 186.666666667 1203 166 c 0
 1205.66666667 144.666666667 1211.33333333 125 1220 107 c 0
 1228 89 1239.33333333 74 1254 62 c 0
 1269.33333333 50 1289 44 1313 44 c 0
 1343.66666667 44 1371.33333333 54.3333333333 1396 75 c 0
 1420.66666667 95.6666666667 1442.66666667 122.666666667 1462 156 c 0
 1480.66666667 189.333333333 1496.66666667 226.666666667 1510 268 c 0
 1523.33333333 309.333333333 1534.66666667 350.333333333 1544 391 c 0
 1552.66666667 431.666666667 1559 470.333333333 1563 507 c 0
 1567 543 1569 572.666666667 1569 596 c 0
660 1189 m 0
 660 1207.66666667 659 1227 657 1247 c 0
 654.333333333 1267 649.333333333 1285.66666667 642 1303 c 0
 634 1320.33333333 622.666666667 1334.33333333 608 1345 c 0
 593.333333333 1355.66666667 574.666666667 1361 552 1361 c 0
 520 1361 491.333333333 1351 466 1331 c 0
 440.666666667 1311 418.333333333 1284.66666667 399 1252 c 0
 379.666666667 1219.33333333 363.333333333 1183 350 1143 c 0
 336.666666667 1103 325.666666667 1062.66666667 317 1022 c 0
 308.333333333 982 302 944.333333333 298 909 c 0
 294 873 292 843.333333333 292 820 c 0
 292 800.666666667 293.333333333 780.666666667 296 760 c 0
 299.333333333 738.666666667 305 719 313 701 c 0
 321 683 332.666666667 668.333333333 348 657 c 0
 363.333333333 645.666666667 383 640 407 640 c 0
 438.333333333 640 466 650.333333333 490 671 c 0
 514.666666667 691.666666667 536.666666667 718.666666667 556 752 c 0
 574.666666667 784.666666667 590.666666667 821.333333333 604 862 c 0
 617.333333333 902.666666667 628 943.666666667 636 985 c 0
 644.666666667 1025.66666667 651 1064 655 1100 c 0
 658.333333333 1136 660 1165.66666667 660 1189 c 0
EndSplineSet
EndChar

StartChar: ampersand
Encoding: 9 38 9
Width: 1476
VWidth: 1024
Flags: HW
LayerCount: 2
Fore
SplineSet
1261 646 m 0
 1231.66666667 584 1194 520.333333333 1148 455 c 0
 1102.66666667 389.666666667 1053.33333333 328 1000 270 c 0
 1024 237.333333333 1047.66666667 210 1071 188 c 0
 1094.33333333 166 1119 148 1145 134 c 0
 1171 120.666666667 1199.66666667 110.666666667 1231 104 c 0
 1262.33333333 98 1298 94.6666666667 1338 94 c 0
 1338 2 l 0
 1304 0.666666666667 1275 -0.666666666667 1251 -2 c 0
 1227 -3.33333333333 1205 -4.66666666667 1185 -6 c 0
 1163 -7.33333333333 1141.66666667 -7.66666666667 1121 -7 c 0
 1100.33333333 -6.33333333333 1080.33333333 -4 1061 0 c 0
 1043.66666667 2.66666666667 1027 7.33333333333 1011 14 c 0
 995 20.6666666667 979 29.3333333333 963 40 c 0
 947 50.6666666667 930.333333333 64.3333333333 913 81 c 0
 895.666666667 97.6666666667 878 117.333333333 860 140 c 0
 829.333333333 116.666666667 797.333333333 95.3333333333 764 76 c 0
 730.666666667 56 695 38.6666666667 657 24 c 0
 619.666666667 9.33333333333 580 -2.33333333333 538 -11 c 0
 496 -19.6666666667 450 -24 400 -24 c 0
 347.333333333 -24 298.333333333 -16 253 0 c 0
 207.666666667 16 168.333333333 39 135 69 c 0
 101 99 74.3333333333 135.333333333 55 178 c 0
 35.6666666667 221.333333333 26 270.333333333 26 325 c 0
 26 377 35.3333333333 424.333333333 54 467 c 0
 72.6666666667 510.333333333 98.3333333333 550.333333333 131 587 c 0
 163.666666667 623.666666667 202 657 246 687 c 0
 290 717 336.666666667 744.666666667 386 770 c 0
 370 792 355.333333333 814 342 836 c 0
 328 858 315.666666667 880 305 902 c 0
 295 924 287 946.666666667 281 970 c 0
 275 993.333333333 272 1017.33333333 272 1042 c 0
 272 1098.66666667 284 1151 308 1199 c 0
 332 1247 365 1288.33333333 407 1323 c 0
 448.333333333 1357.66666667 497.333333333 1385 554 1405 c 0
 611.333333333 1425 673.333333333 1435 740 1435 c 0
 797.333333333 1435 846.333333333 1427 887 1411 c 0
 927 1395 960 1374 986 1348 c 0
 1012 1322 1031 1292.33333333 1043 1259 c 0
 1055 1225.66666667 1061 1191.66666667 1061 1157 c 0
 1061 1106.33333333 1050.66666667 1061 1030 1021 c 0
 1009.33333333 981 980 944.333333333 942 911 c 0
 904.666666667 878.333333333 859.666666667 849 807 823 c 0
 755 797 698 773.666666667 636 753 c 0
 931 362 l 0
 967 402 998.666666667 445.333333333 1026 492 c 0
 1053.33333333 538 1075.66666667 578.666666667 1093 614 c 0
 1093.66666667 615.333333333 1093 618 1091 622 c 0
 1089 625.333333333 1086.66666667 628.666666667 1084 632 c 0
 1081.33333333 635.333333333 1079 638.333333333 1077 641 c 0
 1074.33333333 643.666666667 1072.66666667 644.666666667 1072 644 c 0
 965 663 l 0
 965 759 l 0
 1411 759 l 0
 1411 663 l 0
 1261 646 l 0
856 1139 m 0
 856 1163.66666667 852.666666667 1187.33333333 846 1210 c 0
 839.333333333 1233.33333333 829.333333333 1254 816 1272 c 0
 802.666666667 1290 786 1304.33333333 766 1315 c 0
 746 1325.66666667 723.333333333 1331 698 1331 c 0
 672.666666667 1331 646.333333333 1326.33333333 619 1317 c 0
 591.666666667 1307.66666667 566.333333333 1293.33333333 543 1274 c 0
 519.666666667 1254.66666667 500.333333333 1230.66666667 485 1202 c 0
 469.666666667 1172.66666667 462 1138.33333333 462 1099 c 0
 462 1073.66666667 465.333333333 1048.33333333 472 1023 c 0
 478.666666667 998.333333333 487.666666667 974.333333333 499 951 c 0
 509.666666667 927.666666667 522 905 536 883 c 0
 550 861.666666667 564.333333333 842 579 824 c 0
 619.666666667 840.666666667 657 859 691 879 c 0
 725 899 754.333333333 921.333333333 779 946 c 0
 803 971.333333333 822 999.666666667 836 1031 c 0
 849.333333333 1063 856 1099 856 1139 c 0
442 688 m 0
 382 649.333333333 334.666666667 605.333333333 300 556 c 0
 265.333333333 506.666666667 248 450 248 386 c 0
 248 344 255 305.666666667 269 271 c 0
 283.666666667 237 303 208 327 184 c 0
 351 160 378.666666667 141.666666667 410 129 c 0
 441.333333333 115.666666667 474 109 508 109 c 0
 532.666666667 109 556 111 578 115 c 0
 600 119.666666667 622.333333333 126.666666667 645 136 c 0
 667.666666667 145.333333333 690.666666667 157.666666667 714 173 c 0
 737.333333333 187.666666667 763 204.666666667 791 224 c 0
 442 688 l 0
EndSplineSet
EndChar

StartChar: quotesingle
Encoding: 10 39 10
Width: 356
VWidth: 1024
Flags: HW
LayerCount: 2
Fore
SplineSet
462 1417 m 0
 462 1409.66666667 458 1393 450 1367 c 0
 442 1341 431.666666667 1309.33333333 419 1272 c 0
 407 1235.33333333 393.333333333 1196.66666667 378 1156 c 0
 363.333333333 1114.66666667 349.333333333 1075.33333333 336 1038 c 0
 322.666666667 1001.33333333 310.666666667 969 300 941 c 0
 289.333333333 913 282.333333333 894.333333333 279 885 c 0
 210 885 l 0
 237 1353 l 0
 239 1374.33333333 242.333333333 1393.66666667 247 1411 c 0
 252.333333333 1428.33333333 260 1443.33333333 270 1456 c 0
 280 1468.66666667 293.333333333 1478.66666667 310 1486 c 0
 326.666666667 1493.33333333 347 1497 371 1497 c 0
 397.666666667 1497 419.333333333 1490.33333333 436 1477 c 0
 453.333333333 1463 462 1443 462 1417 c 0
EndSplineSet
EndChar

StartChar: parenleft
Encoding: 11 40 11
Width: 878
VWidth: 1024
Flags: HW
LayerCount: 2
Fore
SplineSet
961 1409 m 0
 903 1401.66666667 849.666666667 1383.66666667 801 1355 c 0
 753 1326.33333333 709.333333333 1290.33333333 670 1247 c 0
 630.666666667 1203.66666667 595.666666667 1154.33333333 565 1099 c 0
 533.666666667 1044.33333333 506.333333333 986.666666667 483 926 c 0
 459.666666667 865.333333333 440 803.666666667 424 741 c 0
 407.333333333 678.333333333 394 617.333333333 384 558 c 0
 374 498.666666667 366.333333333 442.666666667 361 390 c 0
 356.333333333 337.333333333 354 291.333333333 354 252 c 0
 354 174 361.666666667 108.333333333 377 55 c 0
 392.333333333 1.66666666667 413.666666667 -43 441 -79 c 0
 467.666666667 -114.333333333 499.333333333 -141.666666667 536 -161 c 0
 572 -180.333333333 610.666666667 -194.666666667 652 -204 c 0
 633 -300 l 0
 562.333333333 -296 497.333333333 -278.666666667 438 -248 c 0
 378.666666667 -217.333333333 327.666666667 -176.333333333 285 -125 c 0
 241.666666667 -73.6666666667 208 -12.6666666667 184 58 c 0
 160 128.666666667 148 206.666666667 148 292 c 0
 148 375.333333333 155.666666667 462 171 552 c 0
 186.333333333 642 209 730.666666667 239 818 c 0
 269 905.333333333 306.666666667 988.666666667 352 1068 c 0
 398 1147.33333333 451.666666667 1218 513 1280 c 0
 574.333333333 1342 644 1393 722 1433 c 0
 800 1473 885.666666667 1497 979 1505 c 0
 961 1409 l 0
EndSplineSet
EndChar

StartChar: parenright
Encoding: 12 41 12
Width: 876
VWidth: 1024
Flags: HW
LayerCount: 2
Fore
SplineSet
728 931 m 0
 728 815 718.333333333 705.333333333 699 602 c 0
 679.666666667 498.666666667 652.333333333 403 617 315 c 0
 581.666666667 227 539 147 489 75 c 0
 439 3 383.333333333 -59.3333333333 322 -112 c 0
 260.666666667 -164.666666667 194.333333333 -207 123 -239 c 0
 51.6666666667 -271.666666667 -22.6666666667 -292.666666667 -100 -302 c 0
 -82 -202 l 0
 -21.3333333333 -194 33.6666666667 -174.666666667 83 -144 c 0
 132.333333333 -113.333333333 177.333333333 -75.3333333333 218 -30 c 0
 258 16 293 67.6666666667 323 125 c 0
 353.666666667 183 380 243.333333333 402 306 c 0
 424.666666667 368.666666667 443.666666667 431.666666667 459 495 c 0
 474.333333333 559 486.666666667 620 496 678 c 0
 505.333333333 736.666666667 512 790.666666667 516 840 c 0
 520 889.333333333 522 931 522 965 c 0
 522 986.333333333 520.666666667 1010.66666667 518 1038 c 0
 515.333333333 1066 510.333333333 1095.33333333 503 1126 c 0
 495.666666667 1156.66666667 485.333333333 1187.66666667 472 1219 c 0
 458.666666667 1249.66666667 441 1278 419 1304 c 0
 397 1330 370 1352.33333333 338 1371 c 0
 306 1389.66666667 268.666666667 1402.33333333 226 1409 c 0
 246 1505 l 0
 320.666666667 1497 384.333333333 1479.66666667 437 1453 c 0
 489.666666667 1426.33333333 534 1395 570 1359 c 0
 606 1323 634.333333333 1283.66666667 655 1241 c 0
 675.666666667 1199 691.333333333 1158 702 1118 c 0
 712.666666667 1078.66666667 719.666666667 1042.33333333 723 1009 c 0
 726.333333333 975.666666667 728 949.666666667 728 931 c 0
EndSplineSet
EndChar

StartChar: asterisk
Encoding: 13 42 13
Width: 1048
VWidth: 1024
Flags: HW
LayerCount: 2
Fore
SplineSet
975 1076 m 0
 705 1061 l 0
 696 1091 l 0
 921 1239 l 0
 1069 1195 l 0
 975 1076 l 0
671 1111 m 0
 644 1111 l 0
 570 1373 l 0
 656 1501 l 0
 744 1373 l 0
 671 1111 l 0
766 761 m 0
 669 1013 l 0
 696 1032 l 0
 908 862 l 0
 912 707 l 0
 766 761 l 0
612 1061 m 0
 340 1076 l 0
 246 1195 l 0
 392 1239 l 0
 618 1091 l 0
 612 1061 l 0
550 761 m 0
 402 707 l 0
 407 862 l 0
 618 1032 l 0
 646 1013 l 0
 550 761 l 0
EndSplineSet
EndChar

StartChar: plus
Encoding: 14 43 14
Width: 2097
VWidth: 1024
Flags: HW
LayerCount: 2
Fore
SplineSet
1113 564 m 0
 1113 0 l 0
 984 0 l 0
 984 564 l 0
 420 564 l 0
 420 694 l 0
 984 694 l 0
 984 1258 l 0
 1113 1258 l 0
 1113 694 l 0
 1677 694 l 0
 1677 564 l 0
 1113 564 l 0
EndSplineSet
EndChar

StartChar: comma
Encoding: 15 44 15
Width: 585
VWidth: 1024
Flags: HW
LayerCount: 2
Fore
SplineSet
334 98 m 0
 334 38.6666666667 321.333333333 -17.3333333333 296 -70 c 0
 270.666666667 -122.666666667 237 -169.333333333 195 -210 c 0
 153 -250.666666667 105 -284 51 -310 c 0
 -3 -336 -58.6666666667 -351.333333333 -116 -356 c 0
 -100 -281 l 0
 -56.6666666667 -272.333333333 -19 -259.666666667 13 -243 c 0
 45.6666666667 -227 73.6666666667 -207.333333333 97 -184 c 0
 120.333333333 -160.666666667 139.666666667 -132.333333333 155 -99 c 0
 170.333333333 -66.3333333333 181.333333333 -28.6666666667 188 14 c 0
 56 14 l 0
 48.6666666667 23.3333333333 43.3333333333 34.3333333333 40 47 c 0
 36.6666666667 59 35.3333333333 70.6666666667 36 82 c 0
 36 103.333333333 40.3333333333 124.333333333 49 145 c 0
 57.6666666667 165.666666667 69.3333333333 184.333333333 84 201 c 0
 98.6666666667 217.666666667 116 231 136 241 c 0
 155.333333333 251 176 256 198 256 c 0
 222.666666667 256 243.666666667 252 261 244 c 0
 278.333333333 236 292.333333333 225 303 211 c 0
 313.666666667 196.333333333 321.333333333 179.666666667 326 161 c 0
 331.333333333 141.666666667 334 120.666666667 334 98 c 0
EndSplineSet
EndChar

StartChar: hyphen
Encoding: 16 45 16
Width: 667
VWidth: 1024
Flags: HW
LayerCount: 2
Fore
SplineSet
566 434 m 0
 62 434 l 0
 90 577 l 0
 594 577 l 0
 566 434 l 0
EndSplineSet
EndChar

StartChar: period
Encoding: 17 46 17
Width: 585
VWidth: 1024
Flags: HW
LayerCount: 2
Fore
SplineSet
318 116 m 0
 318 96 314.333333333 77.3333333333 307 60 c 0
 299.666666667 42.6666666667 289.333333333 28 276 16 c 0
 263.333333333 3.33333333333 248.333333333 -6.66666666667 231 -14 c 0
 213.666666667 -21.3333333333 195.333333333 -25.3333333333 176 -26 c 0
 156 -26 137.666666667 -22 121 -14 c 0
 104.333333333 -6.66666666667 90 3.33333333333 78 16 c 0
 66 28.6666666667 56.3333333333 43.3333333333 49 60 c 0
 41.6666666667 77.3333333333 38 96 38 116 c 0
 38 135.333333333 41.6666666667 153.333333333 49 170 c 0
 56.3333333333 187.333333333 66 202.333333333 78 215 c 0
 90 227.666666667 104.333333333 237.666666667 121 245 c 0
 137.666666667 252.333333333 156 256 176 256 c 0
 195.333333333 256 213.666666667 252.333333333 231 245 c 0
 248.333333333 237.666666667 263.333333333 227.666666667 276 215 c 0
 288.666666667 202.333333333 299 187.333333333 307 170 c 0
 314.333333333 153.333333333 318 135.333333333 318 116 c 0
EndSplineSet
EndChar

StartChar: slash
Encoding: 18 47 18
Width: 1028
VWidth: 1024
Flags: HW
LayerCount: 2
Fore
SplineSet
134 -195 m 0
 0 -195 l 0
 893 1407 l 0
 1028 1407 l 0
 134 -195 l 0
EndSplineSet
EndChar

StartChar: zero
Encoding: 19 48 19
Width: 1544
VWidth: 1024
Flags: HW
LayerCount: 2
Fore
SplineSet
1389 309 m 0
 1554 1094 l 0
 1559.33333333 1122.66666667 1554.66666667 1149.33333333 1540 1174 c 0
 1519.33333333 1194.66666667 1496 1204.66666667 1470 1204 c 0
 1262 1204 l 0
 1226.66666667 1204 1194 1192 1164 1168 c 0
 1134.66666667 1144 1117.33333333 1119.33333333 1112 1094 c 0
 944 301 l 0
 938.666666667 272.333333333 947.333333333 248 970 228 c 0
 992.666666667 208 1019 198.333333333 1049 199 c 0
 1257 199 l 0
 1285.66666667 199 1313.66666667 210.666666667 1341 234 c 0
 1369 258 1385 283 1389 309 c 0
1595 240 m 0
 1588.33333333 199.333333333 1569.33333333 159.666666667 1538 121 c 0
 1521.33333333 104.333333333 1503.66666667 88.6666666667 1485 74 c 0
 1465.66666667 58.6666666667 1445.66666667 46.3333333333 1425 37 c 0
 1379.66666667 15 1333.33333333 4 1286 4 c 0
 926 4 l 0
 852 4 795.333333333 32.6666666667 756 90 c 0
 726 125.333333333 711 168.333333333 711 219 c 0
 711 238.333333333 713.666666667 259 719 281 c 0
 905 1163 l 0
 917 1227 957.333333333 1282 1026 1328 c 0
 1094 1374 1167.66666667 1397 1247 1397 c 0
 1565 1397 l 0
 1644.33333333 1397 1704.33333333 1369.66666667 1745 1315 c 0
 1773.66666667 1277 1788 1232.66666667 1788 1182 c 0
 1788 1161.33333333 1785.33333333 1138 1780 1112 c 0
 1595 240 l 0
EndSplineSet
EndChar

StartChar: one
Encoding: 20 49 20
Width: 1544
VWidth: 1024
Flags: HW
LayerCount: 2
Fore
SplineSet
1544 0 m 0
 817 0 l 0
 856 195 l 0
 1108 195 l 0
 1303 1108 l 0
 1305.66666667 1127.33333333 1307 1139.66666667 1307 1145 c 0
 1307 1153 1307 1153 1307 1161 c 0
 1304.33333333 1167.66666667 1303 1172 1303 1174 c 0
 1297.66666667 1190.66666667 1286.66666667 1198.66666667 1270 1198 c 0
 1073 1198 l 0
 1114 1393 l 0
 1354 1393 l 0
 1416.66666667 1393 1467 1370.33333333 1505 1325 c 0
 1529.66666667 1293.66666667 1542 1256 1542 1212 c 0
 1542 1201.33333333 1540.66666667 1185 1538 1163 c 0
 1333 195 l 0
 1585 195 l 0
 1544 0 l 0
EndSplineSet
EndChar

StartChar: two
Encoding: 21 50 21
Width: 1544
VWidth: 1024
Flags: HW
LayerCount: 2
Fore
SplineSet
1544 0 m 0
 625 0 l 0
 729 504 l 0
 748.333333333 580.666666667 791.333333333 639.333333333 858 680 c 0
 927.333333333 729.333333333 1003 754 1085 754 c 0
 1395 754 l 0
 1417 754 1438 766.333333333 1458 791 c 0
 1478.66666667 815.666666667 1493.66666667 845.666666667 1503 881 c 0
 1554 1128 l 0
 1559.33333333 1147.33333333 1557 1163.66666667 1547 1177 c 0
 1537 1189.66666667 1522.33333333 1196 1503 1196 c 0
 1194 1196 l 0
 1184.66666667 1196 1173.33333333 1194.33333333 1160 1191 c 0
 1147.33333333 1187.66666667 1132.33333333 1182.33333333 1115 1175 c 0
 1097.66666667 1167.66666667 1086.33333333 1152.66666667 1081 1130 c 0
 1044 948 l 0
 825 948 l 0
 877 1200 l 0
 892.333333333 1258.66666667 926.333333333 1305.33333333 979 1340 c 0
 1032.33333333 1374.66666667 1095 1392.33333333 1167 1393 c 0
 1585 1393 l 0
 1654.33333333 1393 1709 1370.33333333 1749 1325 c 0
 1775 1293.66666667 1788 1256 1788 1212 c 0
 1788 1201.33333333 1786.66666667 1185 1784 1163 c 0
 1722 868 l 0
 1710 809.333333333 1689 759.666666667 1659 719 c 0
 1639.66666667 693 1621.33333333 671 1604 653 c 0
 1586 635 1564 618.666666667 1538 604 c 0
 1494 578 1447.66666667 565 1399 565 c 0
 1065 565 l 0
 1035 565 1012.66666667 562.333333333 998 557 c 0
 983.333333333 551.666666667 974 546.333333333 970 541 c 0
 965.333333333 535.666666667 962.333333333 532 961 530 c 0
 889 205 l 0
 1587 205 l 0
 1544 0 l 0
EndSplineSet
EndChar

StartChar: three
Encoding: 22 51 22
Width: 1544
VWidth: 1024
Flags: HW
LayerCount: 2
Fore
SplineSet
1593 223 m 0
 1581 163 1547.33333333 111.333333333 1492 68 c 0
 1436.66666667 24 1377 2 1313 2 c 0
 895 2 l 0
 825.666666667 2 767 21 719 59 c 0
 685 87.6666666667 668 124 668 168 c 0
 668 180 668.666666667 189 670 195 c 0
 713 391 l 0
 932 391 l 0
 909 281 l 0
 903.666666667 259 909 239.333333333 925 222 c 0
 941 204.666666667 961.666666667 196.333333333 987 197 c 0
 1253 197 l 0
 1279 197 1305.66666667 206.666666667 1333 226 c 0
 1360.33333333 246 1376.66666667 270.333333333 1382 299 c 0
 1434 532 l 0
 1439.33333333 563.333333333 1433.33333333 589.333333333 1416 610 c 0
 1398.66666667 630.666666667 1376 641 1348 641 c 0
 1262 641 l 0
 1300 836 l 0
 1372 836 l 0
 1406 836 1436.33333333 843 1463 857 c 0
 1489.66666667 871.666666667 1505.66666667 888.333333333 1511 907 c 0
 1550 1104 l 0
 1551.33333333 1110.66666667 1552 1119.33333333 1552 1130 c 0
 1552 1146.66666667 1547.33333333 1161.66666667 1538 1175 c 0
 1528.66666667 1187.66666667 1511.66666667 1194 1487 1194 c 0
 1196 1194 l 0
 1171.33333333 1194 1147 1186.33333333 1123 1171 c 0
 1099 1155.66666667 1084.33333333 1136 1079 1112 c 0
 1063 1026 l 0
 844 1026 l 0
 883 1223 l 0
 893.666666667 1271 925.666666667 1310.33333333 979 1341 c 0
 1032.33333333 1372.33333333 1095 1388.33333333 1167 1389 c 0
 1602 1389 l 0
 1664.66666667 1389 1715 1366.33333333 1753 1321 c 0
 1777.66666667 1289.66666667 1790 1252 1790 1208 c 0
 1790 1197.33333333 1788.66666667 1181 1786 1159 c 0
 1743 948 l 0
 1736.33333333 910 1713.66666667 872.666666667 1675 836 c 0
 1637 799.333333333 1588.66666667 768.333333333 1530 743 c 0
 1579.33333333 726.333333333 1614 698.333333333 1634 659 c 0
 1643.33333333 639.666666667 1649.66666667 624.666666667 1653 614 c 0
 1655.66666667 603.333333333 1657 589.666666667 1657 573 c 0
 1657 563.666666667 1655.66666667 548 1653 526 c 0
 1593 223 l 0
EndSplineSet
EndChar

StartChar: four
Encoding: 23 52 23
Width: 1544
VWidth: 1024
Flags: HW
LayerCount: 2
Fore
SplineSet
1616 334 m 0
 1421 334 l 0
 1350 0 l 0
 1126 0 l 0
 1198 334 l 0
 823 334 l 0
 765.666666667 334 719.666666667 350.666666667 685 384 c 0
 650.333333333 417.333333333 637.666666667 456.666666667 647 502 c 0
 656.333333333 537.333333333 666.333333333 567.333333333 677 592 c 0
 687 616.666666667 705 650.666666667 731 694 c 0
 1114 1393 l 0
 1337 1393 l 0
 934 682 l 0
 881 553 l 0
 881 546.333333333 881.666666667 541.333333333 883 538 c 0
 884.333333333 534.666666667 886.333333333 532 889 530 c 0
 1237 530 l 0
 1419 1395 l 0
 1642 1395 l 0
 1460 530 l 0
 1655 530 l 0
 1616 334 l 0
EndSplineSet
EndChar

StartChar: five
Encoding: 24 53 24
Width: 1544
VWidth: 1024
Flags: HW
LayerCount: 2
Fore
SplineSet
1593 223 m 0
 1581 163 1550.33333333 111.333333333 1501 68 c 0
 1451.66666667 24 1398.33333333 2 1341 2 c 0
 766 2 l 0
 711.333333333 2 670.666666667 18.6666666667 644 52 c 0
 617.333333333 85.3333333333 604 118 604 150 c 0
 604 156.666666667 605.333333333 167.333333333 608 182 c 0
 655 416 l 0
 879 416 l 0
 848 268 l 0
 845.333333333 247.333333333 849.333333333 232 860 222 c 0
 870.666666667 212 880 205.333333333 888 202 c 0
 895.333333333 198.666666667 904.333333333 197 915 197 c 0
 1305 197 l 0
 1320.33333333 197 1337.33333333 206.333333333 1356 225 c 0
 1368 249.666666667 1376.66666667 274.333333333 1382 299 c 0
 1450 616 l 0
 1455.33333333 651.333333333 1428 669.333333333 1368 670 c 0
 707 670 l 0
 860 1397 l 0
 1810 1397 l 0
 1767 1202 l 0
 1040 1202 l 0
 969 868 l 0
 1473 868 l 0
 1545.66666667 868 1600.66666667 845.666666667 1638 801 c 0
 1666.66666667 767 1681 728 1681 684 c 0
 1681 674.666666667 1679.66666667 659 1677 637 c 0
 1593 223 l 0
EndSplineSet
EndChar

StartChar: six
Encoding: 25 54 25
Width: 1544
VWidth: 1024
Flags: HW
LayerCount: 2
Fore
SplineSet
1389 303 m 0
 1448 580 l 0
 1453.33333333 610 1445.66666667 632.666666667 1425 648 c 0
 1404.33333333 664 1378.66666667 672 1348 672 c 0
 967 672 l 0
 893 326 l 0
 887.666666667 290.666666667 894.333333333 262 913 240 c 0
 939 214 965 201 991 201 c 0
 1243 201 l 0
 1274.33333333 201 1304.66666667 210.333333333 1334 229 c 0
 1364 248.333333333 1382.33333333 273 1389 303 c 0
1599 252 m 0
 1583.66666667 184 1547.66666667 125.333333333 1491 76 c 0
 1427 26.6666666667 1361.33333333 2 1294 2 c 0
 877 2 l 0
 803 2 742 24 694 68 c 0
 658.666666667 103.333333333 641 141.333333333 641 182 c 0
 641 188.666666667 642.333333333 201.666666667 645 221 c 0
 842 1161 l 0
 858.666666667 1227.66666667 898.333333333 1283.33333333 961 1328 c 0
 1023.66666667 1372.66666667 1093.66666667 1395 1171 1395 c 0
 1788 1395 l 0
 1745 1200 l 0
 1176 1200 l 0
 1150 1200 1124 1192 1098 1176 c 0
 1076 1155.33333333 1062.33333333 1132.66666667 1057 1108 c 0
 1006 868 l 0
 1452 868 l 0
 1534 868 1595.33333333 844.333333333 1636 797 c 0
 1667.33333333 756.333333333 1683 714 1683 670 c 0
 1683 659.333333333 1681.66666667 643 1679 621 c 0
 1599 252 l 0
EndSplineSet
EndChar

StartChar: seven
Encoding: 26 55 26
Width: 1544
VWidth: 1024
Flags: HW
LayerCount: 2
Fore
SplineSet
1788 1147 m 0
 1059 0 l 0
 836 0 l 0
 1567 1147 l 0
 1568.33333333 1163.66666667 1565.33333333 1177 1558 1187 c 0
 1550.66666667 1197 1538.66666667 1202 1522 1202 c 0
 1063 1202 l 0
 1034 1063 l 0
 811 1063 l 0
 883 1397 l 0
 1610 1397 l 0
 1676.66666667 1397 1725.66666667 1372.33333333 1757 1323 c 0
 1781.66666667 1291.66666667 1794 1253.33333333 1794 1208 c 0
 1794 1182.66666667 1792 1162.33333333 1788 1147 c 0
EndSplineSet
EndChar

StartChar: eight
Encoding: 27 56 27
Width: 1544
VWidth: 1024
Flags: HW
LayerCount: 2
Fore
SplineSet
1389 301 m 0
 1393 326 l 0
 1394.33333333 332.666666667 1395 343.333333333 1395 358 c 0
 1395 393.333333333 1380.66666667 422 1352 444 c 0
 1223 573 l 0
 997 444 l 0
 956.333333333 410 933.333333333 382.666666667 928 362 c 0
 911 281 l 0
 905.666666667 260.333333333 912 241 930 223 c 0
 948 205 971.666666667 196.333333333 1001 197 c 0
 1255 197 l 0
 1281 197 1307.66666667 206.666666667 1335 226 c 0
 1363 246 1381 271 1389 301 c 0
1559 1122 m 0
 1560.33333333 1128.66666667 1561 1139.66666667 1561 1155 c 0
 1561 1165.66666667 1559.33333333 1174 1556 1180 c 0
 1545.33333333 1195.33333333 1530.33333333 1202.66666667 1511 1202 c 0
 1186 1202 l 0
 1175.33333333 1202 1164.33333333 1200.66666667 1153 1198 c 0
 1142.33333333 1195.33333333 1133.33333333 1193.33333333 1126 1192 c 0
 1109.33333333 1182.66666667 1100 1169 1098 1151 c 0
 1095.33333333 1133 1094 1119.33333333 1094 1110 c 0
 1094 1093.33333333 1098 1079 1106 1067 c 0
 1280 891 l 0
 1505 1038 l 0
 1535.66666667 1054.66666667 1553.66666667 1082.66666667 1559 1122 c 0
1585 182 m 0
 1574.33333333 132.666666667 1542.33333333 90 1489 54 c 0
 1435.66666667 18 1377 0 1313 0 c 0
 895 0 l 0
 825.666666667 0 767 19 719 57 c 0
 685 85.6666666667 668 122 668 166 c 0
 668 178 668.666666667 187 670 193 c 0
 723 444 l 0
 728.333333333 470 762.333333333 507 825 555 c 0
 1106 741 l 0
 932 918 l 0
 874.666666667 986 849.333333333 1037.66666667 856 1073 c 0
 887 1225 l 0
 897.666666667 1273 929.666666667 1312.33333333 983 1343 c 0
 1036.33333333 1374.33333333 1099 1390.33333333 1171 1391 c 0
 1606 1391 l 0
 1674 1391 1725 1375 1759 1343 c 0
 1789 1318.33333333 1804 1289 1804 1255 c 0
 1804 1243 1803.33333333 1234.33333333 1802 1229 c 0
 1759 1020 l 0
 1748.33333333 974.666666667 1713 933 1653 895 c 0
 1364 715 l 0
 1522 604 l 0
 1605.33333333 524.666666667 1641.33333333 460.666666667 1630 412 c 0
 1585 182 l 0
EndSplineSet
EndChar

StartChar: nine
Encoding: 28 57 28
Width: 1544
VWidth: 1024
Flags: HW
LayerCount: 2
Fore
SplineSet
1466 725 m 0
 1546 1106 l 0
 1551.33333333 1132 1544.66666667 1153.66666667 1526 1171 c 0
 1506.66666667 1189 1479.33333333 1198 1444 1198 c 0
 1176 1198 l 0
 1147.33333333 1198 1118.66666667 1190 1090 1174 c 0
 1065.33333333 1154.66666667 1050 1132 1044 1106 c 0
 985 825 l 0
 982.333333333 795 991.333333333 772.666666667 1012 758 c 0
 1032.66666667 737.333333333 1060 727 1094 727 c 0
 1466 725 l 0
1602 268 m 0
 1585.33333333 194 1542.33333333 131 1473 79 c 0
 1403.66666667 26.3333333333 1325.66666667 0 1239 0 c 0
 651 0 l 0
 690 195 l 0
 1192 195 l 0
 1237.33333333 195 1279 205.666666667 1317 227 c 0
 1355 249 1377.33333333 275 1384 305 c 0
 1432 530 l 0
 985 530 l 0
 909.666666667 530 848.333333333 552 801 596 c 0
 767 634 750 675 750 719 c 0
 750 734.333333333 750.666666667 745.333333333 752 752 c 0
 842 1186 l 0
 848.666666667 1221.33333333 869 1256 903 1290 c 0
 934.333333333 1318.66666667 975.333333333 1343.33333333 1026 1364 c 0
 1075.33333333 1380.66666667 1126.66666667 1389 1180 1389 c 0
 1552 1389 l 0
 1601.33333333 1389 1644.33333333 1378 1681 1356 c 0
 1717.66666667 1334 1745.66666667 1303.33333333 1765 1264 c 0
 1775.66666667 1242 1781.33333333 1218 1782 1192 c 0
 1782 1181.33333333 1780.66666667 1165 1778 1143 c 0
 1602 268 l 0
EndSplineSet
EndChar

StartChar: colon
Encoding: 29 58 29
Width: 585
VWidth: 1024
Flags: HW
LayerCount: 2
Fore
SplineSet
472 895 m 0
 472 875.666666667 468.333333333 857.666666667 461 841 c 0
 453.666666667 823.666666667 443.333333333 808.666666667 430 796 c 0
 417.333333333 783.333333333 402.333333333 773.333333333 385 766 c 0
 367.666666667 758.666666667 349.333333333 755 330 755 c 0
 310 755 291.333333333 758.666666667 274 766 c 0
 256.666666667 773.333333333 242 783.333333333 230 796 c 0
 217.333333333 808.666666667 207.333333333 823.666666667 200 841 c 0
 192.666666667 858.333333333 188.666666667 876.333333333 188 895 c 0
 188 914.333333333 192 932.666666667 200 950 c 0
 207.333333333 967.333333333 217.333333333 982.333333333 230 995 c 0
 242.666666667 1007.66666667 257.333333333 1017.66666667 274 1025 c 0
 291.333333333 1032.33333333 310 1036 330 1036 c 0
 349.333333333 1036 367.666666667 1032.33333333 385 1025 c 0
 402.333333333 1017.66666667 417.333333333 1007.66666667 430 995 c 0
 442.666666667 982.333333333 453 967.333333333 461 950 c 0
 468.333333333 932.666666667 472 914.333333333 472 895 c 0
318 116 m 0
 318 96 314.333333333 77.3333333333 307 60 c 0
 299.666666667 42.6666666667 289.333333333 28 276 16 c 0
 263.333333333 3.33333333333 248.333333333 -6.66666666667 231 -14 c 0
 213.666666667 -21.3333333333 195.333333333 -25.3333333333 176 -26 c 0
 156 -26 137.666666667 -22 121 -14 c 0
 104.333333333 -6.66666666667 89.6666666667 3.33333333333 77 16 c 0
 64.3333333333 28.6666666667 54.3333333333 43.3333333333 47 60 c 0
 39.6666666667 77.3333333333 36 96 36 116 c 0
 36 135.333333333 39.6666666667 153.333333333 47 170 c 0
 54.3333333333 187.333333333 64.3333333333 202.333333333 77 215 c 0
 89.6666666667 227.666666667 104.333333333 237.666666667 121 245 c 0
 137.666666667 252.333333333 156 256 176 256 c 0
 195.333333333 256 213.666666667 252.333333333 231 245 c 0
 248.333333333 237.666666667 263.333333333 227.666666667 276 215 c 0
 288.666666667 202.333333333 299 187.333333333 307 170 c 0
 314.333333333 153.333333333 318 135.333333333 318 116 c 0
EndSplineSet
EndChar

StartChar: semicolon
Encoding: 30 59 30
Width: 585
VWidth: 1024
Flags: HW
LayerCount: 2
Fore
SplineSet
472 895 m 0
 472 875.666666667 468.333333333 857.666666667 461 841 c 0
 453.666666667 823.666666667 443.333333333 808.666666667 430 796 c 0
 417.333333333 783.333333333 402.333333333 773.333333333 385 766 c 0
 367.666666667 758.666666667 349.333333333 755 330 755 c 0
 310 755 291.333333333 758.666666667 274 766 c 0
 256.666666667 773.333333333 242 783.333333333 230 796 c 0
 217.333333333 808.666666667 207.333333333 823.666666667 200 841 c 0
 192.666666667 858.333333333 188.666666667 876.333333333 188 895 c 0
 188 914.333333333 192 932.666666667 200 950 c 0
 207.333333333 967.333333333 217.333333333 982.333333333 230 995 c 0
 242.666666667 1007.66666667 257.333333333 1017.66666667 274 1025 c 0
 291.333333333 1032.33333333 310 1036 330 1036 c 0
 349.333333333 1036 367.666666667 1032.33333333 385 1025 c 0
 402.333333333 1017.66666667 417.333333333 1007.66666667 430 995 c 0
 442.666666667 982.333333333 453 967.333333333 461 950 c 0
 468.333333333 932.666666667 472 914.333333333 472 895 c 0
334 100 m 0
 334 40.6666666667 321.333333333 -15.6666666667 296 -69 c 0
 270.666666667 -122.333333333 237 -169.333333333 195 -210 c 0
 153 -250.666666667 105 -284 51 -310 c 0
 -3 -336 -58.6666666667 -351.333333333 -116 -356 c 0
 -100 -281 l 0
 -56.6666666667 -272.333333333 -19 -260 13 -244 c 0
 45.6666666667 -228 73.6666666667 -208.333333333 97 -185 c 0
 120.333333333 -161.666666667 139.666666667 -133.333333333 155 -100 c 0
 170.333333333 -67.3333333333 181.333333333 -29.3333333333 188 14 c 0
 56 14 l 0
 48.6666666667 23.3333333333 43.3333333333 35 40 49 c 0
 36.6666666667 62.3333333333 35.3333333333 74.6666666667 36 86 c 0
 36 106.666666667 40.3333333333 127 49 147 c 0
 57.6666666667 167 69.6666666667 185.333333333 85 202 c 0
 100.333333333 218.666666667 117.666666667 231.666666667 137 241 c 0
 156.333333333 251 176.666666667 256 198 256 c 0
 222 256 242.666666667 252 260 244 c 0
 277.333333333 236 291.333333333 225 302 211 c 0
 312.666666667 197 320.666666667 180.666666667 326 162 c 0
 331.333333333 142.666666667 334 122 334 100 c 0
EndSplineSet
EndChar

StartChar: less
Encoding: 31 60 31
Width: 2097
VWidth: 1024
Flags: HW
LayerCount: 2
Fore
SplineSet
420 564 m 0
 420 694 l 0
 1677 1177 l 0
 1677 1047 l 0
 554 629 l 0
 1677 212 l 0
 1677 82 l 0
 420 564 l 0
EndSplineSet
EndChar

StartChar: equal
Encoding: 32 61 32
Width: 2097
VWidth: 1024
Flags: HW
LayerCount: 2
Fore
SplineSet
420 755 m 0
 420 885 l 0
 1677 885 l 0
 1677 755 l 0
 420 755 l 0
420 374 m 0
 420 504 l 0
 1677 504 l 0
 1677 374 l 0
 420 374 l 0
EndSplineSet
EndChar

StartChar: greater
Encoding: 33 62 33
Width: 2097
VWidth: 1024
Flags: HW
LayerCount: 2
Fore
SplineSet
420 82 m 0
 420 212 l 0
 1543 629 l 0
 420 1047 l 0
 420 1177 l 0
 1677 694 l 0
 1677 564 l 0
 420 82 l 0
EndSplineSet
EndChar

StartChar: question
Encoding: 34 63 34
Width: 1017
VWidth: 1024
Flags: HW
LayerCount: 2
Fore
SplineSet
971 1139 m 0
 971 1069 956.666666667 1006 928 950 c 0
 900 894.666666667 863.333333333 845 818 801 c 0
 772.666666667 757.666666667 721.333333333 720 664 688 c 0
 606.666666667 655.333333333 549.666666667 627.333333333 493 604 c 0
 444 354 l 0
 304 354 l 0
 360 667 l 0
 408 682.333333333 455 703.333333333 501 730 c 0
 547 756.666666667 587.666666667 789 623 827 c 0
 659 865 688 908.333333333 710 957 c 0
 732 1005.66666667 742.666666667 1059.33333333 742 1118 c 0
 742 1190 722.666666667 1244.33333333 684 1281 c 0
 645.333333333 1317.66666667 592 1336 524 1336 c 0
 396 1128 l 0
 336 1128 l 0
 300 1128 271.666666667 1135.66666667 251 1151 c 0
 230.333333333 1166.33333333 220 1187.33333333 220 1214 c 0
 220 1234.66666667 226 1258.33333333 238 1285 c 0
 250 1311 270.333333333 1335.33333333 299 1358 c 0
 327.666666667 1380.66666667 365.333333333 1400.33333333 412 1417 c 0
 458.666666667 1433 517 1441 587 1441 c 0
 649 1441 704 1434 752 1420 c 0
 800 1406 840 1385.66666667 872 1359 c 0
 904.666666667 1333 929.333333333 1301.33333333 946 1264 c 0
 962.666666667 1227.33333333 971 1185.66666667 971 1139 c 0
476 92 m 0
 476 75.3333333333 473 59.6666666667 467 45 c 0
 461 29.6666666667 452.333333333 16.3333333333 441 5 c 0
 429.666666667 -6.33333333333 415.666666667 -15.6666666667 399 -23 c 0
 382.333333333 -30.3333333333 363.333333333 -34 342 -34 c 0
 320 -34 300.333333333 -30.6666666667 283 -24 c 0
 265.666666667 -17.3333333333 251 -8 239 4 c 0
 227 15.3333333333 217.666666667 28.6666666667 211 44 c 0
 204.333333333 58.6666666667 201.333333333 74 202 90 c 0
 202 106.666666667 205 122.666666667 211 138 c 0
 217.666666667 153.333333333 227 167 239 179 c 0
 251 191 265.666666667 200.333333333 283 207 c 0
 300.333333333 214.333333333 320 218 342 218 c 0
 363.333333333 218 382.333333333 214.666666667 399 208 c 0
 415.666666667 201.333333333 429.666666667 192 441 180 c 0
 452.333333333 168 461 154.333333333 467 139 c 0
 473 124.333333333 476 108.666666667 476 92 c 0
EndSplineSet
EndChar

StartChar: at
Encoding: 35 64 35
Width: 1961
VWidth: 1024
Flags: HW
LayerCount: 2
Fore
SplineSet
1833 782 m 0
 1833 711.333333333 1825 645.666666667 1809 585 c 0
 1793 524.333333333 1772 469.666666667 1746 421 c 0
 1720 371.666666667 1689.66666667 328 1655 290 c 0
 1620.33333333 252 1583.66666667 220.333333333 1545 195 c 0
 1507 169.666666667 1468.66666667 150.333333333 1430 137 c 0
 1391.33333333 124.333333333 1354.33333333 118 1319 118 c 0
 1261 118 1219 132.333333333 1193 161 c 0
 1167.66666667 190.333333333 1155 234 1155 292 c 0
 1100.33333333 236.666666667 1048.66666667 194 1000 164 c 0
 951.333333333 134 902.666666667 119.333333333 854 120 c 0
 816 120 781 128 749 144 c 0
 717 160 689.333333333 182.666666667 666 212 c 0
 642.666666667 242 624.333333333 278 611 320 c 0
 598.333333333 362 592 409.333333333 592 462 c 0
 592 542 606.666666667 616.666666667 636 686 c 0
 665.333333333 755.333333333 704.333333333 815.666666667 753 867 c 0
 801.666666667 918.333333333 857 958.666666667 919 988 c 0
 981 1017.33333333 1045 1032 1111 1032 c 0
 1126.33333333 1032 1142.66666667 1030.66666667 1160 1028 c 0
 1178 1025.33333333 1196 1021.33333333 1214 1016 c 0
 1232 1010.66666667 1250 1004.66666667 1268 998 c 0
 1286 990.666666667 1302.33333333 983 1317 975 c 0
 1355 1023 l 0
 1475 1023 l 0
 1473.66666667 1019 1470.33333333 1007 1465 987 c 0
 1460.33333333 967 1454.33333333 942 1447 912 c 0
 1439.66666667 882 1432 848.666666667 1424 812 c 0
 1415.33333333 774.666666667 1406.66666667 737 1398 699 c 0
 1377.33333333 610.333333333 1354.33333333 510.666666667 1329 400 c 0
 1323.66666667 376 1321 354 1321 334 c 0
 1321 314 1324 297 1330 283 c 0
 1336 268.333333333 1345.33333333 257 1358 249 c 0
 1370.66666667 241 1387 237 1407 237 c 0
 1427.66666667 237 1450 242.333333333 1474 253 c 0
 1498 264.333333333 1522 281 1546 303 c 0
 1570 325 1593 351.666666667 1615 383 c 0
 1637 414.333333333 1656.66666667 450 1674 490 c 0
 1691.33333333 530 1705 574.666666667 1715 624 c 0
 1725 672.666666667 1730.33333333 724.666666667 1731 780 c 0
 1731 845.333333333 1723.33333333 905.333333333 1708 960 c 0
 1692.66666667 1014 1671.33333333 1062.33333333 1644 1105 c 0
 1616.66666667 1147.66666667 1584.33333333 1185 1547 1217 c 0
 1509.66666667 1248.33333333 1469 1274.33333333 1425 1295 c 0
 1381 1315.66666667 1335 1331 1287 1341 c 0
 1238.33333333 1351 1189.66666667 1356.33333333 1141 1357 c 0
 1061 1357 985.333333333 1347.66666667 914 1329 c 0
 842.666666667 1310.33333333 776.666666667 1283.66666667 716 1249 c 0
 655.333333333 1214.33333333 600.666666667 1172.33333333 552 1123 c 0
 503.333333333 1073.66666667 462.333333333 1018.66666667 429 958 c 0
 395 897.333333333 368.666666667 831.666666667 350 761 c 0
 331.333333333 690.333333333 322.333333333 616.333333333 323 539 c 0
 323 432.333333333 339.333333333 333 372 241 c 0
 405.333333333 149 453.333333333 69 516 1 c 0
 578.666666667 -66.3333333333 655.333333333 -119.333333333 746 -158 c 0
 836.666666667 -196.666666667 940.333333333 -216 1057 -216 c 0
 1118.33333333 -216 1175.66666667 -211.333333333 1229 -202 c 0
 1282.33333333 -192.666666667 1332.33333333 -180.333333333 1379 -165 c 0
 1425 -149.666666667 1467.33333333 -133 1506 -115 c 0
 1544.66666667 -96.3333333333 1580.33333333 -78 1613 -60 c 0
 1642 -136 l 0
 1594.66666667 -161.333333333 1546.66666667 -185 1498 -207 c 0
 1448.66666667 -229 1397.66666667 -248.666666667 1345 -266 c 0
 1293 -282.666666667 1238.66666667 -296 1182 -306 c 0
 1126 -316 1067.66666667 -321 1007 -321 c 0
 931.666666667 -321 859 -312.333333333 789 -295 c 0
 719 -277.666666667 653 -253 591 -221 c 0
 529 -188.333333333 472.666666667 -148.333333333 422 -101 c 0
 370.666666667 -53.6666666667 326.666666667 0.333333333333 290 61 c 0
 253.333333333 121.666666667 225 189 205 263 c 0
 184.333333333 337 174 416.333333333 174 501 c 0
 174 605 186.333333333 700.333333333 211 787 c 0
 235.666666667 874.333333333 270 953 314 1023 c 0
 358 1093 410 1154.66666667 470 1208 c 0
 530 1261.33333333 594.666666667 1305.66666667 664 1341 c 0
 734 1376.33333333 807.333333333 1403.33333333 884 1422 c 0
 960.666666667 1440 1038 1449 1116 1449 c 0
 1220 1449 1315.66666667 1434.33333333 1403 1405 c 0
 1491 1375.66666667 1566.66666667 1333 1630 1277 c 0
 1693.33333333 1221 1743 1151.66666667 1779 1069 c 0
 1815 985.666666667 1833 890 1833 782 c 0
1246 824 m 0
 1248 832.666666667 1246.33333333 844 1241 858 c 0
 1235 871.333333333 1226.33333333 884.666666667 1215 898 c 0
 1203.66666667 910.666666667 1190 921.333333333 1174 930 c 0
 1158 939.333333333 1140.66666667 944 1122 944 c 0
 1070 944 1023.33333333 932 982 908 c 0
 940.666666667 884 905.333333333 850.666666667 876 808 c 0
 846.666666667 766 824 717 808 661 c 0
 792 605 784 544.666666667 784 480 c 0
 784 404 798 347.333333333 826 310 c 0
 854 272.666666667 894.666666667 254 948 254 c 0
 971.333333333 254 993.666666667 258.666666667 1015 268 c 0
 1036.33333333 277.333333333 1056 288.666666667 1074 302 c 0
 1092 315.333333333 1108.33333333 330 1123 346 c 0
 1138.33333333 362 1151.33333333 376.666666667 1162 390 c 0
 1246 824 l 0
EndSplineSet
EndChar

StartChar: A
Encoding: 36 65 36
Width: 1411
VWidth: 1024
Flags: HW
LayerCount: 2
Fore
SplineSet
820 0 m 0
 820 88 l 0
 916 98 l 0
 946.666666667 102 960 115.333333333 956 138 c 0
 893 539 l 0
 418 539 l 0
 204 138 l 0
 196.666666667 124.666666667 196.333333333 115.333333333 203 110 c 0
 210.333333333 104.666666667 224 100.666666667 244 98 c 0
 340 88 l 0
 340 0 l 0
 -112 0 l 0
 -112 88 l 0
 6 100 l 0
 780 1441 l 0
 948 1441 l 0
 1175 138 l 0
 1177 124.666666667 1180.66666667 115 1186 109 c 0
 1191.33333333 103 1201.66666667 99.3333333333 1217 98 c 0
 1313 88 l 0
 1313 0 l 0
 820 0 l 0
784 1183 m 0
 474 638 l 0
 874 638 l 0
 784 1183 l 0
EndSplineSet
EndChar

StartChar: B
Encoding: 37 66 37
Width: 1271
VWidth: 1024
Flags: HW
LayerCount: 2
Fore
SplineSet
971 1124 m 0
 971 1190 945.666666667 1238.66666667 895 1270 c 0
 845 1301.33333333 775.333333333 1317 686 1317 c 0
 664 1317 643.666666667 1316.33333333 625 1315 c 0
 605.666666667 1313.66666667 590.333333333 1312.33333333 579 1311 c 0
 476 778 l 0
 484 777.333333333 492.666666667 776.666666667 502 776 c 0
 529 775 l 0
 543 775 543 775 556 775 c 0
 564 774.333333333 570 774 574 774 c 0
 639.333333333 774 697 783.333333333 747 802 c 0
 796.333333333 820.666666667 837.666666667 846 871 878 c 0
 904.333333333 910 929.333333333 947.333333333 946 990 c 0
 962.666666667 1032 971 1076.66666667 971 1124 c 0
933 449 m 0
 933 492.333333333 925.333333333 528.666666667 910 558 c 0
 894.666666667 588 873.333333333 612 846 630 c 0
 818.666666667 648.666666667 785 662 745 670 c 0
 705.666666667 678 661.333333333 682 612 682 c 0
 586 682 559 681 531 679 c 0
 503 677 477.666666667 674.333333333 455 671 c 0
 344 100 l 0
 352 99.3333333333 361.666666667 98.6666666667 373 98 c 0
 384.333333333 97.3333333333 396 96.6666666667 408 96 c 0
 420 95.3333333333 431.666666667 95 443 95 c 0
 454.333333333 94.3333333333 464.666666667 94 474 94 c 0
 624 94 738 125.333333333 816 188 c 0
 894 250.666666667 933 337.666666667 933 449 c 0
1204 1139 m 0
 1204 1085 1195 1037 1177 995 c 0
 1158.33333333 953.666666667 1133 917.333333333 1101 886 c 0
 1069 854.666666667 1032 828 990 806 c 0
 947.333333333 783.333333333 902 764.333333333 854 749 c 0
 900 743 941.666666667 733.333333333 979 720 c 0
 1016.33333333 707.333333333 1048.66666667 690.333333333 1076 669 c 0
 1103.33333333 647 1124.66666667 619.666666667 1140 587 c 0
 1155.33333333 554.333333333 1162.66666667 515.333333333 1162 470 c 0
 1162 384 1146.33333333 311 1115 251 c 0
 1083.66666667 191 1040.33333333 142.666666667 985 106 c 0
 929.666666667 68.6666666667 864 41.6666666667 788 25 c 0
 712.666666667 8.33333333333 631 0 543 0 c 0
 -32 0 l 0
 -32 88 l 0
 100 98 l 0
 112.666666667 99.3333333333 122.333333333 103.333333333 129 110 c 0
 135 116.666666667 138.666666667 126 140 138 c 0
 358 1267 l 0
 360 1278.33333333 358.333333333 1287.66666667 353 1295 c 0
 347.666666667 1302.33333333 335.333333333 1307 316 1309 c 0
 200 1319 l 0
 200 1407 l 0
 788 1407 l 0
 864 1407 928.666666667 1400.66666667 982 1388 c 0
 1034.66666667 1375.33333333 1077.66666667 1357.33333333 1111 1334 c 0
 1144.33333333 1310.66666667 1168 1282.33333333 1182 1249 c 0
 1196.66666667 1215.66666667 1204 1179 1204 1139 c 0
EndSplineSet
EndChar

StartChar: C
Encoding: 38 67 38
Width: 1320
VWidth: 1024
Flags: HW
LayerCount: 2
Fore
SplineSet
1294 1030 m 0
 1170 1030 l 0
 1170 1225 l 0
 1170 1235.66666667 1166.33333333 1246.66666667 1159 1258 c 0
 1151 1269.33333333 1142.33333333 1277 1133 1281 c 0
 1130.33333333 1282.33333333 1124 1286 1114 1292 c 0
 1104.66666667 1298 1092.33333333 1304 1077 1310 c 0
 1061.66666667 1316 1043.66666667 1321.66666667 1023 1327 c 0
 1002.33333333 1332.33333333 979.333333333 1334.66666667 954 1334 c 0
 900 1334 847.333333333 1325.66666667 796 1309 c 0
 744 1291.66666667 694.666666667 1267 648 1235 c 0
 601.333333333 1203 558 1163.66666667 518 1117 c 0
 478.666666667 1070.33333333 444.333333333 1017.66666667 415 959 c 0
 385.666666667 899.666666667 363 834.666666667 347 764 c 0
 330.333333333 693.333333333 322.333333333 617.666666667 323 537 c 0
 323 457.666666667 334.333333333 389 357 331 c 0
 379.666666667 273 410.666666667 224.666666667 450 186 c 0
 488.666666667 148 534 119.666666667 586 101 c 0
 638 82.3333333333 693.666666667 73.3333333333 753 74 c 0
 775.666666667 74 796 75.3333333333 814 78 c 0
 832.666666667 81.3333333333 848.666666667 85 862 89 c 0
 875.333333333 93 886 97 894 101 c 0
 906 107 906 107 910 109 c 0
 918 110.333333333 927 115 937 123 c 0
 947 131.666666667 954 141 958 151 c 0
 1049 390 l 0
 1172 390 l 0
 1116 50 l 0
 1108 47.3333333333 1090.33333333 41.6666666667 1063 33 c 0
 1036.33333333 24.3333333333 1003.33333333 15 964 5 c 0
 924.666666667 -5 881 -14 833 -22 c 0
 784.333333333 -30 734.666666667 -34 684 -34 c 0
 614.666666667 -34 552 -26 496 -10 c 0
 440 6 390.333333333 27.3333333333 347 54 c 0
 303.666666667 81.3333333333 266.666666667 114 236 152 c 0
 204.666666667 189.333333333 179 230 159 274 c 0
 139 318 124.333333333 364.333333333 115 413 c 0
 105.666666667 461.666666667 100.666666667 510.666666667 100 560 c 0
 100 634.666666667 109.333333333 708 128 780 c 0
 146.666666667 852.666666667 173.333333333 921.666666667 208 987 c 0
 242.666666667 1052.33333333 285 1112.66666667 335 1168 c 0
 385 1223.33333333 441 1271.33333333 503 1312 c 0
 565.666666667 1352 634 1383.33333333 708 1406 c 0
 782 1428.66666667 860.666666667 1440.33333333 944 1441 c 0
 978 1441 1010.66666667 1439 1042 1435 c 0
 1073.33333333 1431 1105.33333333 1425.66666667 1138 1419 c 0
 1170 1411.66666667 1203.33333333 1402.66666667 1238 1392 c 0
 1272.66666667 1381.33333333 1310.33333333 1369.66666667 1351 1357 c 0
 1294 1030 l 0
EndSplineSet
EndChar

StartChar: D
Encoding: 39 68 39
Width: 1406
VWidth: 1024
Flags: HW
LayerCount: 2
Fore
SplineSet
1369 870 m 0
 1369 784 1359 703 1339 627 c 0
 1319 550.333333333 1290.33333333 479.666666667 1253 415 c 0
 1215.66666667 350.333333333 1170.33333333 292.666666667 1117 242 c 0
 1063.66666667 190.666666667 1003 147 935 111 c 0
 867.666666667 75 794.333333333 47.6666666667 715 29 c 0
 635.666666667 9.66666666667 551.333333333 0 462 0 c 0
 -32 0 l 0
 -32 88 l 0
 98 98 l 0
 111.333333333 99.3333333333 121 103.333333333 127 110 c 0
 132.333333333 116.666666667 136.666666667 126 140 138 c 0
 358 1267 l 0
 360 1278.33333333 358.333333333 1287.66666667 353 1295 c 0
 347.666666667 1302.33333333 335.333333333 1307 316 1309 c 0
 200 1319 l 0
 200 1407 l 0
 700 1407 l 0
 795.333333333 1407 884 1397.66666667 966 1379 c 0
 1047.33333333 1360.33333333 1118 1330 1178 1288 c 0
 1238 1246 1284.66666667 1190.66666667 1318 1122 c 0
 1352 1054 1369 970 1369 870 c 0
1143 889 m 0
 1143 976.333333333 1129.66666667 1046.66666667 1103 1100 c 0
 1076.33333333 1153.33333333 1040.33333333 1194.66666667 995 1224 c 0
 949.666666667 1253.33333333 897.666666667 1273.33333333 839 1284 c 0
 779.666666667 1294.66666667 717.333333333 1301 652 1303 c 0
 577 1303 l 0
 346 109 l 0
 499 109 l 0
 605 110.333333333 698 133 778 177 c 0
 858.666666667 221 926 279 980 351 c 0
 1034 423.666666667 1074.66666667 506.666666667 1102 600 c 0
 1129.33333333 692.666666667 1143 789 1143 889 c 0
EndSplineSet
EndChar

StartChar: E
Encoding: 40 69 40
Width: 1169
VWidth: 1024
Flags: HW
LayerCount: 2
Fore
SplineSet
1153 1093 m 0
 1019 1093 l 0
 1019 1263 l 0
 1019 1278.33333333 1016.33333333 1288.66666667 1011 1294 c 0
 1005.66666667 1300 995 1303 979 1303 c 0
 577 1303 l 0
 480 786 l 0
 761 786 l 0
 776.333333333 786 787.666666667 789 795 795 c 0
 803 801 809.333333333 811.333333333 814 826 c 0
 854 967 l 0
 971 967 l 0
 879 486 l 0
 759 486 l 0
 780 636 l 0
 784 664 770.666666667 678 740 678 c 0
 457 678 l 0
 348 104 l 0
 841 104 l 0
 856.333333333 104 867.666666667 108 875 116 c 0
 883 124 889 134 893 146 c 0
 958 348 l 0
 1086 348 l 0
 1017 0 l 0
 -32 0 l 0
 -32 88 l 0
 90 98 l 0
 119.333333333 100 136 113.333333333 140 138 c 0
 358 1267 l 0
 360 1278.33333333 358.333333333 1287.66666667 353 1295 c 0
 347.666666667 1302.33333333 336 1307 318 1309 c 0
 202 1319 l 0
 202 1407 l 0
 1217 1407 l 0
 1153 1093 l 0
EndSplineSet
EndChar

StartChar: F
Encoding: 41 70 41
Width: 1077
VWidth: 1024
Flags: HW
LayerCount: 2
Fore
SplineSet
1128 1069 m 0
 994 1069 l 0
 994 1263 l 0
 994 1278.33333333 991 1288.66666667 985 1294 c 0
 979 1300 968 1303 952 1303 c 0
 577 1303 l 0
 474 763 l 0
 742 763 l 0
 757.333333333 763 768.666666667 766 776 772 c 0
 783.333333333 778 789 788.333333333 793 803 c 0
 833 946 l 0
 952 946 l 0
 860 468 l 0
 740 468 l 0
 761 614 l 0
 763.666666667 627.333333333 761 638 753 646 c 0
 745 653.333333333 733.666666667 656.666666667 719 656 c 0
 453 656 l 0
 352 138 l 0
 350 128 351.666666667 119.333333333 357 112 c 0
 362.333333333 104.666666667 374 100 392 98 c 0
 528 88 l 0
 528 0 l 0
 -32 0 l 0
 -32 88 l 0
 88 98 l 0
 116.666666667 100 134 113.333333333 140 138 c 0
 358 1267 l 0
 360 1278.33333333 358.333333333 1287.66666667 353 1295 c 0
 347.666666667 1302.33333333 335.333333333 1307 316 1309 c 0
 200 1319 l 0
 200 1407 l 0
 1193 1407 l 0
 1128 1069 l 0
EndSplineSet
EndChar

StartChar: G
Encoding: 42 71 42
Width: 1441
VWidth: 1024
Flags: HW
LayerCount: 2
Fore
SplineSet
1296 581 m 0
 1282.66666667 579.666666667 1271.33333333 576 1262 570 c 0
 1252.66666667 564 1246.33333333 554.333333333 1243 541 c 0
 1149 48 l 0
 1142.33333333 46 1130.33333333 42.6666666667 1113 38 c 0
 1095.66666667 33.3333333333 1075.33333333 28.3333333333 1052 23 c 0
 1028 17 1001.33333333 10.6666666667 972 4 c 0
 942.666666667 -2.66666666667 912.666666667 -9 882 -15 c 0
 850.666666667 -21 819 -25.6666666667 787 -29 c 0
 755 -32.3333333333 724.666666667 -34 696 -34 c 0
 616 -34 546 -24.6666666667 486 -6 c 0
 425.333333333 12.6666666667 373 37.3333333333 329 68 c 0
 285 99.3333333333 248.333333333 135.333333333 219 176 c 0
 189.666666667 216.666666667 166 259 148 303 c 0
 130 347.666666667 117.666666667 392 111 436 c 0
 103.666666667 480.666666667 100 522.666666667 100 562 c 0
 100 651.333333333 112 735.333333333 136 814 c 0
 160 892 193 963.666666667 235 1029 c 0
 277 1094.33333333 326.333333333 1152.33333333 383 1203 c 0
 440.333333333 1253.66666667 502.666666667 1296.66666667 570 1332 c 0
 637.333333333 1367.33333333 707.666666667 1394.33333333 781 1413 c 0
 855 1431.66666667 929.666666667 1441 1005 1441 c 0
 1039 1441 1070.66666667 1439.66666667 1100 1437 c 0
 1130 1434.33333333 1160 1430 1190 1424 c 0
 1220 1418 1251.66666667 1410.33333333 1285 1401 c 0
 1318.33333333 1391.66666667 1355 1381 1395 1369 c 0
 1329 1032 l 0
 1187 1032 l 0
 1193 1225 l 0
 1194.33333333 1241 1191.33333333 1253.66666667 1184 1263 c 0
 1176.66666667 1273 1166.33333333 1279.66666667 1153 1283 c 0
 1150.33333333 1283.66666667 1144.66666667 1286.33333333 1136 1291 c 0
 1127.33333333 1295.66666667 1115.33333333 1301 1100 1307 c 0
 1085.33333333 1312.33333333 1068 1317 1048 1321 c 0
 1027.33333333 1325 1004.33333333 1327 979 1327 c 0
 926.333333333 1327 874 1318.66666667 822 1302 c 0
 770 1284.66666667 719.666666667 1260 671 1228 c 0
 623 1196 578.333333333 1156.66666667 537 1110 c 0
 495.666666667 1063.33333333 460 1010.33333333 430 951 c 0
 399.333333333 891.666666667 375.333333333 826.666666667 358 756 c 0
 340.666666667 685.333333333 332 609.333333333 332 528 c 0
 332 471.333333333 338.333333333 421 351 377 c 0
 363.666666667 333 381 294.333333333 403 261 c 0
 425 227.666666667 450 199.333333333 478 176 c 0
 506 152.666666667 535 133.666666667 565 119 c 0
 595 104.333333333 625 94 655 88 c 0
 685 81.3333333333 712.666666667 78 738 78 c 0
 759.333333333 78 780.666666667 79.3333333333 802 82 c 0
 823.333333333 84.6666666667 843.666666667 88 863 92 c 0
 882.333333333 96 899.666666667 100 915 104 c 0
 930.333333333 108 942 111.333333333 950 114 c 0
 1032 541 l 0
 1034 552.333333333 1032.33333333 561.333333333 1027 568 c 0
 1021.66666667 574.666666667 1009.33333333 579 990 581 c 0
 874 592 l 0
 874 680 l 0
 1415 680 l 0
 1415 592 l 0
 1296 581 l 0
EndSplineSet
EndChar

StartChar: H
Encoding: 43 72 43
Width: 1519
VWidth: 1024
Flags: HW
LayerCount: 2
Fore
SplineSet
1487 1309 m 0
 1474.33333333 1307.66666667 1463.66666667 1303.66666667 1455 1297 c 0
 1446.33333333 1290.33333333 1440.33333333 1280.33333333 1437 1267 c 0
 1219 138 l 0
 1217 128 1218.66666667 119.333333333 1224 112 c 0
 1229.33333333 104.666666667 1241.66666667 100 1261 98 c 0
 1378 88 l 0
 1378 0 l 0
 830 0 l 0
 830 88 l 0
 956 98 l 0
 968 99.3333333333 979 103.333333333 989 110 c 0
 998.333333333 116.666666667 1004.33333333 126 1007 138 c 0
 1111 684 l 0
 457 684 l 0
 352 138 l 0
 350 128 351.666666667 119.333333333 357 112 c 0
 362.333333333 104.666666667 374 100 392 98 c 0
 514 88 l 0
 514 0 l 0
 -32 0 l 0
 -32 88 l 0
 88 98 l 0
 116.666666667 100 134 113.333333333 140 138 c 0
 358 1267 l 0
 360 1278.33333333 358.333333333 1287.66666667 353 1295 c 0
 347.666666667 1302.33333333 335.333333333 1307 316 1309 c 0
 200 1319 l 0
 200 1407 l 0
 744 1407 l 0
 744 1319 l 0
 621 1309 l 0
 609 1307.66666667 598 1303.66666667 588 1297 c 0
 578.666666667 1290.33333333 572.666666667 1280.33333333 570 1267 c 0
 478 788 l 0
 1133 788 l 0
 1225 1267 l 0
 1227 1278.33333333 1225.33333333 1287.66666667 1220 1295 c 0
 1214.66666667 1302.33333333 1202.33333333 1307 1183 1309 c 0
 1063 1319 l 0
 1063 1407 l 0
 1609 1407 l 0
 1609 1319 l 0
 1487 1309 l 0
EndSplineSet
EndChar

StartChar: I
Encoding: 44 73 44
Width: 657
VWidth: 1024
Flags: HW
LayerCount: 2
Fore
SplineSet
612 1309 m 0
 598.666666667 1307.66666667 589.333333333 1303.66666667 584 1297 c 0
 578.666666667 1290.33333333 574 1280.33333333 570 1267 c 0
 352 138 l 0
 350 128 351.666666667 119.333333333 357 112 c 0
 362.333333333 104.666666667 374.666666667 100 394 98 c 0
 516 88 l 0
 516 0 l 0
 -32 0 l 0
 -32 88 l 0
 100 98 l 0
 112.666666667 99.3333333333 122.333333333 103.333333333 129 110 c 0
 135 116.666666667 138.666666667 126 140 138 c 0
 358 1267 l 0
 360 1278.33333333 358.333333333 1287.66666667 353 1295 c 0
 347.666666667 1302.33333333 336 1307 318 1309 c 0
 202 1319 l 0
 202 1407 l 0
 746 1407 l 0
 746 1319 l 0
 612 1309 l 0
EndSplineSet
EndChar

StartChar: J
Encoding: 45 74 45
Width: 980
VWidth: 1024
Flags: HW
LayerCount: 2
Fore
SplineSet
944 1309 m 0
 915.333333333 1307 897.666666667 1293 891 1267 c 0
 757 537 l 0
 741 450.333333333 721.666666667 371.666666667 699 301 c 0
 676.333333333 231 645.666666667 171 607 121 c 0
 568.333333333 71.6666666667 519 33.6666666667 459 7 c 0
 399 -19.6666666667 324 -33.3333333333 234 -34 c 0
 193.333333333 -34 157 -31.3333333333 125 -26 c 0
 93 -20.6666666667 65.3333333333 -14.3333333333 42 -7 c 0
 19.3333333333 0.333333333333 1 7.66666666667 -13 15 c 0
 -27 22.3333333333 -36.6666666667 27.3333333333 -42 30 c 0
 28 388 l 0
 166 388 l 0
 166 132 l 0
 166 114 174.333333333 100.333333333 191 91 c 0
 208.333333333 81 228 76 250 76 c 0
 294.666666667 76 332.666666667 85.6666666667 364 105 c 0
 395.333333333 125 421.666666667 153.666666667 443 191 c 0
 465 228.333333333 483.666666667 274.666666667 499 330 c 0
 514.333333333 384.666666667 528.333333333 447.333333333 541 518 c 0
 680 1267 l 0
 682 1278.33333333 680.333333333 1287.66666667 675 1295 c 0
 669.666666667 1302.33333333 658 1307 640 1309 c 0
 518 1319 l 0
 518 1407 l 0
 1063 1407 l 0
 1063 1319 l 0
 944 1309 l 0
EndSplineSet
EndChar

StartChar: K
Encoding: 46 75 46
Width: 1374
VWidth: 1024
Flags: HW
LayerCount: 2
Fore
SplineSet
1275 1303 m 0
 726 772 l 0
 1017 208 l 0
 1029.66666667 182 1042 161 1054 145 c 0
 1066 129 1078.66666667 116.333333333 1092 107 c 0
 1104.66666667 97.6666666667 1118.33333333 91.6666666667 1133 89 c 0
 1147.66666667 85.6666666667 1164.33333333 84 1183 84 c 0
 1195.66666667 84 1209.33333333 84.3333333333 1224 85 c 0
 1238.66666667 85.6666666667 1254.33333333 86.6666666667 1271 88 c 0
 1271 0 l 0
 1238.33333333 -9.33333333333 1204 -17.3333333333 1168 -24 c 0
 1132.66666667 -30.6666666667 1101.33333333 -34 1074 -34 c 0
 1043.33333333 -34 1016.66666667 -31.6666666667 994 -27 c 0
 971.333333333 -22.3333333333 950.333333333 -14 931 -2 c 0
 911.666666667 10 894.333333333 26 879 46 c 0
 863 66 846.666666667 91.3333333333 830 122 c 0
 572 618 l 0
 444 618 l 0
 350 138 l 0
 348 128 350 119.333333333 356 112 c 0
 362 104.666666667 374 100 392 98 c 0
 514 88 l 0
 514 0 l 0
 -34 0 l 0
 -34 88 l 0
 88 98 l 0
 117.333333333 100 134 113.333333333 138 138 c 0
 358 1267 l 0
 360 1278.33333333 358.333333333 1287.66666667 353 1295 c 0
 347.666666667 1302.33333333 336 1307 318 1309 c 0
 202 1319 l 0
 202 1407 l 0
 746 1407 l 0
 746 1319 l 0
 623 1309 l 0
 609.666666667 1307.66666667 598.333333333 1303.66666667 589 1297 c 0
 580.333333333 1290.33333333 574 1280.33333333 570 1267 c 0
 464 717 l 0
 499 717 l 0
 1057 1267 l 0
 1065.66666667 1275 1069.33333333 1283.66666667 1068 1293 c 0
 1066 1302.33333333 1057.33333333 1307.66666667 1042 1309 c 0
 908 1319 l 0
 908 1407 l 0
 1451 1407 l 0
 1451 1319 l 0
 1275 1303 l 0
EndSplineSet
EndChar

StartChar: L
Encoding: 47 76 47
Width: 1085
VWidth: 1024
Flags: HW
LayerCount: 2
Fore
SplineSet
937 0 m 0
 -32 0 l 0
 -32 88 l 0
 90 98 l 0
 119.333333333 100 136 113.333333333 140 138 c 0
 358 1267 l 0
 360 1278.33333333 358.333333333 1287.66666667 353 1295 c 0
 347.666666667 1302.33333333 336 1307 318 1309 c 0
 202 1319 l 0
 202 1407 l 0
 746 1407 l 0
 746 1319 l 0
 623 1309 l 0
 607 1307.66666667 594.666666667 1302.66666667 586 1294 c 0
 577.333333333 1286 572 1277 570 1267 c 0
 348 104 l 0
 761 104 l 0
 774.333333333 104 785.333333333 108 794 116 c 0
 802.666666667 124 809.333333333 134 814 146 c 0
 889 388 l 0
 1013 388 l 0
 937 0 l 0
EndSplineSet
EndChar

StartChar: M
Encoding: 48 77 48
Width: 1806
VWidth: 1024
Flags: HW
LayerCount: 2
Fore
SplineSet
1775 1309 m 0
 1746.33333333 1307 1728.33333333 1293 1721 1267 c 0
 1505 138 l 0
 1503 128 1505 119.333333333 1511 112 c 0
 1517 104.666666667 1529 100 1547 98 c 0
 1665 88 l 0
 1665 0 l 0
 1120 0 l 0
 1120 88 l 0
 1243 98 l 0
 1255.66666667 99.3333333333 1267 103.333333333 1277 110 c 0
 1286.33333333 116.666666667 1292 126 1294 138 c 0
 1497 1202 l 0
 824 0 l 0
 698 0 l 0
 488 1191 l 0
 294 138 l 0
 292 128 293.666666667 119.333333333 299 112 c 0
 304.333333333 104.666666667 316 100 334 98 c 0
 451 88 l 0
 451 0 l 0
 -30 0 l 0
 -30 88 l 0
 90 98 l 0
 118.666666667 100 136 113.333333333 142 138 c 0
 358 1267 l 0
 360 1278.33333333 358.333333333 1287.66666667 353 1295 c 0
 347.666666667 1302.33333333 335.333333333 1307 316 1309 c 0
 200 1319 l 0
 200 1407 l 0
 669 1407 l 0
 669 1349 l 0
 849 334 l 0
 1409 1338 l 0
 1409 1407 l 0
 1893 1407 l 0
 1893 1319 l 0
 1775 1309 l 0
EndSplineSet
EndChar

StartChar: N
Encoding: 49 78 49
Width: 1490
VWidth: 1024
Flags: HW
LayerCount: 2
Fore
SplineSet
1464 1309 m 0
 1450.66666667 1307.66666667 1439.33333333 1303.66666667 1430 1297 c 0
 1420.66666667 1290.33333333 1414.33333333 1280.33333333 1411 1267 c 0
 1164 0 l 0
 1013 0 l 0
 484 1113 l 0
 298 138 l 0
 296 128 297.666666667 119.333333333 303 112 c 0
 308.333333333 104.666666667 320.666666667 100 340 98 c 0
 457 88 l 0
 457 0 l 0
 -30 0 l 0
 -30 88 l 0
 90 98 l 0
 118.666666667 100 136 113.333333333 142 138 c 0
 358 1267 l 0
 360 1278.33333333 358.333333333 1287.66666667 353 1295 c 0
 347.666666667 1302.33333333 336 1307 318 1309 c 0
 202 1319 l 0
 202 1407 l 0
 606 1407 l 0
 606 1353 l 0
 1078 352 l 0
 1256 1267 l 0
 1258 1278.33333333 1256.33333333 1287.66666667 1251 1295 c 0
 1245.66666667 1302.33333333 1234.33333333 1307 1217 1309 c 0
 1097 1319 l 0
 1097 1407 l 0
 1583 1407 l 0
 1583 1319 l 0
 1464 1309 l 0
EndSplineSet
EndChar

StartChar: O
Encoding: 50 79 50
Width: 1488
VWidth: 1024
Flags: HW
LayerCount: 2
Fore
SplineSet
1449 874 m 0
 1449 800 1441 726.666666667 1425 654 c 0
 1409 580.666666667 1386.33333333 510 1357 442 c 0
 1327 374.666666667 1289.66666667 312 1245 254 c 0
 1200.33333333 196 1149.33333333 145.666666667 1092 103 c 0
 1034 59.6666666667 970 26.3333333333 900 3 c 0
 829.333333333 -21 753 -33.3333333333 671 -34 c 0
 587 -34 510 -20 440 8 c 0
 370.666666667 35.3333333333 310.666666667 74.6666666667 260 126 c 0
 209.333333333 177.333333333 170 238.666666667 142 310 c 0
 114 382 100 462 100 550 c 0
 100 625.333333333 108.666666667 699.333333333 126 772 c 0
 143.333333333 845.333333333 168 915 200 981 c 0
 232.666666667 1047 272 1108 318 1164 c 0
 364 1220 416 1268.66666667 474 1310 c 0
 532 1350.66666667 595 1382.66666667 663 1406 c 0
 731.666666667 1429.33333333 804.333333333 1441 881 1441 c 0
 967.666666667 1441 1046 1426 1116 1396 c 0
 1186 1366 1245.66666667 1325.66666667 1295 1275 c 0
 1344.33333333 1223.66666667 1382.33333333 1163.66666667 1409 1095 c 0
 1435.66666667 1025.66666667 1449 952 1449 874 c 0
1210 874 m 0
 1210 943.333333333 1201.33333333 1006.66666667 1184 1064 c 0
 1166.66666667 1120.66666667 1142.66666667 1169.33333333 1112 1210 c 0
 1080.66666667 1250.66666667 1043.66666667 1282 1001 1304 c 0
 958.333333333 1326 912 1336.66666667 862 1336 c 0
 810.666666667 1336 762.333333333 1325 717 1303 c 0
 671 1280.33333333 628.666666667 1249.33333333 590 1210 c 0
 551.333333333 1171.33333333 516.333333333 1126 485 1074 c 0
 453.666666667 1022 427.333333333 966 406 906 c 0
 384 846.666666667 367 785 355 721 c 0
 343.666666667 657 338 594 338 532 c 0
 338 461.333333333 347 398 365 342 c 0
 383 286 407.666666667 238 439 198 c 0
 470.333333333 158.666666667 507 128.666666667 549 108 c 0
 591 86.6666666667 636.666666667 76 686 76 c 0
 737.333333333 76 785.666666667 87.3333333333 831 110 c 0
 877 132.666666667 919.333333333 164 958 204 c 0
 996.666666667 243.333333333 1031.66666667 289.333333333 1063 342 c 0
 1094.33333333 394 1121 449.666666667 1143 509 c 0
 1165 568.333333333 1181.66666667 629.333333333 1193 692 c 0
 1204.33333333 754 1210 814.666666667 1210 874 c 0
EndSplineSet
EndChar

StartChar: P
Encoding: 51 80 51
Width: 1185
VWidth: 1024
Flags: HW
LayerCount: 2
Fore
SplineSet
1197 1072 m 0
 1197 987.333333333 1181 911.333333333 1149 844 c 0
 1117 776.666666667 1072.33333333 719 1015 671 c 0
 957.666666667 623.666666667 890.333333333 587.333333333 813 562 c 0
 735 536.666666667 650 524 558 524 c 0
 547.333333333 524 534.333333333 524.333333333 519 525 c 0
 503.666666667 525.666666667 489.333333333 526 476 526 c 0
 451 527 451 527 426 528 c 0
 348 138 l 0
 346 128 347.666666667 119.333333333 353 112 c 0
 358.333333333 104.666666667 370.666666667 100 390 98 c 0
 510 88 l 0
 510 0 l 0
 -36 0 l 0
 -36 88 l 0
 86 98 l 0
 113.333333333 100 130 113.333333333 136 138 c 0
 356 1267 l 0
 358 1278.33333333 356.333333333 1287.66666667 351 1295 c 0
 345.666666667 1302.33333333 333.333333333 1307 314 1309 c 0
 198 1319 l 0
 198 1407 l 0
 719 1407 l 0
 805 1407 878 1398.66666667 938 1382 c 0
 998.666666667 1365.33333333 1048.33333333 1342 1087 1312 c 0
 1125.66666667 1282 1153.66666667 1246.66666667 1171 1206 c 0
 1188.33333333 1165.33333333 1197 1120.66666667 1197 1072 c 0
979 1036 m 0
 979 1076 973.333333333 1113 962 1147 c 0
 950.666666667 1180.33333333 932.333333333 1209 907 1233 c 0
 881.666666667 1257 848 1275.66666667 806 1289 c 0
 764.666666667 1302.33333333 714 1309 654 1309 c 0
 641.333333333 1309 627.666666667 1308.66666667 613 1308 c 0
 598.333333333 1307.33333333 585.333333333 1306.33333333 574 1305 c 0
 444 638 l 0
 474.666666667 635.333333333 505.666666667 634.333333333 537 635 c 0
 568.333333333 636.333333333 599 639.666666667 629 645 c 0
 659 650.333333333 688 657.666666667 716 667 c 0
 744 677 770.333333333 689.666666667 795 705 c 0
 821.666666667 721 846 739.333333333 868 760 c 0
 890.666666667 781.333333333 910.333333333 805.666666667 927 833 c 0
 943.666666667 860.333333333 956.333333333 890.666666667 965 924 c 0
 974.333333333 958 979 995.333333333 979 1036 c 0
EndSplineSet
EndChar

StartChar: Q
Encoding: 52 81 52
Width: 1488
VWidth: 1024
Flags: HW
LayerCount: 2
Fore
SplineSet
1514 -232 m 0
 1502 -238 1502 -238 1466 -256 c 0
 1442 -267.333333333 1413.33333333 -279 1380 -291 c 0
 1346.66666667 -302.333333333 1311 -312.666666667 1273 -322 c 0
 1235 -331.333333333 1197.33333333 -336 1160 -336 c 0
 1106 -336 1059 -328 1019 -312 c 0
 979 -296 943.666666667 -274.333333333 913 -247 c 0
 882.333333333 -219 855.666666667 -186 833 -148 c 0
 810.333333333 -110.666666667 789.333333333 -70 770 -26 c 0
 754 -27.3333333333 736.666666667 -29 718 -31 c 0
 699.333333333 -33 681.666666667 -34 665 -34 c 0
 587.666666667 -34 514.333333333 -21 445 5 c 0
 376.333333333 30.3333333333 316.333333333 67.6666666667 265 117 c 0
 213.666666667 166.333333333 172.666666667 226.666666667 142 298 c 0
 111.333333333 370 96 451.666666667 96 543 c 0
 96 615.666666667 104.666666667 688 122 760 c 0
 139.333333333 832.666666667 164.333333333 902 197 968 c 0
 229.666666667 1034.66666667 269 1097 315 1155 c 0
 361.666666667 1213 414 1263 472 1305 c 0
 530 1347 593.666666667 1380 663 1404 c 0
 732.333333333 1428 805.666666667 1440.33333333 883 1441 c 0
 968.333333333 1441 1045.66666667 1426.66666667 1115 1398 c 0
 1184.33333333 1369.33333333 1243.66666667 1329.66666667 1293 1279 c 0
 1342.33333333 1228.33333333 1380.33333333 1168.66666667 1407 1100 c 0
 1433.66666667 1031.33333333 1447 957 1447 877 c 0
 1447 839.666666667 1444.66666667 798 1440 752 c 0
 1435.33333333 706 1426.66666667 658.333333333 1414 609 c 0
 1402 559.666666667 1385 509.333333333 1363 458 c 0
 1341 406.666666667 1313 356.333333333 1279 307 c 0
 1245 257.666666667 1204 210.333333333 1156 165 c 0
 1108 119.666666667 1052 78.6666666667 988 42 c 0
 1009.33333333 3.33333333333 1029.66666667 -31.6666666667 1049 -63 c 0
 1068.33333333 -94.3333333333 1088.66666667 -121.333333333 1110 -144 c 0
 1132 -166.666666667 1156 -184 1182 -196 c 0
 1208 -208 1238.33333333 -214 1273 -214 c 0
 1293.66666667 -214 1314.66666667 -211.666666667 1336 -207 c 0
 1357.33333333 -202.333333333 1378.66666667 -196.666666667 1400 -190 c 0
 1421.33333333 -183.333333333 1441.66666667 -176 1461 -168 c 0
 1480.33333333 -160 1498 -152 1514 -144 c 0
 1514 -232 l 0
1210 877 m 0
 1210 943 1202 1004 1186 1060 c 0
 1169.33333333 1116 1146.33333333 1164.33333333 1117 1205 c 0
 1087 1245.66666667 1051.33333333 1277.33333333 1010 1300 c 0
 968.666666667 1322.66666667 922.666666667 1334 872 1334 c 0
 820 1334 770.666666667 1323.33333333 724 1302 c 0
 676.666666667 1280.66666667 633 1251 593 1213 c 0
 553 1175.66666667 517 1131.33333333 485 1080 c 0
 452.333333333 1028.66666667 424.666666667 973.333333333 402 914 c 0
 379.333333333 854.666666667 362 792.666666667 350 728 c 0
 338 663.333333333 332 598 332 532 c 0
 332 466.666666667 340 406.333333333 356 351 c 0
 372.666666667 295.666666667 396 247.666666667 426 207 c 0
 456.666666667 167 493.666666667 135.333333333 537 112 c 0
 580.333333333 89.3333333333 629.333333333 78 684 78 c 0
 734 78 781.666666667 89.3333333333 827 112 c 0
 872.333333333 134.666666667 914.666666667 165.333333333 954 204 c 0
 993.333333333 242.666666667 1028.66666667 288 1060 340 c 0
 1091.33333333 392 1118.33333333 447.666666667 1141 507 c 0
 1163.66666667 566.333333333 1180.66666667 627.666666667 1192 691 c 0
 1204 754.333333333 1210 816.333333333 1210 877 c 0
EndSplineSet
EndChar

StartChar: R
Encoding: 53 82 53
Width: 1343
VWidth: 1024
Flags: HW
LayerCount: 2
Fore
SplineSet
1290 0 m 0
 1261.33333333 -12.6666666667 1234.66666667 -21.6666666667 1210 -27 c 0
 1185.33333333 -31.6666666667 1161 -34 1137 -34 c 0
 1073.66666667 -34 1022.66666667 -23.6666666667 984 -3 c 0
 945.333333333 17.6666666667 914.666666667 44.3333333333 892 77 c 0
 870 109.666666667 853.666666667 146 843 186 c 0
 832.333333333 226 823.333333333 265.333333333 816 304 c 0
 808 342.666666667 799 381 789 419 c 0
 779 457 765 491 747 521 c 0
 729 551 705 575 675 593 c 0
 645 611.666666667 605.333333333 621 556 621 c 0
 546.666666667 621 535.666666667 620.666666667 523 620 c 0
 511 619.333333333 499 619.333333333 487 620 c 0
 474.333333333 619.333333333 460.666666667 618.666666667 446 618 c 0
 356 138 l 0
 354 128 355.666666667 119.333333333 361 112 c 0
 366.333333333 104.666666667 378 100 396 98 c 0
 518 88 l 0
 518 0 l 0
 -28 0 l 0
 -28 88 l 0
 92 98 l 0
 120.666666667 100 138 113.333333333 144 138 c 0
 358 1267 l 0
 360 1278.33333333 358.333333333 1287.66666667 353 1295 c 0
 347.666666667 1302.33333333 336 1307 318 1309 c 0
 202 1319 l 0
 202 1407 l 0
 763 1407 l 0
 821 1407 877.333333333 1402.33333333 932 1393 c 0
 986.666666667 1383.66666667 1035.33333333 1366.66666667 1078 1342 c 0
 1120 1318 1154 1286.33333333 1180 1247 c 0
 1205.33333333 1207 1218.33333333 1157 1219 1097 c 0
 1219 1040.33333333 1207.66666667 989 1185 943 c 0
 1162.33333333 897 1131.66666667 856.333333333 1093 821 c 0
 1054.33333333 785 1008.66666667 754 956 728 c 0
 904 702 849 681 791 665 c 0
 834.333333333 646.333333333 868.333333333 625.666666667 893 603 c 0
 918.333333333 580.333333333 939 554.666666667 955 526 c 0
 971 498 983.333333333 467 992 433 c 0
 1000.66666667 399 1010.33333333 362.333333333 1021 323 c 0
 1031 284.333333333 1042.33333333 250 1055 220 c 0
 1067 190 1083 165 1103 145 c 0
 1123 125 1148 110.333333333 1178 101 c 0
 1208 91 1245.33333333 86 1290 86 c 0
 1290 0 l 0
981 1067 m 0
 981 1118.33333333 970 1159.66666667 948 1191 c 0
 926 1222.33333333 897.333333333 1246.66666667 862 1264 c 0
 827.333333333 1281.33333333 788.666666667 1292.33333333 746 1297 c 0
 704 1302.33333333 663 1304.33333333 623 1303 c 0
 617.666666667 1303 610 1302.66666667 600 1302 c 0
 590.666666667 1301.33333333 583 1300.66666667 577 1300 c 0
 470 728 l 0
 516 728 l 0
 572.666666667 728 628.666666667 733 684 743 c 0
 739.333333333 753 789 771.333333333 833 798 c 0
 877 824 912.666666667 858.666666667 940 902 c 0
 967.333333333 945.333333333 981 1000.33333333 981 1067 c 0
EndSplineSet
EndChar

StartChar: S
Encoding: 54 83 54
Width: 1091
VWidth: 1024
Flags: HW
LayerCount: 2
Fore
SplineSet
1009 1044 m 0
 885 1044 l 0
 893 1256 l 0
 893 1262.66666667 888 1271 878 1281 c 0
 868 1290.33333333 854 1299 836 1307 c 0
 818.666666667 1315.66666667 798.666666667 1323 776 1329 c 0
 753.333333333 1335 729.666666667 1338 705 1338 c 0
 665 1338 625.666666667 1331 587 1317 c 0
 549 1302.33333333 515.333333333 1282.33333333 486 1257 c 0
 456.666666667 1231.66666667 433.333333333 1201.33333333 416 1166 c 0
 398.666666667 1130.66666667 390 1092.33333333 390 1051 c 0
 390 1013.66666667 400.333333333 980.666666667 421 952 c 0
 441.666666667 924 467 899 497 877 c 0
 527 855 559 835.666666667 593 819 c 0
 627 802.333333333 658 787.333333333 686 774 c 0
 722.666666667 754.666666667 758.666666667 734.666666667 794 714 c 0
 829.333333333 692.666666667 860.666666667 668.666666667 888 642 c 0
 915.333333333 615.333333333 937.333333333 584.666666667 954 550 c 0
 970.666666667 515.333333333 979 475.333333333 979 430 c 0
 979 379.333333333 968.666666667 326.666666667 948 272 c 0
 927.333333333 217.333333333 893.666666667 167.333333333 847 122 c 0
 800.333333333 76.6666666667 740 39.3333333333 666 10 c 0
 592 -19.3333333333 501.333333333 -34 394 -34 c 0
 340 -34 290 -29 244 -19 c 0
 198 -9 157.333333333 2.33333333333 122 15 c 0
 86.6666666667 27.6666666667 57.6666666667 40 35 52 c 0
 12.3333333333 64 -2.66666666667 72 -10 76 c 0
 60 413 l 0
 204 413 l 0
 180 172 l 0
 179.333333333 164 184.333333333 155.666666667 195 147 c 0
 205 139 218 131.333333333 234 124 c 0
 250.666666667 116.666666667 269 110.333333333 289 105 c 0
 309 99 328 94 346 90 c 0
 364 85.3333333333 380 81.6666666667 394 79 c 0
 408 76.3333333333 417.333333333 75.3333333333 422 76 c 0
 467.333333333 76 510.333333333 83 551 97 c 0
 591.666666667 111 627.666666667 131 659 157 c 0
 690.333333333 183 715 215 733 253 c 0
 751.666666667 291 761 334 761 382 c 0
 761 417.333333333 750.666666667 449 730 477 c 0
 709.333333333 504.333333333 683.666666667 529 653 551 c 0
 622.333333333 573 590 592.333333333 556 609 c 0
 522 625.666666667 492 640.666666667 466 654 c 0
 429.333333333 673.333333333 393.333333333 693.333333333 358 714 c 0
 323.333333333 734.666666667 292.666666667 758 266 784 c 0
 239.333333333 809.333333333 217.666666667 838 201 870 c 0
 184.333333333 902 176 939 176 981 c 0
 176 1050.33333333 189.666666667 1113.33333333 217 1170 c 0
 244.333333333 1226.66666667 282.333333333 1275 331 1315 c 0
 379.666666667 1355 437.333333333 1386 504 1408 c 0
 570.666666667 1430 643.333333333 1441 722 1441 c 0
 769.333333333 1441 813 1437.66666667 853 1431 c 0
 893 1424.33333333 928.333333333 1416.66666667 959 1408 c 0
 989.666666667 1399.33333333 1015.33333333 1390.66666667 1036 1382 c 0
 1056 1374 1069.33333333 1368.33333333 1076 1365 c 0
 1009 1044 l 0
EndSplineSet
EndChar

StartChar: T
Encoding: 55 84 55
Width: 1228
VWidth: 1024
Flags: HW
LayerCount: 2
Fore
SplineSet
1296 1086 m 0
 1164 1086 l 0
 1172 1271 l 0
 1174 1299 1161 1313 1133 1313 c 0
 862 1313 l 0
 644 138 l 0
 642 128 643.666666667 119.333333333 649 112 c 0
 654.333333333 104.666666667 666.666666667 100 686 98 c 0
 805 88 l 0
 805 0 l 0
 260 0 l 0
 260 88 l 0
 382 98 l 0
 394 99.3333333333 405 103.333333333 415 110 c 0
 424.333333333 116.666666667 430 126 432 138 c 0
 650 1313 l 0
 388 1313 l 0
 361.333333333 1313 344 1299 336 1271 c 0
 270 1086 l 0
 138 1086 l 0
 200 1407 l 0
 1361 1407 l 0
 1296 1086 l 0
EndSplineSet
EndChar

StartChar: U
Encoding: 56 85 56
Width: 1482
VWidth: 1024
Flags: HW
LayerCount: 2
Fore
SplineSet
1449 1309 m 0
 1437 1307.66666667 1426 1303.66666667 1416 1297 c 0
 1406.66666667 1290.33333333 1401 1280.33333333 1399 1267 c 0
 1237 449 l 0
 1222.33333333 373 1199.33333333 305 1168 245 c 0
 1136.66666667 185 1096.66666667 134.666666667 1048 94 c 0
 999.333333333 52.6666666667 942 21 876 -1 c 0
 810 -23 735.333333333 -34 652 -34 c 0
 587.333333333 -34 527.333333333 -27.3333333333 472 -14 c 0
 416.666666667 -0.666666666667 368 20.6666666667 326 50 c 0
 284.666666667 79.3333333333 252 117.333333333 228 164 c 0
 204.666666667 210.666666667 193 267.333333333 193 334 c 0
 193 355.333333333 195 385 199 423 c 0
 203.666666667 461 210.666666667 504.666666667 220 554 c 0
 367 1267 l 0
 369 1278.33333333 367 1287.66666667 361 1295 c 0
 355.666666667 1302.33333333 343.666666667 1307 325 1309 c 0
 208 1319 l 0
 208 1407 l 0
 753 1407 l 0
 753 1319 l 0
 629 1309 l 0
 617 1307.66666667 606 1303.66666667 596 1297 c 0
 586.666666667 1290.33333333 581 1280.33333333 579 1267 c 0
 434 554 l 0
 426 513.333333333 420 476.666666667 416 444 c 0
 412 411.333333333 410.333333333 385.666666667 411 367 c 0
 411 322.333333333 418 283.666666667 432 251 c 0
 446 218.333333333 465.666666667 190.666666667 491 168 c 0
 516.333333333 146 547.333333333 129.666666667 584 119 c 0
 620.666666667 108.333333333 661.666666667 102.666666667 707 102 c 0
 775 102 832 113.666666667 878 137 c 0
 924 159.666666667 962.333333333 190 993 228 c 0
 1023.66666667 266 1048 310.666666667 1066 362 c 0
 1084 412.666666667 1098.33333333 466 1109 522 c 0
 1256 1267 l 0
 1258 1278.33333333 1256.33333333 1287.66666667 1251 1295 c 0
 1245.66666667 1302.33333333 1233.33333333 1307 1214 1309 c 0
 1097 1319 l 0
 1097 1407 l 0
 1571 1407 l 0
 1571 1319 l 0
 1449 1309 l 0
EndSplineSet
EndChar

StartChar: V
Encoding: 57 86 57
Width: 1347
VWidth: 1024
Flags: HW
LayerCount: 2
Fore
SplineSet
1391 1307 m 0
 667 -34 l 0
 508 -34 l 0
 304 1273 l 0
 302 1286.33333333 296.666666667 1296.33333333 288 1303 c 0
 279.333333333 1309.66666667 268 1313.66666667 254 1315 c 0
 174 1319 l 0
 174 1407 l 0
 650 1407 l 0
 650 1319 l 0
 560 1315 l 0
 544 1313.66666667 532.666666667 1310 526 1304 c 0
 518.666666667 1298 516 1287.66666667 518 1273 c 0
 675 258 l 0
 1208 1273 l 0
 1213.33333333 1283.66666667 1214.33333333 1293 1211 1301 c 0
 1207.66666667 1309 1196.33333333 1313.66666667 1177 1315 c 0
 1074 1319 l 0
 1074 1407 l 0
 1501 1407 l 0
 1501 1319 l 0
 1391 1307 l 0
EndSplineSet
EndChar

StartChar: W
Encoding: 58 87 58
Width: 1943
VWidth: 1024
Flags: HW
LayerCount: 2
Fore
SplineSet
1973 1307 m 0
 1345 -34 l 0
 1210 -34 l 0
 1089 1086 l 0
 564 -34 l 0
 418 -34 l 0
 312 1273 l 0
 310.666666667 1286.33333333 306.666666667 1296.33333333 300 1303 c 0
 292.666666667 1309.66666667 280 1313.66666667 262 1315 c 0
 174 1319 l 0
 174 1407 l 0
 658 1407 l 0
 658 1319 l 0
 566 1315 l 0
 550 1313.66666667 539.333333333 1309.66666667 534 1303 c 0
 528 1296.33333333 524.666666667 1286.33333333 524 1273 c 0
 598 362 l 0
 1091 1407 l 0
 1261 1407 l 0
 1367 348 l 0
 1793 1273 l 0
 1805 1299 1791.66666667 1313 1753 1315 c 0
 1659 1319 l 0
 1659 1407 l 0
 2097 1407 l 0
 2097 1319 l 0
 1973 1307 l 0
EndSplineSet
EndChar

StartChar: X
Encoding: 59 88 59
Width: 1327
VWidth: 1024
Flags: HW
LayerCount: 2
Fore
SplineSet
1296 1311 m 0
 1285.33333333 1309.66666667 1275.33333333 1305.33333333 1266 1298 c 0
 1256.66666667 1290.66666667 1250 1284.33333333 1246 1279 c 0
 784 755 l 0
 1059 128 l 0
 1065.66666667 115.333333333 1072.33333333 107 1079 103 c 0
 1085.66666667 99.6666666667 1093 97.3333333333 1101 96 c 0
 1214 88 l 0
 1214 0 l 0
 673 0 l 0
 673 88 l 0
 807 96 l 0
 818.333333333 97.3333333333 827.666666667 102.333333333 835 111 c 0
 841.666666667 119 842.333333333 128 837 138 c 0
 648 579 l 0
 252 138 l 0
 243.333333333 130 239.666666667 121.333333333 241 112 c 0
 243 102.666666667 252.666666667 97.3333333333 270 96 c 0
 396 88 l 0
 396 0 l 0
 -92 0 l 0
 -92 88 l 0
 8 96 l 0
 19.3333333333 97.3333333333 29.6666666667 101.666666667 39 109 c 0
 47.6666666667 116.333333333 54 122.666666667 58 128 c 0
 581 713 l 0
 330 1279 l 0
 324.666666667 1291.66666667 318.333333333 1300 311 1304 c 0
 304.333333333 1307.33333333 297.333333333 1309.66666667 290 1311 c 0
 174 1319 l 0
 174 1407 l 0
 719 1407 l 0
 719 1319 l 0
 583 1311 l 0
 571.666666667 1309.66666667 562.333333333 1305 555 1297 c 0
 548.333333333 1289 547.333333333 1279.66666667 552 1269 c 0
 724 877 l 0
 1067 1269 l 0
 1074.33333333 1277 1077.66666667 1285.66666667 1077 1295 c 0
 1075.66666667 1304.33333333 1066.33333333 1309.66666667 1049 1311 c 0
 948 1319 l 0
 948 1407 l 0
 1422 1407 l 0
 1422 1319 l 0
 1296 1311 l 0
EndSplineSet
EndChar

StartChar: Y
Encoding: 60 89 60
Width: 1339
VWidth: 1024
Flags: HW
LayerCount: 2
Fore
SplineSet
1373 1311 m 0
 1363 1309.66666667 1352.66666667 1305.33333333 1342 1298 c 0
 1332 1290.66666667 1324.33333333 1284.33333333 1319 1279 c 0
 786 589 l 0
 698 138 l 0
 694.666666667 128 696 119.333333333 702 112 c 0
 708 104.666666667 720 100 738 98 c 0
 856 88 l 0
 856 0 l 0
 310 0 l 0
 310 88 l 0
 432 98 l 0
 444 99.3333333333 454.666666667 103.333333333 464 110 c 0
 472.666666667 116.666666667 478.666666667 126 482 138 c 0
 568 570 l 0
 334 1279 l 0
 329.333333333 1292.33333333 323.333333333 1300.66666667 316 1304 c 0
 308.666666667 1307.33333333 301.333333333 1309.66666667 294 1311 c 0
 176 1319 l 0
 176 1407 l 0
 719 1407 l 0
 719 1319 l 0
 585 1311 l 0
 573.666666667 1309.66666667 565 1305 559 1297 c 0
 553 1289.66666667 552 1280.33333333 556 1269 c 0
 728 724 l 0
 1133 1269 l 0
 1135.66666667 1273.66666667 1138 1278.33333333 1140 1283 c 0
 1142 1287.66666667 1142.66666667 1292 1142 1296 c 0
 1141.33333333 1300 1139 1303.33333333 1135 1306 c 0
 1131 1308.66666667 1124.66666667 1310.33333333 1116 1311 c 0
 986 1319 l 0
 986 1407 l 0
 1491 1407 l 0
 1491 1319 l 0
 1373 1311 l 0
EndSplineSet
EndChar

StartChar: Z
Encoding: 61 90 61
Width: 1179
VWidth: 1024
Flags: HW
LayerCount: 2
Fore
SplineSet
1229 1313 m 0
 242 112 l 0
 812 112 l 0
 839.333333333 112 856.666666667 126 864 154 c 0
 927 388 l 0
 1069 388 l 0
 996 0 l 0
 -42 0 l 0
 -24 92 l 0
 961 1298 l 0
 470 1298 l 0
 454.666666667 1298 443.666666667 1295 437 1289 c 0
 429.666666667 1282.33333333 424 1272 420 1258 c 0
 362 1074 l 0
 218 1074 l 0
 286 1407 l 0
 1248 1407 l 0
 1229 1313 l 0
EndSplineSet
EndChar

StartChar: bracketleft
Encoding: 62 91 62
Width: 882
VWidth: 1024
Flags: HW
LayerCount: 2
Fore
SplineSet
646 1386 m 0
 334 -178 l 0
 654 -178 l 0
 654 -276 l 0
 114 -276 l 0
 466 1485 l 0
 988 1485 l 0
 988 1386 l 0
 646 1386 l 0
EndSplineSet
EndChar

StartChar: backslash
Encoding: 63 92 63
Width: 1024
VWidth: 1024
Flags: HW
LayerCount: 2
Fore
SplineSet
891 -195 m 0
 0 1407 l 0
 134 1407 l 0
 1025 -195 l 0
 891 -195 l 0
EndSplineSet
EndChar

StartChar: bracketright
Encoding: 64 93 64
Width: 882
VWidth: 1024
Flags: HW
LayerCount: 2
Fore
SplineSet
436 -276 m 0
 -86 -276 l 0
 -86 -176 l 0
 258 -176 l 0
 568 1389 l 0
 248 1389 l 0
 248 1485 l 0
 788 1485 l 0
 436 -276 l 0
EndSplineSet
EndChar

StartChar: asciicircum
Encoding: 65 94 65
Width: 718
VWidth: 1024
Flags: HW
LayerCount: 2
Fore
SplineSet
780 578 m 0
 694 674 l 0
 568 578 l 0
 495 578 l 0
 668 755 l 0
 750 755 l 0
 853 578 l 0
 780 578 l 0
EndSplineSet
EndChar

StartChar: underscore
Encoding: 66 95 66
Width: 636
VWidth: 1024
Flags: HW
LayerCount: 2
Fore
SplineSet
473 -323 m 0
 -164 -323 l 0
 -134 -184 l 0
 500 -184 l 0
 473 -323 l 0
EndSplineSet
EndChar

StartChar: grave
Encoding: 67 96 67
Width: 823
VWidth: 1024
Flags: HW
LayerCount: 2
Fore
SplineSet
693 578 m 0
 541 677 l 0
 533.666666667 681.666666667 528 687.666666667 524 695 c 0
 519.333333333 701.666666667 517 710.333333333 517 721 c 0
 517 726.333333333 517.666666667 731.666666667 519 737 c 0
 520.333333333 742.333333333 523 747.333333333 527 752 c 0
 530.333333333 756.666666667 535 760.333333333 541 763 c 0
 547 765.666666667 554.666666667 767 564 767 c 0
 571.333333333 767 577.666666667 766.333333333 583 765 c 0
 588.333333333 763.666666667 593.333333333 762 598 760 c 0
 602 758 605.666666667 755.333333333 609 752 c 0
 612.333333333 748.666666667 615.333333333 745 618 741 c 0
 758 578 l 0
 693 578 l 0
EndSplineSet
EndChar

StartChar: a
Encoding: 68 97 68
Width: 1091
VWidth: 1024
Flags: HW
LayerCount: 2
Fore
SplineSet
1086 56 m 0
 1078 52.6666666667 1063 46.3333333333 1041 37 c 0
 1019 27.6666666667 994.666666667 18.6666666667 968 10 c 0
 941.333333333 0.666666666667 914 -7.66666666667 886 -15 c 0
 858.666666667 -22.3333333333 834.666666667 -26 814 -26 c 0
 788.666666667 -26 767.333333333 -22.6666666667 750 -16 c 0
 732.666666667 -10 718.333333333 -1 707 11 c 0
 695.666666667 23 687 38 681 56 c 0
 675 74 671 94.6666666667 669 118 c 0
 653 102.666666667 634.333333333 86.6666666667 613 70 c 0
 591.666666667 53.3333333333 568.333333333 38 543 24 c 0
 517.666666667 9.33333333333 490.333333333 -2.66666666667 461 -12 c 0
 431.666666667 -21.3333333333 401.666666667 -26 371 -26 c 0
 330.333333333 -26 294.333333333 -20 263 -8 c 0
 231.666666667 3.33333333333 204.666666667 18.6666666667 182 38 c 0
 159.333333333 57.3333333333 140.666666667 80 126 106 c 0
 111.333333333 131.333333333 99.6666666667 158 91 186 c 0
 82.3333333333 213.333333333 76.3333333333 241.333333333 73 270 c 0
 69.6666666667 298 68 324.666666667 68 350 c 0
 68 404 73.6666666667 458.666666667 85 514 c 0
 96.3333333333 568.666666667 113.666666667 621.333333333 137 672 c 0
 159.666666667 722.666666667 188 770.333333333 222 815 c 0
 256 859.666666667 295.333333333 898.333333333 340 931 c 0
 384.666666667 963.666666667 434.666666667 989.333333333 490 1008 c 0
 544.666666667 1026.66666667 605 1036 671 1036 c 0
 690.333333333 1036 709.333333333 1034 728 1030 c 0
 746.666666667 1025.33333333 764 1019.33333333 780 1012 c 0
 796.666666667 1004.66666667 811.666666667 996.666666667 825 988 c 0
 838.333333333 979.333333333 850 970.333333333 860 961 c 0
 891 1011 l 0
 1034 1011 l 0
 1030.66666667 1003 1027 993.333333333 1023 982 c 0
 1019 970.666666667 1015 959 1011 947 c 0
 1007 935.666666667 1003.33333333 924.666666667 1000 914 c 0
 996.666666667 904 994.666666667 896.333333333 994 891 c 0
 989.333333333 872.333333333 982.666666667 844.333333333 974 807 c 0
 965.333333333 769.666666667 956 728 946 682 c 0
 936 635.333333333 925.666666667 586.666666667 915 536 c 0
 904.333333333 485.333333333 895 437.333333333 887 392 c 0
 879 346.666666667 872 306.333333333 866 271 c 0
 860.666666667 235.666666667 858 210.333333333 858 195 c 0
 858 158.333333333 866 133 882 119 c 0
 898 105.666666667 920 98.6666666667 948 98 c 0
 954.666666667 98 964.666666667 99.6666666667 978 103 c 0
 991.333333333 106.333333333 1005.33333333 110 1020 114 c 0
 1034.66666667 118 1048 121.666666667 1060 125 c 0
 1072 128.333333333 1080.66666667 130.666666667 1086 132 c 0
 1086 56 l 0
778 822 m 0
 778.666666667 825.333333333 776.333333333 833.333333333 771 846 c 0
 765 858 758 870.666666667 750 884 c 0
 742 897.333333333 733 909.333333333 723 920 c 0
 713.666666667 930 706 935 700 935 c 0
 646.666666667 935 599.333333333 926.333333333 558 909 c 0
 516 891.666666667 479 868 447 838 c 0
 415.666666667 808 389 773.666666667 367 735 c 0
 345 696.333333333 327 655.666666667 313 613 c 0
 299.666666667 571 290 528.333333333 284 485 c 0
 278 441.666666667 274.666666667 400.666666667 274 362 c 0
 274 332.666666667 276.666666667 303.333333333 282 274 c 0
 286.666666667 244.666666667 295 218.333333333 307 195 c 0
 319 171 335.333333333 151.333333333 356 136 c 0
 376.666666667 120.666666667 403.333333333 113.333333333 436 114 c 0
 460.666666667 114 485.333333333 119.333333333 510 130 c 0
 534.666666667 140.666666667 557.666666667 153.333333333 579 168 c 0
 600.333333333 182.666666667 618.666666667 197 634 211 c 0
 650 225.666666667 661.666666667 236.666666667 669 244 c 0
 778 822 l 0
EndSplineSet
EndChar

StartChar: b
Encoding: 69 98 69
Width: 1032
VWidth: 1024
Flags: HW
LayerCount: 2
Fore
SplineSet
965 650 m 0
 965 606 960 559 950 509 c 0
 940.666666667 459 926 409 906 359 c 0
 886 309 860 261 828 215 c 0
 796.666666667 168.333333333 759.333333333 127.333333333 716 92 c 0
 672 56.6666666667 621.666666667 28.3333333333 565 7 c 0
 508.333333333 -14.3333333333 444.666666667 -25.3333333333 374 -26 c 0
 314.666666667 -26 256 -17.6666666667 198 -1 c 0
 140 15.6666666667 86.6666666667 40 38 72 c 0
 286 1401 l 0
 98 1419 l 0
 98 1483 l 0
 426 1545 l 0
 508 1545 l 0
 388 910 l 0
 407.333333333 927.333333333 428.333333333 943.666666667 451 959 c 0
 473.666666667 974.333333333 497.333333333 987.666666667 522 999 c 0
 546.666666667 1010.33333333 572 1019.33333333 598 1026 c 0
 624 1032.66666667 649.666666667 1036 675 1036 c 0
 729 1036 774.333333333 1024 811 1000 c 0
 847.666666667 976 877.666666667 945.333333333 901 908 c 0
 923.666666667 870.666666667 940 829.333333333 950 784 c 0
 960 738.666666667 965 694 965 650 c 0
757 642 m 0
 757 689.333333333 751.333333333 729 740 761 c 0
 729.333333333 793.666666667 716 820.333333333 700 841 c 0
 684 861.666666667 667.666666667 876.333333333 651 885 c 0
 633.666666667 893.666666667 618.666666667 898 606 898 c 0
 588.666666667 898 570 895.333333333 550 890 c 0
 529.333333333 884.666666667 508.333333333 877 487 867 c 0
 465.666666667 857 444.333333333 845.666666667 423 833 c 0
 401.666666667 820.333333333 382.333333333 806.333333333 365 791 c 0
 248 156 l 0
 254.666666667 146 263.666666667 136 275 126 c 0
 286.333333333 116.666666667 299.666666667 108 315 100 c 0
 330.333333333 92 347 85.6666666667 365 81 c 0
 383 76.3333333333 401.333333333 74 420 74 c 0
 452 74 482.333333333 82 511 98 c 0
 540.333333333 114.666666667 567.333333333 137 592 165 c 0
 616.666666667 193 639.333333333 225.666666667 660 263 c 0
 680.666666667 300.333333333 698 340 712 382 c 0
 726 424 737 467.666666667 745 513 c 0
 753 557.666666667 757 600.666666667 757 642 c 0
EndSplineSet
EndChar

StartChar: c
Encoding: 70 99 70
Width: 911
VWidth: 1024
Flags: HW
LayerCount: 2
Fore
SplineSet
845 889 m 0
 845 875.666666667 843 861.666666667 839 847 c 0
 835 832.333333333 827 819 815 807 c 0
 803 795 786.333333333 784 765 774 c 0
 744.333333333 764 717.333333333 757 684 753 c 0
 564 914 l 0
 526.666666667 912 493.333333333 901.666666667 464 883 c 0
 434.666666667 864.333333333 409 840.333333333 387 811 c 0
 365 781.666666667 346 748.333333333 330 711 c 0
 314.666666667 673.666666667 302.333333333 636 293 598 c 0
 283.666666667 560 276.666666667 522.666666667 272 486 c 0
 268 450 266 418 266 390 c 0
 266 356 269.333333333 322.333333333 276 289 c 0
 282.666666667 255.666666667 293.333333333 226 308 200 c 0
 322.666666667 174 341.666666667 152.666666667 365 136 c 0
 388.333333333 119.333333333 417.666666667 111.333333333 453 112 c 0
 481 112 509.333333333 116.666666667 538 126 c 0
 566.666666667 136 595.333333333 150 624 168 c 0
 653.333333333 186 682.666666667 207 712 231 c 0
 741.333333333 255.666666667 771 282.666666667 801 312 c 0
 801 180 l 0
 779 158.666666667 754 136.333333333 726 113 c 0
 698 89 667 66.6666666667 633 46 c 0
 599 25.3333333333 561.666666667 8.33333333333 521 -5 c 0
 480.333333333 -18.3333333333 436.666666667 -25.3333333333 390 -26 c 0
 340 -26 295 -17 255 1 c 0
 215 18.3333333333 181.333333333 43.3333333333 154 76 c 0
 126.666666667 109.333333333 105.333333333 150.333333333 90 199 c 0
 74.6666666667 247.666666667 67.3333333333 303 68 365 c 0
 68 427.666666667 75.3333333333 487.666666667 90 545 c 0
 104.666666667 602.333333333 125 656 151 706 c 0
 177 756 207.666666667 801 243 841 c 0
 278.333333333 881.666666667 316.666666667 916.666666667 358 946 c 0
 399.333333333 975.333333333 443.333333333 997.666666667 490 1013 c 0
 536 1029 583 1036.66666667 631 1036 c 0
 668.333333333 1036 700.666666667 1031.33333333 728 1022 c 0
 755.333333333 1012.66666667 777.666666667 1000.66666667 795 986 c 0
 812.333333333 971.333333333 825 955.333333333 833 938 c 0
 841 921.333333333 845 905 845 889 c 0
EndSplineSet
EndChar

StartChar: d
Encoding: 71 100 71
Width: 1101
VWidth: 1024
Flags: HW
LayerCount: 2
Fore
SplineSet
788 826 m 0
 788.666666667 828.666666667 785 836.333333333 777 849 c 0
 768.333333333 861.666666667 757.333333333 875 744 889 c 0
 730.666666667 902.333333333 716 914.666666667 700 926 c 0
 684 936.666666667 669.333333333 942 656 942 c 0
 604.666666667 942 556 927.333333333 510 898 c 0
 463.333333333 868 422.333333333 827 387 775 c 0
 351.666666667 723 323.333333333 661.666666667 302 591 c 0
 280.666666667 520.333333333 270 444 270 362 c 0
 270 316.666666667 274.666666667 278 284 246 c 0
 293.333333333 213.333333333 305.666666667 186.333333333 321 165 c 0
 336.333333333 143.666666667 354 128 374 118 c 0
 394 108 414 102.666666667 434 102 c 0
 453.333333333 102 474 107 496 117 c 0
 518 126.333333333 540.333333333 139 563 155 c 0
 585.666666667 171 608 189.333333333 630 210 c 0
 652 230.666666667 672.666666667 252 692 274 c 0
 788 826 l 0
870 180 m 0
 866.666666667 160 867.666666667 144 873 132 c 0
 878.333333333 120 885.666666667 110.333333333 895 103 c 0
 904.333333333 95.6666666667 914 90.6666666667 924 88 c 0
 934 85.3333333333 941.333333333 84 946 84 c 0
 950.666666667 84 960.333333333 86 975 90 c 0
 989.666666667 94 1005.33333333 98 1022 102 c 0
 1038.66666667 106.666666667 1054 111.333333333 1068 116 c 0
 1097 124 l 0
 1097 46 l 0
 1089 42.6666666667 1074 37 1052 29 c 0
 1030 21 1005.66666667 13 979 5 c 0
 952.333333333 -3 925 -10 897 -16 c 0
 869 -22 844 -25.3333333333 822 -26 c 0
 790 -26 763.666666667 -22 743 -14 c 0
 722.333333333 -6 706.333333333 5 695 19 c 0
 683.666666667 33 675.666666667 49.6666666667 671 69 c 0
 666.333333333 88.3333333333 664.333333333 109.333333333 665 132 c 0
 646.333333333 112 626 92.6666666667 604 74 c 0
 582 55.3333333333 558 38.6666666667 532 24 c 0
 506.666666667 9.33333333333 480.333333333 -2.66666666667 453 -12 c 0
 425 -21.3333333333 396.333333333 -26 367 -26 c 0
 308.333333333 -26 259.666666667 -14.6666666667 221 8 c 0
 182.333333333 30.6666666667 151.666666667 60 129 96 c 0
 106.333333333 132 90.3333333333 172.333333333 81 217 c 0
 71.6666666667 261.666666667 67.3333333333 306 68 350 c 0
 68 405.333333333 74 461 86 517 c 0
 98 572.333333333 115.666666667 625.333333333 139 676 c 0
 162.333333333 726.666666667 191 774 225 818 c 0
 259 862 298 900 342 932 c 0
 386 964.666666667 434.666666667 990.333333333 488 1009 c 0
 541.333333333 1027.66666667 598.666666667 1036.66666667 660 1036 c 0
 676 1036 691.666666667 1034.66666667 707 1032 c 0
 722.333333333 1028.66666667 736.666666667 1025 750 1021 c 0
 763.333333333 1017 775.666666667 1012.66666667 787 1008 c 0
 798.333333333 1003.33333333 808.666666667 999.333333333 818 996 c 0
 889 1401 l 0
 698 1419 l 0
 698 1483 l 0
 1023 1545 l 0
 1109 1545 l 0
 870 180 l 0
EndSplineSet
EndChar

StartChar: e
Encoding: 72 101 72
Width: 909
VWidth: 1024
Flags: HW
LayerCount: 2
Fore
SplineSet
874 824 m 0
 874 786 865.333333333 751 848 719 c 0
 830 687 806 658 776 632 c 0
 745.333333333 606 710 583 670 563 c 0
 630 543 588 525.666666667 544 511 c 0
 500 497 455.333333333 486 410 478 c 0
 364 469.333333333 320.333333333 464 279 462 c 0
 277 448.666666667 275 432.333333333 273 413 c 0
 271 393.666666667 270 377.666666667 270 365 c 0
 270 327 274.666666667 291.666666667 284 259 c 0
 293.333333333 227 306.666666667 199.333333333 324 176 c 0
 341.333333333 152.666666667 362.333333333 134 387 120 c 0
 411.666666667 106.666666667 439.333333333 100 470 100 c 0
 517.333333333 100 569.333333333 117.333333333 626 152 c 0
 682.666666667 186 749.333333333 236.666666667 826 304 c 0
 826 172 l 0
 806 152.666666667 782 131.666666667 754 109 c 0
 725.333333333 86.3333333333 692.666666667 65 656 45 c 0
 619.333333333 25 579.666666667 8 537 -6 c 0
 493.666666667 -19.3333333333 448 -26 400 -26 c 0
 378.666666667 -26 355.666666667 -23.6666666667 331 -19 c 0
 306.333333333 -15 281.666666667 -7.66666666667 257 3 c 0
 232.333333333 13.6666666667 208.666666667 28 186 46 c 0
 163.333333333 64.6666666667 143 88 125 116 c 0
 107.666666667 144 93.6666666667 178 83 218 c 0
 72.3333333333 257.333333333 67.3333333333 303.333333333 68 356 c 0
 68 411.333333333 74.6666666667 466.666666667 88 522 c 0
 101.333333333 576.666666667 120 629 144 679 c 0
 168 729 197 776 231 820 c 0
 265 863.333333333 302.666666667 900.666666667 344 932 c 0
 384.666666667 964 428.666666667 989 476 1007 c 0
 522.666666667 1025 571 1034 621 1034 c 0
 669.666666667 1034 710 1026 742 1010 c 0
 774.666666667 994 800.666666667 974.666666667 820 952 c 0
 840 929.333333333 854 906.333333333 862 883 c 0
 870 859 874 839.333333333 874 824 c 0
688 826 m 0
 688 839.333333333 685.333333333 853 680 867 c 0
 674.666666667 880.333333333 667 892 657 902 c 0
 647.666666667 912 636 920.333333333 622 927 c 0
 607.333333333 933.666666667 591.333333333 937 574 937 c 0
 550.666666667 937 528.666666667 931 508 919 c 0
 486.666666667 907 466.333333333 890.333333333 447 869 c 0
 427.666666667 848.333333333 409.666666667 825 393 799 c 0
 376.333333333 772.333333333 361.333333333 744.333333333 348 715 c 0
 334.666666667 685.666666667 322.666666667 656 312 626 c 0
 302 596 294 567.666666667 288 541 c 0
 332.666666667 545 378.333333333 555 425 571 c 0
 472.333333333 587.666666667 515.666666667 608.666666667 555 634 c 0
 593.666666667 659.333333333 625.666666667 688.666666667 651 722 c 0
 675.666666667 754.666666667 688 789.333333333 688 826 c 0
EndSplineSet
EndChar

StartChar: f
Encoding: 73 102 73
Width: 673
VWidth: 1024
Flags: HW
LayerCount: 2
Fore
SplineSet
925 1415 m 0
 925 1381.66666667 912.666666667 1356 888 1338 c 0
 863.333333333 1320 831.666666667 1308.33333333 793 1303 c 0
 629 1435 l 0
 613.666666667 1423 599.666666667 1405 587 1381 c 0
 574.333333333 1357.66666667 562.333333333 1331.66666667 551 1303 c 0
 540.333333333 1273.66666667 530.333333333 1242.33333333 521 1209 c 0
 511.666666667 1175.66666667 503.666666667 1143.66666667 497 1113 c 0
 490.333333333 1081.66666667 484.333333333 1052.66666667 479 1026 c 0
 474.333333333 999.333333333 470.666666667 976.666666667 468 958 c 0
 724 958 l 0
 724 854 l 0
 449 854 l 0
 447 838 443.333333333 810.666666667 438 772 c 0
 432.666666667 733.333333333 426.333333333 688.333333333 419 637 c 0
 411.666666667 585.666666667 403.666666667 531 395 473 c 0
 386.333333333 414.333333333 377.666666667 358 369 304 c 0
 360.333333333 250 352 200 344 154 c 0
 336 108 329 72 323 46 c 0
 313.666666667 7.33333333333 300.333333333 -32.6666666667 283 -74 c 0
 266.333333333 -115.333333333 246.666666667 -155.666666667 224 -195 c 0
 201.333333333 -233.666666667 176 -270.333333333 148 -305 c 0
 120.666666667 -339.666666667 91.3333333333 -370 60 -396 c 0
 28.6666666667 -422 -3.66666666667 -442.666666667 -37 -458 c 0
 -71 -473.333333333 -105.333333333 -480.666666667 -140 -480 c 0
 -166.666666667 -480 -188.666666667 -475.666666667 -206 -467 c 0
 -223.333333333 -458.333333333 -237 -448 -247 -436 c 0
 -256.333333333 -424 -263 -412.333333333 -267 -401 c 0
 -271 -389.666666667 -272.666666667 -381.333333333 -272 -376 c 0
 -272 -349.333333333 -267 -328.666666667 -257 -314 c 0
 -247 -299.333333333 -234 -286 -218 -274 c 0
 -4 -330 l 0
 14.6666666667 -307.333333333 31.6666666667 -279.666666667 47 -247 c 0
 62.3333333333 -214.333333333 76.3333333333 -178 89 -138 c 0
 101.666666667 -98.6666666667 113 -56.3333333333 123 -11 c 0
 133 34.3333333333 142.333333333 81.3333333333 151 130 c 0
 169 228.666666667 185.333333333 339 200 461 c 0
 215.333333333 583 233.333333333 713 254 851 c 0
 92 835 l 0
 94 916 l 0
 276 977 l 0
 282.666666667 1013.66666667 292.333333333 1053.33333333 305 1096 c 0
 317 1138.66666667 331.666666667 1181 349 1223 c 0
 367 1265 388 1305.66666667 412 1345 c 0
 436 1383.66666667 464 1417.66666667 496 1447 c 0
 527.333333333 1477 562.666666667 1501 602 1519 c 0
 641.333333333 1537 684.666666667 1545.66666667 732 1545 c 0
 767.333333333 1545 797.333333333 1540.66666667 822 1532 c 0
 846.666666667 1523.33333333 866.666666667 1512.33333333 882 1499 c 0
 897.333333333 1485.66666667 908 1471.33333333 914 1456 c 0
 921.333333333 1440.66666667 925 1427 925 1415 c 0
EndSplineSet
EndChar

StartChar: g
Encoding: 74 103 74
Width: 921
VWidth: 1024
Flags: HW
LayerCount: 2
Fore
SplineSet
824 883 m 0
 830 867 836 846.666666667 842 822 c 0
 848 797.333333333 851 770.666666667 851 742 c 0
 851 675.333333333 838.666666667 617 814 567 c 0
 789.333333333 517 756.333333333 475.333333333 715 442 c 0
 673.666666667 408.666666667 625.333333333 383.666666667 570 367 c 0
 515.333333333 350.333333333 457.333333333 342 396 342 c 0
 391.333333333 332 387.333333333 320.666666667 384 308 c 0
 380.666666667 296 378 284 376 272 c 0
 374 260 372.666666667 249 372 239 c 0
 371.333333333 229 372 221.333333333 374 216 c 0
 654 88 l 0
 686 73.3333333333 715.333333333 59 742 45 c 0
 768 30.3333333333 790.333333333 14 809 -4 c 0
 827.666666667 -21.3333333333 842.333333333 -41 853 -63 c 0
 863 -85 868 -111.333333333 868 -142 c 0
 868 -172 861 -201.333333333 847 -230 c 0
 833 -258 814 -284.666666667 790 -310 c 0
 766 -334.666666667 737 -357.666666667 703 -379 c 0
 669 -400.333333333 632.333333333 -418.333333333 593 -433 c 0
 553.666666667 -448.333333333 512.666666667 -460 470 -468 c 0
 426.666666667 -476 382.666666667 -480 338 -480 c 0
 269.333333333 -480 209.666666667 -471.666666667 159 -455 c 0
 108.333333333 -437.666666667 66.3333333333 -415 33 -387 c 0
 -0.333333333333 -359 -24.6666666667 -326.666666667 -40 -290 c 0
 -56 -253.333333333 -64.3333333333 -214.666666667 -65 -174 c 0
 -65 -138.666666667 -57.3333333333 -106 -42 -76 c 0
 -27.3333333333 -46 -7.66666666667 -19 17 5 c 0
 42.3333333333 29 72 50.3333333333 106 69 c 0
 140 87.6666666667 176 103.333333333 214 116 c 0
 210.666666667 132.666666667 210.666666667 152 214 174 c 0
 217.333333333 196 222.333333333 218.333333333 229 241 c 0
 236.333333333 263.666666667 245.666666667 285.666666667 257 307 c 0
 268.333333333 328.333333333 281.333333333 346 296 360 c 0
 268 372 242 386.333333333 218 403 c 0
 194 419 173.333333333 437.333333333 156 458 c 0
 138.666666667 478.666666667 125 502.666666667 115 530 c 0
 105 556.666666667 100 587 100 621 c 0
 100 672.333333333 109.666666667 722.666666667 129 772 c 0
 148.333333333 821.333333333 176 865.666666667 212 905 c 0
 248.666666667 944.333333333 293.333333333 976 346 1000 c 0
 398 1024 457.333333333 1036 524 1036 c 0
 549.333333333 1036 573 1034 595 1030 c 0
 617 1025.33333333 637.333333333 1020 656 1014 c 0
 674 1008 689.666666667 1002 703 996 c 0
 716.333333333 990 726 985 732 981 c 0
 1017 981 l 0
 1017 883 l 0
 824 883 l 0
650 753 m 0
 650 779 647.666666667 803.666666667 643 827 c 0
 638.333333333 850.333333333 631 871 621 889 c 0
 611 907 598.333333333 921.333333333 583 932 c 0
 567.666666667 942.666666667 549.333333333 948 528 948 c 0
 502.666666667 948 477 939 451 921 c 0
 424.333333333 902.333333333 399.666666667 877 377 845 c 0
 355 813 337 775.333333333 323 732 c 0
 309 688.666666667 302 642.666666667 302 594 c 0
 302 568.666666667 304.666666667 545.333333333 310 524 c 0
 315.333333333 502.666666667 323.333333333 484 334 468 c 0
 344.666666667 452.666666667 357.333333333 441 372 433 c 0
 386.666666667 424.333333333 403.333333333 420 422 420 c 0
 456.666666667 420 488.333333333 431 517 453 c 0
 545 475 569 503 589 537 c 0
 609 570.333333333 624 606.333333333 634 645 c 0
 644.666666667 684.333333333 650 720.333333333 650 753 c 0
673 -184 m 0
 673 -158.666666667 665.333333333 -135.666666667 650 -115 c 0
 634.666666667 -93.6666666667 606.666666667 -73.3333333333 566 -54 c 0
 304 65 l 0
 270.666666667 57 243 45.6666666667 221 31 c 0
 199 16.3333333333 181.333333333 0 168 -18 c 0
 155.333333333 -36 146 -55.3333333333 140 -76 c 0
 134.666666667 -96.6666666667 132 -117.333333333 132 -138 c 0
 132 -162 137 -188.333333333 147 -217 c 0
 157 -245.666666667 173 -272.333333333 195 -297 c 0
 216.333333333 -321.666666667 243.333333333 -342.333333333 276 -359 c 0
 308.666666667 -375.666666667 347.333333333 -384 392 -384 c 0
 442.666666667 -384 485.666666667 -376.666666667 521 -362 c 0
 556.333333333 -347.333333333 585.333333333 -330 608 -310 c 0
 630.666666667 -289.333333333 647 -267.666666667 657 -245 c 0
 667.666666667 -222.333333333 673 -202 673 -184 c 0
EndSplineSet
EndChar

StartChar: h
Encoding: 75 104 75
Width: 1097
VWidth: 1024
Flags: HW
LayerCount: 2
Fore
SplineSet
1095 52 m 0
 1086.33333333 48.6666666667 1070.66666667 43 1048 35 c 0
 1026 27 1001.33333333 18.3333333333 974 9 c 0
 946.666666667 -0.333333333333 918.666666667 -8.33333333333 890 -15 c 0
 861.333333333 -21.6666666667 836 -25.3333333333 814 -26 c 0
 801.333333333 -26 785 -24 765 -20 c 0
 745 -16 726.333333333 -9 709 1 c 0
 691.666666667 11 678 24.6666666667 668 42 c 0
 658 60 655.333333333 83.3333333333 660 112 c 0
 788 730 l 0
 794 757.333333333 793.666666667 781.666666667 787 803 c 0
 779.666666667 824.333333333 769.666666667 842 757 856 c 0
 744.333333333 870 730 880.333333333 714 887 c 0
 698 894.333333333 684.333333333 898 673 898 c 0
 656.333333333 898 636.333333333 894 613 886 c 0
 589.666666667 878 564.666666667 866.666666667 538 852 c 0
 512 837.333333333 485.666666667 820 459 800 c 0
 432.333333333 780 407.333333333 758 384 734 c 0
 230 0 l 0
 38 0 l 0
 327 1401 l 0
 140 1419 l 0
 140 1483 l 0
 468 1545 l 0
 552 1545 l 0
 411 868 l 0
 432.333333333 891.333333333 457.333333333 913.333333333 486 934 c 0
 515.333333333 954.666666667 546.333333333 972.666666667 579 988 c 0
 612.333333333 1003.33333333 646.666666667 1015 682 1023 c 0
 718 1031.66666667 753.333333333 1036 788 1036 c 0
 826 1036 860 1030 890 1018 c 0
 919.333333333 1006 943 988.333333333 961 965 c 0
 979 941.666666667 990.666666667 912.333333333 996 877 c 0
 1001.33333333 841.666666667 998.666666667 800.333333333 988 753 c 0
 872 188 l 0
 868 168 869.333333333 151.666666667 876 139 c 0
 882 125.666666667 890.333333333 115 901 107 c 0
 911.666666667 99 922.666666667 93.6666666667 934 91 c 0
 945.333333333 87.6666666667 954.333333333 86 961 86 c 0
 980.333333333 86 1001 90.6666666667 1023 100 c 0
 1045.66666667 109.333333333 1069 118 1093 126 c 0
 1095 52 l 0
EndSplineSet
EndChar

StartChar: i
Encoding: 76 105 76
Width: 557
VWidth: 1024
Flags: HW
LayerCount: 2
Fore
SplineSet
543 1345 m 0
 543 1329 540 1314 534 1300 c 0
 528 1286 519.666666667 1273.66666667 509 1263 c 0
 498.333333333 1252.33333333 485.333333333 1243.33333333 470 1236 c 0
 454 1229.33333333 436 1226.33333333 416 1227 c 0
 372.666666667 1227 340 1238.33333333 318 1261 c 0
 296 1283.66666667 285.333333333 1311.66666667 286 1345 c 0
 286 1358.33333333 288.666666667 1371.66666667 294 1385 c 0
 300 1398.33333333 308.666666667 1411 320 1423 c 0
 331.333333333 1434.33333333 345 1443.33333333 361 1450 c 0
 377.666666667 1457.33333333 396.666666667 1461 418 1461 c 0
 438 1461 455.666666667 1457.66666667 471 1451 c 0
 486.333333333 1444.33333333 499.333333333 1435.33333333 510 1424 c 0
 520.666666667 1413.33333333 529 1401 535 1387 c 0
 540.333333333 1373.66666667 543 1359.66666667 543 1345 c 0
552 60 m 0
 544 56.6666666667 529 50.3333333333 507 41 c 0
 485 31.6666666667 459.333333333 22 430 12 c 0
 400.666666667 2 369.666666667 -6.66666666667 337 -14 c 0
 304.333333333 -21.3333333333 274 -25.3333333333 246 -26 c 0
 210 -26 181.333333333 -19.6666666667 160 -7 c 0
 138.666666667 5 123 21 113 41 c 0
 103 61 97 83.3333333333 95 108 c 0
 93.6666666667 132.666666667 95.3333333333 156.666666667 100 180 c 0
 234 891 l 0
 54 910 l 0
 54 971 l 0
 371 1036 l 0
 457 1036 l 0
 298 198 l 0
 295.333333333 183.333333333 295.333333333 169.666666667 298 157 c 0
 301.333333333 144.333333333 306.666666667 132.666666667 314 122 c 0
 321.333333333 112 330.666666667 104.333333333 342 99 c 0
 353.333333333 93 366 90 380 90 c 0
 392 90 406.333333333 92.3333333333 423 97 c 0
 439.666666667 101.666666667 456.666666667 106.666666667 474 112 c 0
 490.666666667 118 506 123.666666667 520 129 c 0
 534.666666667 134.333333333 545.333333333 138 552 140 c 0
 552 60 l 0
EndSplineSet
EndChar

StartChar: j
Encoding: 77 106 77
Width: 571
VWidth: 1024
Flags: HW
LayerCount: 2
Fore
SplineSet
558 1345 m 0
 558 1333 555 1319.66666667 549 1305 c 0
 543 1291 534 1278.33333333 522 1267 c 0
 510.666666667 1255.66666667 497 1246 481 1238 c 0
 465 1230.66666667 447.333333333 1227 428 1227 c 0
 390 1227 358.666666667 1238 334 1260 c 0
 310 1282 298 1310.33333333 298 1345 c 0
 298 1361 300.666666667 1376 306 1390 c 0
 311.333333333 1404.66666667 319.333333333 1417.33333333 330 1428 c 0
 340.666666667 1439.33333333 354.333333333 1448.33333333 371 1455 c 0
 387.666666667 1461.66666667 406.666666667 1464.66666667 428 1464 c 0
 449.333333333 1464 468 1461 484 1455 c 0
 500 1448.33333333 513.333333333 1439.33333333 524 1428 c 0
 534.666666667 1416.66666667 543 1404 549 1390 c 0
 555 1376 558 1361 558 1345 c 0
336 168 m 0
 330 133.333333333 320.666666667 93 308 47 c 0
 296 1 280.666666667 -46 262 -94 c 0
 243.333333333 -142 221 -189 195 -235 c 0
 169.666666667 -281 140.666666667 -322.333333333 108 -359 c 0
 75.3333333333 -395.666666667 39 -425 -1 -447 c 0
 -40.3333333333 -469 -83.3333333333 -480 -130 -480 c 0
 -174.666666667 -480 -209 -469.666666667 -233 -449 c 0
 -257.666666667 -427.666666667 -270 -401 -270 -369 c 0
 -270 -356.333333333 -268 -344.666666667 -264 -334 c 0
 -260 -324 -255 -315 -249 -307 c 0
 -243 -299.666666667 -236.666666667 -293.333333333 -230 -288 c 0
 -223.333333333 -282.666666667 -217.333333333 -278 -212 -274 c 0
 -2 -332 l 0
 8 -321.333333333 18.3333333333 -304.666666667 29 -282 c 0
 39.6666666667 -259.333333333 50 -233.666666667 60 -205 c 0
 70 -177 79.3333333333 -147.333333333 88 -116 c 0
 96 -84.6666666667 103 -54.6666666667 109 -26 c 0
 266 891 l 0
 90 910 l 0
 90 971 l 0
 407 1036 l 0
 484 1036 l 0
 336 168 l 0
EndSplineSet
EndChar

StartChar: k
Encoding: 78 107 78
Width: 1067
VWidth: 1024
Flags: HW
LayerCount: 2
Fore
SplineSet
1042 48 m 0
 1024 39.3333333333 1004 30.6666666667 982 22 c 0
 959.333333333 13.3333333333 935.666666667 5.33333333333 911 -2 c 0
 887 -8.66666666667 863.666666667 -14.3333333333 841 -19 c 0
 818.333333333 -23.6666666667 798.666666667 -26 782 -26 c 0
 764.666666667 -26 748 -23 732 -17 c 0
 715.333333333 -11 700 -3.33333333333 686 6 c 0
 671.333333333 15.3333333333 657.666666667 25.6666666667 645 37 c 0
 633 49 622.666666667 61.3333333333 614 74 c 0
 604.666666667 88.6666666667 594 107.333333333 582 130 c 0
 570 152.666666667 557.333333333 177.666666667 544 205 c 0
 530.666666667 232.333333333 517.333333333 260.666666667 504 290 c 0
 490.666666667 320 477.333333333 348.666666667 464 376 c 0
 451.333333333 403.333333333 440 429.333333333 430 454 c 0
 419.333333333 478 410 497.333333333 402 512 c 0
 306 426 l 0
 220 0 l 0
 28 0 l 0
 306 1401 l 0
 122 1419 l 0
 122 1483 l 0
 446 1545 l 0
 530 1545 l 0
 336 570 l 0
 675 921 l 0
 695 941.666666667 713 959 729 973 c 0
 745.666666667 987.666666667 761.666666667 999.666666667 777 1009 c 0
 792.333333333 1018.33333333 807.666666667 1025.33333333 823 1030 c 0
 839 1034.66666667 856 1036.66666667 874 1036 c 0
 897.333333333 1036 917.666666667 1032.66666667 935 1026 c 0
 952.333333333 1019.33333333 966.666666667 1010.33333333 978 999 c 0
 989.333333333 988.333333333 998 976.333333333 1004 963 c 0
 1009.33333333 949.666666667 1011.66666667 936.333333333 1011 923 c 0
 1011 899 999.666666667 874 977 848 c 0
 955 822.666666667 919.333333333 801.333333333 870 784 c 0
 799 860 l 0
 779.666666667 844.666666667 759 828 737 810 c 0
 715 791.333333333 692.666666667 772.666666667 670 754 c 0
 647.333333333 734.666666667 625.666666667 715.666666667 605 697 c 0
 584.333333333 678.333333333 566 662 550 648 c 0
 558.666666667 630 568.333333333 608 579 582 c 0
 589.666666667 555.333333333 601 526.666666667 613 496 c 0
 625 465.333333333 638 434.333333333 652 403 c 0
 666 371 680.666666667 340.666666667 696 312 c 0
 712 282.666666667 728.666666667 254.666666667 746 228 c 0
 763.333333333 201.333333333 781.333333333 177.333333333 800 156 c 0
 818.666666667 135.333333333 837.333333333 118.666666667 856 106 c 0
 875.333333333 94 894 88 912 88 c 0
 919.333333333 88 928.666666667 89 940 91 c 0
 950.666666667 93 962.333333333 95 975 97 c 0
 987 99.6666666667 999 103.333333333 1011 108 c 0
 1023 112 1033.33333333 116 1042 120 c 0
 1042 48 l 0
EndSplineSet
EndChar

StartChar: l
Encoding: 79 108 79
Width: 555
VWidth: 1024
Flags: HW
LayerCount: 2
Fore
SplineSet
552 54 m 0
 544 50.6666666667 528.666666667 44.6666666667 506 36 c 0
 483.333333333 27.3333333333 458 18.6666666667 430 10 c 0
 402 0.666666666667 373 -7.66666666667 343 -15 c 0
 312.333333333 -22.3333333333 284.666666667 -26 260 -26 c 0
 228 -26 200.666666667 -22 178 -14 c 0
 155.333333333 -6.66666666667 137 3.66666666667 123 17 c 0
 108.333333333 30.3333333333 98 46.6666666667 92 66 c 0
 85.3333333333 84.6666666667 82 105.333333333 82 128 c 0
 82 149.333333333 84 174 88 202 c 0
 318 1401 l 0
 132 1419 l 0
 132 1483 l 0
 460 1545 l 0
 541 1545 l 0
 286 208 l 0
 283.333333333 193.333333333 284 179 288 165 c 0
 292 151 298.333333333 139 307 129 c 0
 315.666666667 118.333333333 326.666666667 109.333333333 340 102 c 0
 352.666666667 95.3333333333 366.666666667 92 382 92 c 0
 392 92 405.333333333 94 422 98 c 0
 438.666666667 102 455.666666667 106.333333333 473 111 c 0
 490.333333333 115.666666667 506.333333333 120.333333333 521 125 c 0
 535.666666667 129.666666667 546 132.666666667 552 134 c 0
 552 54 l 0
EndSplineSet
EndChar

StartChar: m
Encoding: 80 109 80
Width: 1626
VWidth: 1024
Flags: HW
LayerCount: 2
Fore
SplineSet
1621 54 m 0
 1603 46.6666666667 1583 38.3333333333 1561 29 c 0
 1539 19.6666666667 1516 11 1492 3 c 0
 1468.66666667 -5 1445.33333333 -11.6666666667 1422 -17 c 0
 1398.66666667 -22.3333333333 1377 -25.3333333333 1357 -26 c 0
 1328.33333333 -26 1302.33333333 -22.6666666667 1279 -16 c 0
 1256.33333333 -9.33333333333 1237.33333333 0 1222 12 c 0
 1206.66666667 24 1195.66666667 39.3333333333 1189 58 c 0
 1182.33333333 76.6666666667 1181.66666667 98 1187 122 c 0
 1303 682 l 0
 1309.66666667 716.666666667 1312 747 1310 773 c 0
 1308 799 1302.66666667 820.666666667 1294 838 c 0
 1285.33333333 855.333333333 1274.66666667 868 1262 876 c 0
 1249.33333333 884.666666667 1236.33333333 889 1223 889 c 0
 1191 889 1159.66666667 881.666666667 1129 867 c 0
 1098.33333333 852.333333333 1070.66666667 835.666666667 1046 817 c 0
 1020.66666667 797.666666667 998.666666667 777.666666667 980 757 c 0
 961.333333333 737 948.666666667 721 942 709 c 0
 795 0 l 0
 600 0 l 0
 740 684 l 0
 744.666666667 706.666666667 747 730 747 754 c 0
 746.333333333 778 743 800 737 820 c 0
 730.333333333 840 720.333333333 856.333333333 707 869 c 0
 693.666666667 881.666666667 675.333333333 888.333333333 652 889 c 0
 627.333333333 889 601.333333333 881.666666667 574 867 c 0
 546.666666667 852.333333333 520 835.333333333 494 816 c 0
 468.666666667 796 445.333333333 775.666666667 424 755 c 0
 403.333333333 734.333333333 388 717.666666667 378 705 c 0
 230 0 l 0
 38 0 l 0
 218 891 l 0
 44 910 l 0
 44 971 l 0
 358 1036 l 0
 444 1036 l 0
 404 843 l 0
 430 867.666666667 457.666666667 891.666666667 487 915 c 0
 516.333333333 938.333333333 547 959 579 977 c 0
 610.333333333 995 642 1009.33333333 674 1020 c 0
 706 1030.66666667 737.333333333 1036 768 1036 c 0
 802.666666667 1036 831.666666667 1029.66666667 855 1017 c 0
 877.666666667 1004.33333333 896 988 910 968 c 0
 924 948.666666667 934.333333333 927.666666667 941 905 c 0
 947.666666667 882.333333333 952 861.666666667 954 843 c 0
 979.333333333 868.333333333 1007.33333333 892.333333333 1038 915 c 0
 1068.66666667 938.333333333 1101 959 1135 977 c 0
 1168.33333333 995 1202 1009.33333333 1236 1020 c 0
 1270.66666667 1030.66666667 1304 1036 1336 1036 c 0
 1370.66666667 1036 1401.33333333 1029.66666667 1428 1017 c 0
 1454 1004.33333333 1475 986.666666667 1491 964 c 0
 1507 940.666666667 1517.33333333 912.666666667 1522 880 c 0
 1526.66666667 847.333333333 1525 810.666666667 1517 770 c 0
 1399 204 l 0
 1395.66666667 186.666666667 1396 171 1400 157 c 0
 1404 143 1410.33333333 131 1419 121 c 0
 1427.66666667 111 1438 103 1450 97 c 0
 1462 91 1475 88 1489 88 c 0
 1506.33333333 88 1526 92 1548 100 c 0
 1570.66666667 108 1595 116.666666667 1621 126 c 0
 1621 54 l 0
EndSplineSet
EndChar

StartChar: n
Encoding: 81 110 81
Width: 1110
VWidth: 1024
Flags: HW
LayerCount: 2
Fore
SplineSet
1105 42 m 0
 1096.33333333 38.6666666667 1080.66666667 33.3333333333 1058 26 c 0
 1036 18.6666666667 1011.33333333 11.3333333333 984 4 c 0
 956.666666667 -4 928.666666667 -11 900 -17 c 0
 871.333333333 -23 846 -26 824 -26 c 0
 812 -26 795.333333333 -24.6666666667 774 -22 c 0
 752.666666667 -19.3333333333 732 -14 712 -6 c 0
 692 2.66666666667 676 15.3333333333 664 32 c 0
 652 48.6666666667 648.666666667 70.6666666667 654 98 c 0
 782 742 l 0
 786.666666667 770 787 793.333333333 783 812 c 0
 778.333333333 830.666666667 771 845.666666667 761 857 c 0
 751 868.333333333 739.666666667 876 727 880 c 0
 714.333333333 884.666666667 702 887 690 887 c 0
 672.666666667 887 651.666666667 882 627 872 c 0
 602.333333333 862 576 849 548 833 c 0
 520.666666667 816.333333333 493 797 465 775 c 0
 437 753 411.333333333 729.666666667 388 705 c 0
 244 0 l 0
 48 0 l 0
 230 891 l 0
 54 910 l 0
 54 971 l 0
 371 1036 l 0
 455 1036 l 0
 416 841 l 0
 439.333333333 864.333333333 466 887.666666667 496 911 c 0
 526 934.333333333 558 955.333333333 592 974 c 0
 626 992.666666667 661.333333333 1007.66666667 698 1019 c 0
 734.666666667 1030.33333333 770.333333333 1036 805 1036 c 0
 881.666666667 1036 936 1015 968 973 c 0
 1000.66666667 931 1008.66666667 862.666666667 992 768 c 0
 881 176 l 0
 877.666666667 156 879 140.333333333 885 129 c 0
 891.666666667 117.666666667 900.333333333 108.666666667 911 102 c 0
 921.666666667 96 932.666666667 92.3333333333 944 91 c 0
 955.333333333 89 964.333333333 88 971 88 c 0
 990.333333333 88 1011 90.6666666667 1033 96 c 0
 1055.66666667 101.333333333 1079 108 1103 116 c 0
 1105 42 l 0
EndSplineSet
EndChar

StartChar: o
Encoding: 82 111 82
Width: 1060
VWidth: 1024
Flags: HW
LayerCount: 2
Fore
SplineSet
996 629 m 0
 996 572.333333333 989.666666667 516.666666667 977 462 c 0
 964.333333333 408 946.333333333 356.666666667 923 308 c 0
 899.666666667 259.333333333 871.333333333 215 838 175 c 0
 804.666666667 134.333333333 767.666666667 99 727 69 c 0
 685.666666667 39 640.666666667 15.6666666667 592 -1 c 0
 543.333333333 -17.6666666667 492 -26 438 -26 c 0
 380.666666667 -26 329 -16.6666666667 283 2 c 0
 236.333333333 20.6666666667 197 47 165 81 c 0
 133 115.666666667 108.333333333 157.333333333 91 206 c 0
 73.6666666667 254.666666667 65 309.666666667 65 371 c 0
 65 427.666666667 71 483.333333333 83 538 c 0
 95 592.666666667 112.666666667 644.666666667 136 694 c 0
 158.666666667 743.333333333 186.333333333 789 219 831 c 0
 251.666666667 873 288.666666667 909.333333333 330 940 c 0
 371.333333333 970.666666667 416.333333333 994.333333333 465 1011 c 0
 513.666666667 1028.33333333 565.666666667 1036.66666667 621 1036 c 0
 671.666666667 1036 719.333333333 1028.33333333 764 1013 c 0
 809.333333333 997 849.333333333 972.333333333 884 939 c 0
 918.666666667 905.666666667 946 863.333333333 966 812 c 0
 986 760.666666667 996 699.666666667 996 629 c 0
784 638 m 0
 784 688 779.333333333 732 770 770 c 0
 760.666666667 808 747.666666667 840 731 866 c 0
 714.333333333 892 694.666666667 912 672 926 c 0
 649.333333333 939.333333333 624.666666667 946 598 946 c 0
 552 946 509.666666667 929.666666667 471 897 c 0
 431.666666667 863.666666667 397.666666667 820 369 766 c 0
 340.333333333 712.666666667 317.666666667 652.333333333 301 585 c 0
 284.333333333 517.666666667 276 450 276 382 c 0
 276 330 281 284.666666667 291 246 c 0
 300.333333333 207.333333333 313.666666667 174.666666667 331 148 c 0
 348.333333333 122 368 102.333333333 390 89 c 0
 412.666666667 76.3333333333 437.333333333 70 464 70 c 0
 496.666666667 70 527.666666667 78.3333333333 557 95 c 0
 586.333333333 111.666666667 612.333333333 134 635 162 c 0
 658.333333333 190 679.333333333 223 698 261 c 0
 716.666666667 298.333333333 732.333333333 338 745 380 c 0
 757.666666667 422 767.666666667 465.333333333 775 510 c 0
 781 554.666666667 784 597.333333333 784 638 c 0
EndSplineSet
EndChar

StartChar: p
Encoding: 83 112 83
Width: 1036
VWidth: 1024
Flags: HW
LayerCount: 2
Fore
SplineSet
969 648 m 0
 969 590.666666667 962 534.333333333 948 479 c 0
 934.666666667 423.666666667 915 371 889 321 c 0
 863.666666667 271 833 224.666666667 797 182 c 0
 761 140 720.666666667 103.666666667 676 73 c 0
 631.333333333 42.3333333333 583 18.3333333333 531 1 c 0
 479 -16.3333333333 425 -25.3333333333 369 -26 c 0
 337.666666667 -26 309.333333333 -21.3333333333 284 -12 c 0
 258.666666667 -3.33333333333 237.333333333 4.66666666667 220 12 c 0
 154 -325 l 0
 151.333333333 -336.333333333 152.666666667 -345.666666667 158 -353 c 0
 164 -360.333333333 176.333333333 -365 195 -367 c 0
 327 -378 l 0
 327 -457 l 0
 -202 -457 l 0
 -202 -378 l 0
 -92 -367 l 0
 -62.6666666667 -365 -46 -351 -42 -325 c 0
 195 891 l 0
 18 910 l 0
 18 971 l 0
 336 1036 l 0
 418 1036 l 0
 392 906 l 0
 410 917.333333333 430.333333333 930.666666667 453 946 c 0
 475.666666667 961.333333333 500 975.666666667 526 989 c 0
 552 1002.33333333 579.333333333 1013.33333333 608 1022 c 0
 636 1031.33333333 664.666666667 1036 694 1036 c 0
 747.333333333 1036 791.666666667 1024.66666667 827 1002 c 0
 862.333333333 979.333333333 890.333333333 949.333333333 911 912 c 0
 931.666666667 875.333333333 946.333333333 833.666666667 955 787 c 0
 964.333333333 741 969 694.666666667 969 648 c 0
761 640 m 0
 761 670.666666667 757.666666667 702 751 734 c 0
 744.333333333 766 734.333333333 794.666666667 721 820 c 0
 707.666666667 846 691 867.333333333 671 884 c 0
 650.333333333 900.666666667 626 908.666666667 598 908 c 0
 572.666666667 908 547.333333333 902.333333333 522 891 c 0
 496.666666667 879.666666667 473.666666667 867.333333333 453 854 c 0
 432.333333333 840 414.333333333 826.333333333 399 813 c 0
 383.666666667 799.666666667 373.666666667 790.666666667 369 786 c 0
 244 136 l 0
 250 132.666666667 258.666666667 127.333333333 270 120 c 0
 281.333333333 112.666666667 294.333333333 105.666666667 309 99 c 0
 324.333333333 92.3333333333 340.333333333 86.3333333333 357 81 c 0
 374.333333333 75.6666666667 392.333333333 73.3333333333 411 74 c 0
 449 74 484 82.3333333333 516 99 c 0
 548 116.333333333 577 139.333333333 603 168 c 0
 629 197.333333333 652 231 672 269 c 0
 692 307 708.333333333 347.333333333 721 390 c 0
 733.666666667 432 743.666666667 474.333333333 751 517 c 0
 757.666666667 560.333333333 761 601.333333333 761 640 c 0
EndSplineSet
EndChar

StartChar: q
Encoding: 84 113 84
Width: 1093
VWidth: 1024
Flags: HW
LayerCount: 2
Fore
SplineSet
761 -325 m 0
 759 -336.333333333 760.666666667 -345.666666667 766 -353 c 0
 772 -360.333333333 784.333333333 -365 803 -367 c 0
 933 -378 l 0
 933 -457 l 0
 404 -457 l 0
 404 -378 l 0
 516 -367 l 0
 529.333333333 -365.666666667 540.666666667 -361.666666667 550 -355 c 0
 558.666666667 -348.333333333 564.666666667 -338.333333333 568 -325 c 0
 654 112 l 0
 605.333333333 72 556 39 506 13 c 0
 455.333333333 -12.3333333333 405.333333333 -25.3333333333 356 -26 c 0
 314 -26 275.333333333 -18 240 -2 c 0
 204.666666667 14 174.333333333 38.3333333333 149 71 c 0
 123.666666667 103 103.666666667 142.333333333 89 189 c 0
 74.3333333333 236.333333333 67.3333333333 291.333333333 68 354 c 0
 68 408 74.3333333333 462.333333333 87 517 c 0
 99.6666666667 571.666666667 118 624.333333333 142 675 c 0
 166 725.666666667 195.333333333 773 230 817 c 0
 264.666666667 861 304 899 348 931 c 0
 392 963.666666667 440 989.333333333 492 1008 c 0
 544 1026.66666667 598.666666667 1036 656 1036 c 0
 700.666666667 1036 740 1029.66666667 774 1017 c 0
 808 1004.33333333 834.666666667 990.333333333 854 975 c 0
 904 1036 l 0
 1030 1036 l 0
 761 -325 l 0
791 814 m 0
 792.333333333 821.333333333 789 832 781 846 c 0
 773 860 763 874 751 888 c 0
 739 902 726.666666667 914.333333333 714 925 c 0
 701.333333333 935 691.333333333 940 684 940 c 0
 626.666666667 940 573 925.333333333 523 896 c 0
 473 866.666666667 429 826 391 774 c 0
 353.666666667 722 324.333333333 661 303 591 c 0
 281.666666667 521 270.666666667 444.666666667 270 362 c 0
 270 322.666666667 274 287 282 255 c 0
 290 223 301.333333333 195.666666667 316 173 c 0
 330.666666667 150.333333333 348.666666667 133 370 121 c 0
 391.333333333 109 414.666666667 102.666666667 440 102 c 0
 461.333333333 102 482.333333333 106 503 114 c 0
 523.666666667 122 544 132.333333333 564 145 c 0
 583.333333333 157.666666667 602.666666667 172 622 188 c 0
 641.333333333 204 660 220.333333333 678 237 c 0
 791 814 l 0
EndSplineSet
EndChar

StartChar: r
Encoding: 85 114 85
Width: 784
VWidth: 1024
Flags: HW
LayerCount: 2
Fore
SplineSet
858 895 m 0
 858 870.333333333 853.666666667 850.666666667 845 836 c 0
 836.333333333 821.333333333 823.666666667 810.333333333 807 803 c 0
 790.333333333 795.666666667 770.666666667 790.666666667 748 788 c 0
 725.333333333 785.333333333 699.666666667 784 671 784 c 0
 621 885 l 0
 595 874.333333333 567 855.333333333 537 828 c 0
 507 801.333333333 479 770.666666667 453 736 c 0
 426.333333333 701.333333333 403 665.666666667 383 629 c 0
 363 592.333333333 350 558.666666667 344 528 c 0
 234 0 l 0
 40 0 l 0
 220 891 l 0
 44 910 l 0
 44 971 l 0
 360 1036 l 0
 444 1036 l 0
 400 824 l 0
 443.333333333 890 492.333333333 942 547 980 c 0
 601.666666667 1017.33333333 660.666666667 1036 724 1036 c 0
 749.333333333 1036 770.333333333 1031.33333333 787 1022 c 0
 804.333333333 1012.66666667 818.333333333 1001 829 987 c 0
 839.666666667 972.333333333 847 957 851 941 c 0
 855.666666667 925 858 909.666666667 858 895 c 0
EndSplineSet
EndChar

StartChar: s
Encoding: 86 115 86
Width: 776
VWidth: 1024
Flags: HW
LayerCount: 2
Fore
SplineSet
732 904 m 0
 732 879.333333333 726.666666667 859.666666667 716 845 c 0
 705.333333333 830.333333333 692 819 676 811 c 0
 660 803 643.333333333 797.333333333 626 794 c 0
 608.666666667 790.666666667 593.666666667 788.666666667 581 788 c 0
 486 916 l 0
 482 919.333333333 475.666666667 923 467 927 c 0
 458.333333333 931 447.333333333 933 434 933 c 0
 410.666666667 933 391.333333333 928 376 918 c 0
 360 908 347 895.666666667 337 881 c 0
 327 866.333333333 320 850.666666667 316 834 c 0
 312 817.333333333 310 802 310 788 c 0
 310 768.666666667 315.666666667 749.666666667 327 731 c 0
 337.666666667 711.666666667 352 692 370 672 c 0
 388 652.666666667 408 633.666666667 430 615 c 0
 452 596.333333333 474.333333333 578 497 560 c 0
 520.333333333 541.333333333 542.666666667 522.333333333 564 503 c 0
 585.333333333 483.666666667 604.666666667 463.666666667 622 443 c 0
 639.333333333 422.333333333 653 400.333333333 663 377 c 0
 673 353.666666667 678 329.333333333 678 304 c 0
 678 260.666666667 669.333333333 219.333333333 652 180 c 0
 634.666666667 140.666666667 609 105.666666667 575 75 c 0
 541 44.3333333333 499 20 449 2 c 0
 399 -16 341.333333333 -25.3333333333 276 -26 c 0
 225.333333333 -26 181.666666667 -20.3333333333 145 -9 c 0
 108.333333333 2.33333333333 78 17 54 35 c 0
 30 53 12.3333333333 73.6666666667 1 97 c 0
 -10.3333333333 120.333333333 -16 144 -16 168 c 0
 -16 201.333333333 -6 228.333333333 14 249 c 0
 34 269.666666667 65.6666666667 280.333333333 109 281 c 0
 121.666666667 281 133.666666667 279 145 275 c 0
 156.333333333 271.666666667 167 268 177 264 c 0
 186.333333333 259.333333333 194.666666667 254.333333333 202 249 c 0
 209.333333333 243.666666667 214.666666667 239.666666667 218 237 c 0
 178 134 l 0
 193.333333333 112.666666667 212 94.6666666667 234 80 c 0
 256 65.3333333333 285 58 321 58 c 0
 342.333333333 58 362.666666667 62.3333333333 382 71 c 0
 402 79 419.666666667 90.3333333333 435 105 c 0
 450.333333333 120.333333333 462.333333333 138.666666667 471 160 c 0
 479.666666667 181.333333333 484 205.333333333 484 232 c 0
 484 253.333333333 480 273.333333333 472 292 c 0
 463.333333333 310.666666667 451.333333333 329 436 347 c 0
 420.666666667 365 402.333333333 382.666666667 381 400 c 0
 360.333333333 417.333333333 337.333333333 435.666666667 312 455 c 0
 290 472.333333333 269 490.666666667 249 510 c 0
 229 530 211 551 195 573 c 0
 179 595 166.333333333 618.333333333 157 643 c 0
 147.666666667 667.666666667 142.666666667 693 142 719 c 0
 142 770.333333333 153.666666667 815.666666667 177 855 c 0
 200.333333333 894.333333333 230.333333333 927.666666667 267 955 c 0
 303.666666667 981.666666667 344.333333333 1002 389 1016 c 0
 433.666666667 1029.33333333 477.333333333 1036 520 1036 c 0
 559.333333333 1036 592.666666667 1031.33333333 620 1022 c 0
 646.666666667 1012.66666667 668.666666667 1001.66666667 686 989 c 0
 702.666666667 975.666666667 714.333333333 961.333333333 721 946 c 0
 728.333333333 930 732 916 732 904 c 0
EndSplineSet
EndChar

StartChar: t
Encoding: 87 116 87
Width: 628
VWidth: 1024
Flags: HW
LayerCount: 2
Fore
SplineSet
424 879 m 0
 292 220 l 0
 288 201.333333333 288.666666667 184.666666667 294 170 c 0
 299.333333333 155.333333333 308 143.333333333 320 134 c 0
 332 124 346 116.333333333 362 111 c 0
 378 105.666666667 395 102.666666667 413 102 c 0
 433 102 453.333333333 104 474 108 c 0
 495.333333333 112 515.666666667 116.666666667 535 122 c 0
 554.333333333 127.333333333 572.333333333 133 589 139 c 0
 605.666666667 145 619.666666667 150 631 154 c 0
 631 70 l 0
 622.333333333 66 605.333333333 58.6666666667 580 48 c 0
 554.666666667 38 525.666666667 27.3333333333 493 16 c 0
 460.333333333 5.33333333333 425.666666667 -4.33333333333 389 -13 c 0
 353 -21.6666666667 320 -26 290 -26 c 0
 252 -26 220.333333333 -21.3333333333 195 -12 c 0
 169.666666667 -2.66666666667 149.333333333 10 134 26 c 0
 118.666666667 42 108 61 102 83 c 0
 95.3333333333 105 92 129.333333333 92 156 c 0
 92 169.333333333 92.6666666667 183.333333333 94 198 c 0
 95.3333333333 212.666666667 97.3333333333 227.333333333 100 242 c 0
 228 879 l 0
 96 866 l 0
 96 935 l 0
 254 1005 l 0
 356 1214 l 0
 484 1214 l 0
 442 975 l 0
 732 975 l 0
 732 879 l 0
 424 879 l 0
EndSplineSet
EndChar

StartChar: u
Encoding: 88 117 88
Width: 1103
VWidth: 1024
Flags: HW
LayerCount: 2
Fore
SplineSet
1099 50 m 0
 1086.33333333 42.6666666667 1068.33333333 34.6666666667 1045 26 c 0
 1022.33333333 17.3333333333 997.666666667 9 971 1 c 0
 944.333333333 -6.33333333333 917 -12.6666666667 889 -18 c 0
 861.666666667 -23.3333333333 836.666666667 -26 814 -26 c 0
 774.666666667 -26 745.333333333 -19.3333333333 726 -6 c 0
 706.666666667 7.33333333333 693.666666667 22.6666666667 687 40 c 0
 679.666666667 57.3333333333 676.333333333 75 677 93 c 0
 677.666666667 111 678 124 678 132 c 0
 622.666666667 79.3333333333 564.666666667 40 504 14 c 0
 443.333333333 -12 378 -25.3333333333 308 -26 c 0
 259.333333333 -26 219.666666667 -17.3333333333 189 0 c 0
 158.333333333 17.3333333333 135.333333333 39 120 65 c 0
 104 91 94.3333333333 119.333333333 91 150 c 0
 87.6666666667 180.666666667 88.6666666667 209.666666667 94 237 c 0
 230 891 l 0
 54 910 l 0
 54 971 l 0
 371 1036 l 0
 457 1036 l 0
 290 237 l 0
 286 219 286.666666667 202 292 186 c 0
 298 170 306.666666667 156 318 144 c 0
 329.333333333 132 342 122.333333333 356 115 c 0
 370.666666667 107.666666667 384.666666667 104 398 104 c 0
 423.333333333 104 449 107.666666667 475 115 c 0
 500.333333333 122.333333333 525.666666667 132 551 144 c 0
 576.333333333 156 600.666666667 170.333333333 624 187 c 0
 647.333333333 203 668.666666667 220.333333333 688 239 c 0
 847 1011 l 0
 1042 1011 l 0
 874 204 l 0
 869.333333333 182 869.333333333 163.666666667 874 149 c 0
 878.666666667 134.333333333 886.333333333 122.333333333 897 113 c 0
 907 103.666666667 918 96.6666666667 930 92 c 0
 942.666666667 88 955 86 967 86 c 0
 980.333333333 86 998.333333333 88 1021 92 c 0
 1043.66666667 96 1069.66666667 106.666666667 1099 124 c 0
 1099 50 l 0
EndSplineSet
EndChar

StartChar: v
Encoding: 89 118 89
Width: 968
VWidth: 1024
Flags: HW
LayerCount: 2
Fore
SplineSet
979 910 m 0
 979 892 977.333333333 875.333333333 974 860 c 0
 970.666666667 844 966.666666667 829.333333333 962 816 c 0
 957.333333333 802.666666667 952.666666667 790.333333333 948 779 c 0
 940 763 940 763 935 753 c 0
 888.333333333 667 838.333333333 584.666666667 785 506 c 0
 731.666666667 427.333333333 679.666666667 354.666666667 629 288 c 0
 577.666666667 221.333333333 529 161.333333333 483 108 c 0
 437 54.6666666667 398.333333333 10 367 -26 c 0
 246 -26 l 0
 260.666666667 4.66666666667 271.666666667 33.3333333333 279 60 c 0
 286.333333333 86 289.333333333 110.666666667 288 134 c 0
 288 136 287.333333333 146.333333333 286 165 c 0
 284.666666667 183.666666667 282.666666667 208 280 238 c 0
 277.333333333 268 274.333333333 302 271 340 c 0
 267.666666667 378 264 417.666666667 260 459 c 0
 256 499.666666667 251.666666667 540.666666667 247 582 c 0
 242.333333333 623.333333333 237.666666667 662 233 698 c 0
 227.666666667 734 222.666666667 765.666666667 218 793 c 0
 212.666666667 820.333333333 207.333333333 841.333333333 202 856 c 0
 195.333333333 870.666666667 188.333333333 881.333333333 181 888 c 0
 174.333333333 894.666666667 165.333333333 898 154 898 c 0
 4 906 l 0
 4 967 l 0
 228 1036 l 0
 285.333333333 1034.66666667 327 1022 353 998 c 0
 379 974 394.666666667 937 400 887 c 0
 466 242 l 0
 501.333333333 288.666666667 534 332.666666667 564 374 c 0
 594 416 621.666666667 457 647 497 c 0
 671.666666667 536.333333333 694.333333333 575.666666667 715 615 c 0
 735.666666667 654.333333333 754 694.666666667 770 736 c 0
 730 990 l 0
 743.333333333 1003.33333333 760.333333333 1014.33333333 781 1023 c 0
 801.666666667 1031.66666667 825 1036 851 1036 c 0
 896.333333333 1036 929 1024.66666667 949 1002 c 0
 969 978.666666667 979 948 979 910 c 0
EndSplineSet
EndChar

StartChar: w
Encoding: 90 119 90
Width: 1472
VWidth: 1024
Flags: HW
LayerCount: 2
Fore
SplineSet
1481 912 m 0
 1481 882.666666667 1473.33333333 847.666666667 1458 807 c 0
 1442.66666667 766.333333333 1423 722 1399 674 c 0
 1374.33333333 626.666666667 1346 577.333333333 1314 526 c 0
 1282 474.666666667 1249 424.333333333 1215 375 c 0
 1181 325 1147.66666667 277.333333333 1115 232 c 0
 1081.66666667 186.666666667 1051.33333333 146 1024 110 c 0
 996.666666667 74 973.666666667 43.6666666667 955 19 c 0
 936.333333333 -5 924.333333333 -20 919 -26 c 0
 788 -26 l 0
 742 690 l 0
 711.333333333 624 679.333333333 558 646 492 c 0
 612.666666667 426 579.333333333 362.333333333 546 301 c 0
 512.666666667 239.666666667 479.666666667 181 447 125 c 0
 414.333333333 69.6666666667 383.333333333 19.3333333333 354 -26 c 0
 200 -26 l 0
 220 24 l 0
 162 889 l 0
 4 906 l 0
 4 965 l 0
 258 1036 l 0
 352 1030 l 0
 398 246 l 0
 425.333333333 296 454 351 484 411 c 0
 514 471 544.333333333 532.666666667 575 596 c 0
 605.666666667 660 636.333333333 725 667 791 c 0
 697 857 725.666666667 921.333333333 753 984 c 0
 910 1002 l 0
 963 204 l 0
 1027.66666667 287.333333333 1084.66666667 373 1134 461 c 0
 1183.33333333 549 1229 641.333333333 1271 738 c 0
 1229 984 l 0
 1231.66666667 986.666666667 1236.33333333 991 1243 997 c 0
 1249.66666667 1003 1258.33333333 1008.66666667 1269 1014 c 0
 1279.66666667 1020 1292.33333333 1025.33333333 1307 1030 c 0
 1321.66666667 1034.66666667 1337.66666667 1036.66666667 1355 1036 c 0
 1380.33333333 1036 1401 1031 1417 1021 c 0
 1433 1011 1445.66666667 999.666666667 1455 987 c 0
 1464.33333333 973.666666667 1471 960 1475 946 c 0
 1479 931.333333333 1481 920 1481 912 c 0
EndSplineSet
EndChar

StartChar: x
Encoding: 91 120 91
Width: 1105
VWidth: 1024
Flags: HW
LayerCount: 2
Fore
SplineSet
1130 912 m 0
 1130 884.666666667 1121 858.666666667 1103 834 c 0
 1085 809.333333333 1055.66666667 790 1015 776 c 0
 923 858 l 0
 904.333333333 850.666666667 883.666666667 837.333333333 861 818 c 0
 838.333333333 798.666666667 815.333333333 773.666666667 792 743 c 0
 768.666666667 712.333333333 745.333333333 677 722 637 c 0
 698.666666667 597 676.666666667 552.666666667 656 504 c 0
 660 491.333333333 665 475 671 455 c 0
 677 435.666666667 683.666666667 414.666666667 691 392 c 0
 698.333333333 369.333333333 706.333333333 345.666666667 715 321 c 0
 723.666666667 297 732.666666667 274 742 252 c 0
 752 229.333333333 763 208 775 188 c 0
 786.333333333 168 798 150.666666667 810 136 c 0
 822 120.666666667 834.333333333 109 847 101 c 0
 859.666666667 92.3333333333 872.333333333 88 885 88 c 0
 901 88 917.666666667 89.6666666667 935 93 c 0
 953 96.3333333333 976.333333333 104.666666667 1005 118 c 0
 1005 42 l 0
 965 20.6666666667 925 4 885 -8 c 0
 845.666666667 -20 803.666666667 -26 759 -26 c 0
 735.666666667 -26 714 -19.6666666667 694 -7 c 0
 674 5.66666666667 655.666666667 22.3333333333 639 43 c 0
 622.333333333 63.6666666667 607 87.3333333333 593 114 c 0
 579 140.666666667 566.666666667 168.666666667 556 198 c 0
 545.333333333 226.666666667 535.666666667 255.333333333 527 284 c 0
 518.333333333 312.666666667 511.333333333 338.666666667 506 362 c 0
 486 325.333333333 463.333333333 284.666666667 438 240 c 0
 412.666666667 195.333333333 383.333333333 153.333333333 350 114 c 0
 317.333333333 74.6666666667 281 41.3333333333 241 14 c 0
 201 -12.6666666667 157 -26 109 -26 c 0
 65.6666666667 -26 30.3333333333 -15.6666666667 3 5 c 0
 -24.3333333333 25 -38 53.3333333333 -38 90 c 0
 -38 124 -27 151.333333333 -5 172 c 0
 17 192.666666667 49.3333333333 206.666666667 92 214 c 0
 180 130 l 0
 201.333333333 142.666666667 223.666666667 160.333333333 247 183 c 0
 270.333333333 205.666666667 294.333333333 233 319 265 c 0
 343 297 366.666666667 333.333333333 390 374 c 0
 412.666666667 414.666666667 433.666666667 460 453 510 c 0
 449.666666667 523.333333333 444 542 436 566 c 0
 428.666666667 590 419.666666667 615.666666667 409 643 c 0
 398.333333333 669.666666667 387.333333333 697 376 725 c 0
 364.666666667 753 353.333333333 778.333333333 342 801 c 0
 331.333333333 823.666666667 321.333333333 842.666666667 312 858 c 0
 303.333333333 872.666666667 296.666666667 880.333333333 292 881 c 0
 109 904 l 0
 109 961 l 0
 115 963 124.666666667 966 138 970 c 0
 151.333333333 974.666666667 167 980 185 986 c 0
 202.333333333 992 220.333333333 997.666666667 239 1003 c 0
 257.666666667 1009 275.333333333 1014.33333333 292 1019 c 0
 308.666666667 1024.33333333 323 1028.66666667 335 1032 c 0
 347 1035.33333333 355.333333333 1036.66666667 360 1036 c 0
 384.666666667 1036 408 1027.33333333 430 1010 c 0
 452 992 472.666666667 966 492 932 c 0
 511.333333333 898 529.666666667 856.333333333 547 807 c 0
 564.333333333 757.666666667 581.333333333 701.333333333 598 638 c 0
 618.666666667 677.333333333 643 720.333333333 671 767 c 0
 699 813.666666667 730.333333333 857 765 897 c 0
 799 937 836 970 876 996 c 0
 916 1022.66666667 958 1036 1002 1036 c 0
 1040 1036 1071 1024.66666667 1095 1002 c 0
 1118.33333333 978.666666667 1130 948.666666667 1130 912 c 0
EndSplineSet
EndChar

StartChar: y
Encoding: 92 121 92
Width: 1042
VWidth: 1024
Flags: HW
LayerCount: 2
Fore
SplineSet
994 866 m 0
 986 858 974 843 958 821 c 0
 942 799 926 774.666666667 910 748 c 0
 893.333333333 720.666666667 877 692.333333333 861 663 c 0
 845 633.666666667 832 608.333333333 822 587 c 0
 806.666666667 553.666666667 789.333333333 513 770 465 c 0
 750 417 727.333333333 365.666666667 702 311 c 0
 677.333333333 256.333333333 650.333333333 199.333333333 621 140 c 0
 591.666666667 80.6666666667 560 22.6666666667 526 -34 c 0
 493.333333333 -89.3333333333 458.333333333 -143.666666667 421 -197 c 0
 383.666666667 -250.333333333 344.333333333 -298 303 -340 c 0
 261.666666667 -382 218 -416 172 -442 c 0
 126 -467.333333333 78 -480 28 -480 c 0
 -10 -480 -42 -475.333333333 -68 -466 c 0
 -93.3333333333 -456.666666667 -113.333333333 -445 -128 -431 c 0
 -143.333333333 -417 -153.666666667 -402 -159 -386 c 0
 -165 -370 -168 -355.333333333 -168 -342 c 0
 -168 -326 -164.333333333 -310.666666667 -157 -296 c 0
 -149.666666667 -281.333333333 -139.666666667 -268.666666667 -127 -258 c 0
 -114.333333333 -246.666666667 -99 -237.333333333 -81 -230 c 0
 -63 -223.333333333 -44 -219.333333333 -24 -218 c 0
 98 -340 l 0
 120 -338 141.666666667 -329.333333333 163 -314 c 0
 184.333333333 -298.666666667 206.666666667 -275.666666667 230 -245 c 0
 253.333333333 -214.333333333 279 -175.666666667 307 -129 c 0
 335 -82.3333333333 366.666666667 -26.6666666667 402 38 c 0
 400.666666667 46 397.333333333 64.3333333333 392 93 c 0
 386.666666667 121 380 155.333333333 372 196 c 0
 364 236.666666667 355.333333333 281.666666667 346 331 c 0
 336 380.333333333 325.333333333 430 314 480 c 0
 303.333333333 529.333333333 292 578.666666667 280 628 c 0
 268 677.333333333 256.333333333 722 245 762 c 0
 233.666666667 801.333333333 223.666666667 833.666666667 215 859 c 0
 206.333333333 884.333333333 199.666666667 897.333333333 195 898 c 0
 4 912 l 0
 4 965 l 0
 33 974 l 0
 46.3333333333 978.666666667 61.3333333333 983.666666667 78 989 c 0
 94.6666666667 994.333333333 112 999.666666667 130 1005 c 0
 148.666666667 1011 166 1016 182 1020 c 0
 198.666666667 1024.66666667 213.666666667 1028.66666667 227 1032 c 0
 240.333333333 1035.33333333 250 1036.66666667 256 1036 c 0
 278.666666667 1036 298.333333333 1030.66666667 315 1020 c 0
 332.333333333 1009.33333333 347.666666667 994.333333333 361 975 c 0
 374.333333333 955 386.666666667 931.333333333 398 904 c 0
 409.333333333 876.666666667 420 845.333333333 430 810 c 0
 448 748 466.333333333 671 485 579 c 0
 504.333333333 487 524.333333333 384.666666667 545 272 c 0
 864 1036 l 0
 925 1036 l 0
 1099 979 l 0
 1099 931 l 0
 994 866 l 0
EndSplineSet
EndChar

StartChar: z
Encoding: 93 122 93
Width: 931
VWidth: 1024
Flags: HW
LayerCount: 2
Fore
SplineSet
232 148 m 0
 409 195 l 0
 423.666666667 189.666666667 440 183 458 175 c 0
 476.666666667 167 495.666666667 159.333333333 515 152 c 0
 534.333333333 144.666666667 553 138 571 132 c 0
 589.666666667 126.666666667 606.333333333 124 621 124 c 0
 636.333333333 124 649.333333333 126.333333333 660 131 c 0
 671.333333333 135.666666667 681.333333333 141 690 147 c 0
 698.666666667 153.666666667 706.333333333 161 713 169 c 0
 719.666666667 177 726 185 732 193 c 0
 616 321 l 0
 622.666666667 333 631 344 641 354 c 0
 650.333333333 364 660.333333333 372.333333333 671 379 c 0
 681.666666667 385.666666667 692.333333333 391 703 395 c 0
 713.666666667 399 724 400.666666667 734 400 c 0
 753.333333333 400 770.333333333 396.333333333 785 389 c 0
 799.666666667 381 812 370.666666667 822 358 c 0
 832 346 840 332 846 316 c 0
 851.333333333 300 854 284.666666667 854 270 c 0
 854 228 844.666666667 189 826 153 c 0
 807.333333333 117 783 85.6666666667 753 59 c 0
 723 33 690.333333333 12.3333333333 655 -3 c 0
 619 -18.3333333333 584 -26 550 -26 c 0
 518 -26 487.333333333 -21.3333333333 458 -12 c 0
 428.666666667 -2.66666666667 400.666666667 7.66666666667 374 19 c 0
 347.333333333 30.3333333333 321 40.6666666667 295 50 c 0
 269 59.3333333333 243.333333333 64.3333333333 218 65 c 0
 212.666666667 65 204.666666667 63.6666666667 194 61 c 0
 183.333333333 59 173.333333333 53.3333333333 164 44 c 0
 112 -54 l 0
 -34 24 l 0
 678 856 l 0
 493 816 l 0
 464.333333333 832 434.333333333 846 403 858 c 0
 372.333333333 870 342.666666667 876.333333333 314 877 c 0
 305.333333333 877 295.666666667 875.333333333 285 872 c 0
 274.333333333 869.333333333 263.666666667 865.666666667 253 861 c 0
 243 855.666666667 233.333333333 849.333333333 224 842 c 0
 214.666666667 834.666666667 207.333333333 826 202 816 c 0
 312 682 l 0
 309.333333333 678 304.666666667 672 298 664 c 0
 291.333333333 656 283 648.333333333 273 641 c 0
 263 633 251.666666667 626.333333333 239 621 c 0
 226.333333333 615.666666667 212.666666667 612.666666667 198 612 c 0
 178 612 160.666666667 616 146 624 c 0
 131.333333333 632 119.333333333 642 110 654 c 0
 100.666666667 666 93.6666666667 679.666666667 89 695 c 0
 84.3333333333 709.666666667 82 723.333333333 82 736 c 0
 82 768 88.6666666667 801.666666667 102 837 c 0
 115.333333333 872.333333333 134.666666667 904.666666667 160 934 c 0
 185.333333333 964 216.333333333 988.666666667 253 1008 c 0
 289.666666667 1027.33333333 331.333333333 1036.66666667 378 1036 c 0
 409.333333333 1036 439.333333333 1030.66666667 468 1020 c 0
 497.333333333 1009.33333333 525 997.333333333 551 984 c 0
 577 970.666666667 601.666666667 958.333333333 625 947 c 0
 648.333333333 936.333333333 670.666666667 931 692 931 c 0
 696 931 702 931.666666667 710 933 c 0
 717.333333333 935 727.333333333 939.333333333 740 946 c 0
 786 1063 l 0
 944 981 l 0
 232 148 l 0
EndSplineSet
EndChar

StartChar: braceleft
Encoding: 94 123 94
Width: 1017
VWidth: 1024
Flags: HW
LayerCount: 2
Fore
SplineSet
1057 1386 m 0
 1000.33333333 1386 953.333333333 1379.33333333 916 1366 c 0
 879.333333333 1352.66666667 849.333333333 1335 826 1313 c 0
 802 1290.33333333 783.666666667 1263.66666667 771 1233 c 0
 757.666666667 1202.33333333 746.666666667 1169.66666667 738 1135 c 0
 730 1100.33333333 723 1064 717 1026 c 0
 711 988.666666667 703.666666667 951.666666667 695 915 c 0
 686.333333333 879 674.666666667 844.666666667 660 812 c 0
 645.333333333 778.666666667 624.666666667 748.666666667 598 722 c 0
 574.666666667 700 545.333333333 679.333333333 510 660 c 0
 474.666666667 640.666666667 430.666666667 624 378 610 c 0
 409.333333333 599.333333333 436.666666667 588 460 576 c 0
 483.333333333 564 503.333333333 550.333333333 520 535 c 0
 542 514.333333333 557.666666667 490.666666667 567 464 c 0
 576.333333333 437.333333333 581.333333333 409 582 379 c 0
 582.666666667 349 580.333333333 317.666666667 575 285 c 0
 569.666666667 252.333333333 563.666666667 219.666666667 557 187 c 0
 550.333333333 154.333333333 544 122.333333333 538 91 c 0
 532 59.6666666667 528 30.3333333333 526 3 c 0
 524.666666667 -24.3333333333 527 -49.3333333333 533 -72 c 0
 539 -94.6666666667 550.666666667 -113.333333333 568 -128 c 0
 578.666666667 -137.333333333 591.333333333 -145 606 -151 c 0
 620.666666667 -156.333333333 636 -160.333333333 652 -163 c 0
 668 -166.333333333 684.666666667 -168.333333333 702 -169 c 0
 719.333333333 -169.666666667 736.333333333 -170 753 -170 c 0
 736 -258 l 0
 698 -258 661.333333333 -257 626 -255 c 0
 590.666666667 -253 557.666666667 -249.333333333 527 -244 c 0
 496.333333333 -238 468.666666667 -229.333333333 444 -218 c 0
 419.333333333 -206.666666667 398 -191.333333333 380 -172 c 0
 360 -150.666666667 346.333333333 -126 339 -98 c 0
 331.666666667 -70 328 -40.3333333333 328 -9 c 0
 328.666666667 22.3333333333 331.666666667 55 337 89 c 0
 343 123 349.666666667 156.666666667 357 190 c 0
 364.333333333 224 371 257.333333333 377 290 c 0
 383.666666667 322.666666667 387.666666667 353.333333333 389 382 c 0
 390.333333333 410.666666667 387.333333333 437 380 461 c 0
 373.333333333 485 361.333333333 504.666666667 344 520 c 0
 332 531.333333333 317.333333333 540 300 546 c 0
 282.666666667 551.333333333 264.333333333 555 245 557 c 0
 225.666666667 559 205.333333333 560 184 560 c 0
 122 560 l 0
 140 656 l 0
 168.666666667 656 196 656.333333333 222 657 c 0
 247.333333333 657.666666667 271 660.333333333 293 665 c 0
 315 669 335.333333333 675.333333333 354 684 c 0
 372.666666667 692.666666667 389.333333333 704.333333333 404 719 c 0
 430 743.666666667 450 774 464 810 c 0
 478 846.666666667 489.333333333 886 498 928 c 0
 506.666666667 969.333333333 514.666666667 1012.33333333 522 1057 c 0
 529.333333333 1101.66666667 539.333333333 1145.33333333 552 1188 c 0
 564.666666667 1230 582 1269.33333333 604 1306 c 0
 626 1342.66666667 656 1373.66666667 694 1399 c 0
 737.333333333 1428.33333333 789.666666667 1448.33333333 851 1459 c 0
 913 1469.66666667 986.666666667 1475 1072 1475 c 0
 1057 1386 l 0
EndSplineSet
EndChar

StartChar: bar
Encoding: 95 124 95
Width: 741
VWidth: 1024
Flags: HW
LayerCount: 2
Fore
SplineSet
307 -541 m 0
 307 1669 l 0
 434 1669 l 0
 434 -541 l 0
 307 -541 l 0
EndSplineSet
EndChar

StartChar: braceright
Encoding: 96 125 96
Width: 1017
VWidth: 1024
Flags: HW
LayerCount: 2
Fore
SplineSet
900 560 m 0
 871.333333333 560 844.333333333 559.666666667 819 559 c 0
 793.666666667 557.666666667 769.666666667 555 747 551 c 0
 725 547 704.666666667 540.666666667 686 532 c 0
 667.333333333 523.333333333 650.666666667 511.666666667 636 497 c 0
 610 472.333333333 590.333333333 442 577 406 c 0
 563.666666667 370 552.333333333 331 543 289 c 0
 534.333333333 247.666666667 526.333333333 204.333333333 519 159 c 0
 511.666666667 113.666666667 501.666666667 70 489 28 c 0
 476.333333333 -14 459 -53.3333333333 437 -90 c 0
 415 -126.666666667 385.333333333 -157.333333333 348 -182 c 0
 303.333333333 -212 250.333333333 -232.333333333 189 -243 c 0
 127 -253 53.3333333333 -258 -32 -258 c 0
 -16 -170 l 0
 40.6666666667 -170 87.3333333333 -163.333333333 124 -150 c 0
 161.333333333 -136.666666667 192 -118.666666667 216 -96 c 0
 240 -73.3333333333 258.333333333 -46.6666666667 271 -16 c 0
 283.666666667 14.6666666667 294.333333333 47.3333333333 303 82 c 0
 311 117.333333333 317.666666667 153.666666667 323 191 c 0
 328.333333333 228.333333333 335.333333333 265.333333333 344 302 c 0
 352.666666667 338 364.666666667 372.666666667 380 406 c 0
 395.333333333 439.333333333 416 469 442 495 c 0
 465.333333333 518.333333333 494.666666667 539.333333333 530 558 c 0
 565.333333333 576.666666667 609.666666667 593.333333333 663 608 c 0
 600.333333333 626.666666667 553.333333333 651.333333333 522 682 c 0
 492.666666667 709.333333333 474.333333333 742 467 780 c 0
 459.666666667 818 458 858 462 900 c 0
 466 942 473.333333333 985.333333333 484 1030 c 0
 494.666666667 1074.66666667 503 1117 509 1157 c 0
 515 1197 516.666666667 1233.33333333 514 1266 c 0
 510.666666667 1298.66666667 497.333333333 1325 474 1345 c 0
 462.666666667 1354.33333333 449.666666667 1361.66666667 435 1367 c 0
 420.333333333 1372.33333333 405 1376.66666667 389 1380 c 0
 373 1383.33333333 356 1385 338 1385 c 0
 320.666666667 1385.66666667 304 1386 288 1386 c 0
 306 1475 l 0
 343.333333333 1475 379.666666667 1474 415 1472 c 0
 449.666666667 1470 482.333333333 1466 513 1460 c 0
 543.666666667 1454 571.333333333 1445.33333333 596 1434 c 0
 621.333333333 1422.66666667 642.666666667 1407.66666667 660 1389 c 0
 686 1360.33333333 702 1326.33333333 708 1287 c 0
 713.333333333 1247.66666667 713.333333333 1205.66666667 708 1161 c 0
 702.666666667 1116.33333333 694.333333333 1071.33333333 683 1026 c 0
 672.333333333 980 664 936 658 894 c 0
 652 852 651 814 655 780 c 0
 659 745.333333333 672.666666667 717.333333333 696 696 c 0
 708 684.666666667 722.666666667 676.333333333 740 671 c 0
 757.333333333 665.666666667 775.666666667 661.666666667 795 659 c 0
 814.333333333 657 834.666666667 656 856 656 c 0
 919 656 l 0
 900 560 l 0
EndSplineSet
EndChar

StartChar: asciitilde
Encoding: 97 126 97
Width: 1746
VWidth: 1024
Flags: HW
LayerCount: 2
Fore
SplineSet
791 321 m 0
 771 307 752 295.333333333 734 286 c 0
 716.666666667 276.666666667 700 269 684 263 c 0
 668 257 652.666666667 253 638 251 c 0
 623.333333333 248.333333333 608.333333333 247 593 247 c 0
 568.333333333 247 543.666666667 250.666666667 519 258 c 0
 494.333333333 265.333333333 469.666666667 273.666666667 445 283 c 0
 420.333333333 291.666666667 395 299.666666667 369 307 c 0
 343.666666667 314.333333333 317.333333333 318 290 318 c 0
 263.333333333 318 233.666666667 310.666666667 201 296 c 0
 168.333333333 281.333333333 134.333333333 261.333333333 99 236 c 0
 99 304 l 0
 136.333333333 330.666666667 171.666666667 349.666666667 205 361 c 0
 238.333333333 372.333333333 269.333333333 378 298 378 c 0
 323.333333333 378 348.666666667 374.333333333 374 367 c 0
 399.333333333 359.666666667 424.666666667 351.666666667 450 343 c 0
 474.666666667 334.333333333 499.333333333 326.333333333 524 319 c 0
 548 311.666666667 571.333333333 308 594 308 c 0
 606.666666667 308 620.333333333 309.333333333 635 312 c 0
 649 314.666666667 664 319.333333333 680 326 c 0
 696 332 713 340.333333333 731 351 c 0
 749 361 769 373.666666667 791 389 c 0
 791 321 l 0
EndSplineSet
EndChar

StartChar: inherent
Encoding: 103 -1 98
Width: 333
Flags: HW
LayerCount: 2
Fore
SplineSet
655 1509 m 1
 638.333333333 1423 590.666666667 1351.33333333 512 1294 c 1
 435.333333333 1234 350.666666667 1204 258 1204 c 1
 301 1399 l 1
 332.333333333 1399 359 1410 381 1432 c 1
 409.666666667 1454 426.666666667 1479 432 1507 c 2
 461 1647 l 1
 684 1647 l 1
 655 1509 l 1
EndSplineSet
EndChar

StartChar: makewide
Encoding: 104 -1 99
Width: 675
Flags: HW
LayerCount: 2
Fore
SplineSet
930 268 m 2
 913.333333333 195.333333333 878.333333333 132.5 825 79.5 c 128
 771.666666667 26.5 713.666666667 0 651 0 c 2
 360 0 l 2
 297.333333333 0 239.333333333 19.1666666667 186 57.5 c 128
 132.666666667 95.8333333333 89 147 55 211 c 1
 123 530 l 1
 149 427.333333333 190.666666667 346.333333333 248 287 c 1
 308 227 371.333333333 197 438 197 c 2
 621 197 l 2
 641.666666667 197 660 207.666666667 676 229 c 0
 685.333333333 239.666666667 692.5 250.166666667 697.5 260.5 c 128
 702.5 270.833333333 707.666666667 285.666666667 713 305 c 1
 864 1022 l 2
 866.666666667 1041.33333333 868 1055.66666667 868 1065 c 0
 868 1096.33333333 857.833333333 1126.66666667 837.5 1156 c 128
 817.166666667 1185.33333333 782.333333333 1200 733 1200 c 2
 539 1200 l 1
 582 1395 l 1
 1028 1395 l 1
 1038 1200 l 1
 1073.33333333 1162 1091.33333333 1117.66666667 1092 1067 c 0
 1092 1051.66666667 1091.33333333 1040.66666667 1090 1034 c 2
 930 268 l 2
EndSplineSet
EndChar

StartChar: shortrr
Encoding: 105 -1 100
Width: 1601
Flags: HW
LayerCount: 2
Fore
SplineSet
1876 1204 m 1
 942 1204 l 2
 917.333333333 1204 893.166666667 1196.16666667 869.5 1180.5 c 128
 845.833333333 1164.83333333 831 1146 825 1124 c 2
 793 956 l 2
 787.666666667 924.666666667 795 899.666666667 815 881 c 1
 835.666666667 859 861.666666667 848 893 848 c 2
 1239 848 l 1
 1200 653 l 1
 854 653 l 2
 818.666666667 653 786.666666667 642.333333333 758 621 c 1
 728 601.666666667 710.333333333 576.333333333 705 545 c 2
 659 336 l 1
 657.666666667 320.666666667 657 309.666666667 657 303 c 0
 657 291 661.833333333 274 671.5 252 c 128
 681.166666667 230 695.666666667 216.333333333 715 211 c 1
 883 211 l 1
 844 16 l 1
 592 16 l 2
 534.666666667 16 487.666666667 38 451 82 c 0
 426.333333333 112 414 147.333333333 414 188 c 0
 414 197.333333333 415.333333333 213.333333333 418 236 c 1
 485 559 l 1
 491.666666667 607 516.333333333 649.333333333 559 686 c 128
 601.666666667 722.666666667 650.333333333 746 705 756 c 1
 654.333333333 768 617.666666667 789 595 819 c 128
 572.333333333 849 561 879 561 909 c 0
 561 918.333333333 562.333333333 930.666666667 565 946 c 2
 616 1198 l 1
 631.333333333 1260.66666667 665.666666667 1309 719 1343 c 1
 772.333333333 1382.33333333 833 1402.33333333 901 1403 c 2
 1917 1403 l 1
 1876 1204 l 1
EndSplineSet
EndChar

StartChar: anusvara
Encoding: 107 3202 101
Width: 1533
Flags: HW
LayerCount: 2
Fore
SplineSet
1599 305 m 2
 1582.33333333 225.666666667 1542.33333333 155 1479 93 c 128
 1415.66666667 31 1350.66666667 0 1284 0 c 2
 668 0 l 2
 588.666666667 0 524.333333333 33.3333333333 475 100 c 1
 443.666666667 148 428 200 428 256 c 0
 428 280.666666667 430.666666667 306 436 332 c 2
 598 1106 l 2
 614.666666667 1185.33333333 658.833333333 1253 730.5 1309 c 128
 802.166666667 1365 881 1393 967 1393 c 2
 1528 1393 l 2
 1610 1393 1675.33333333 1363 1724 1303 c 1
 1755.33333333 1255 1771.33333333 1204.33333333 1772 1151 c 0
 1772 1129 1769 1105 1763 1079 c 2
 1599 305 l 2
1386 352 m 1
 1538 1063 l 2
 1539.33333333 1072.33333333 1540 1084.66666667 1540 1100 c 0
 1540 1124.66666667 1534.66666667 1145 1524 1161 c 1
 1503.33333333 1187 1477.33333333 1200 1446 1200 c 2
 999 1200 l 2
 959.666666667 1200 921 1187.66666667 883 1163 c 1
 845 1134.33333333 823 1105.66666667 817 1077 c 2
 664 350 l 2
 662.666666667 343.333333333 662 334 662 322 c 0
 662 296 672 270 692 244 c 1
 722 214 757 199 797 199 c 2
 1231 199 l 2
 1265 199 1297.66666667 214.666666667 1329 246 c 128
 1360.33333333 277.333333333 1379.33333333 312.666666667 1386 352 c 1
EndSplineSet
EndChar

StartChar: u0C83
Encoding: 108 3203 102
Width: 991
Flags: HW
LayerCount: 2
Fore
SplineSet
1249 950 m 2
 1238.33333333 896.666666667 1210.16666667 851 1164.5 813 c 128
 1118.83333333 775 1068.66666667 756 1014 756 c 2
 705 756 l 2
 645 756 597.666666667 776.333333333 563 817 c 0
 538.333333333 847 526 882.666666667 526 924 c 0
 526 940.666666667 526.666666667 953.666666667 528 963 c 2
 573 1186 l 1
 588.333333333 1246 621.333333333 1295.16666667 672 1333.5 c 128
 722.666666667 1371.83333333 779.333333333 1391 842 1391 c 2
 1122 1391 l 2
 1160 1391 1194.33333333 1380.66666667 1225 1360 c 1
 1253.66666667 1344.66666667 1275.33333333 1317.33333333 1290 1278 c 0
 1296.66666667 1262.66666667 1300 1243 1300 1219 c 0
 1300 1209.66666667 1298.66666667 1193.66666667 1296 1171 c 1
 1249 950 l 2
1096 221 m 2
 1084 161 1056 109.166666667 1012 65.5 c 128
 968 21.8333333333 921.333333333 0 872 0 c 2
 547 0 l 2
 487 0 440 20.3333333333 406 61 c 0
 380 92.3333333333 367 128 367 168 c 0
 367 174.666666667 368.333333333 187.666666667 371 207 c 2
 416 430 l 2
 428 488.666666667 460.666666667 537.833333333 514 577.5 c 128
 567.333333333 617.166666667 623.333333333 637 682 637 c 2
 963 637 l 2
 1025.66666667 637 1072.66666667 614.333333333 1104 569 c 1
 1126 535 1137 497.666666667 1137 457 c 0
 1137 446.333333333 1135.66666667 430 1133 408 c 1
 1096 221 l 2
1038 1006 m 2
 1063 1130 l 1
 1068.33333333 1149.33333333 1067 1165.5 1059 1178.5 c 128
 1051 1191.5 1036 1198 1014 1198 c 2
 885 1198 l 2
 865.666666667 1198 845.833333333 1191.83333333 825.5 1179.5 c 128
 805.166666667 1167.16666667 792 1150.66666667 786 1130 c 2
 764 1020 l 1
 761.333333333 999.333333333 766.166666667 982.5 778.5 969.5 c 128
 790.833333333 956.5 806.333333333 950 825 950 c 2
 965 950 l 2
 977 950 991.5 955.5 1008.5 966.5 c 128
 1025.5 977.5 1035.33333333 990.666666667 1038 1006 c 2
881 250 m 2
 905 379 l 1
 910.333333333 399.666666667 910.333333333 415.333333333 905 426 c 256
 899.666666667 436.666666667 891.666666667 442 881 442 c 2
 715 442 l 2
 694.333333333 442 676.166666667 437 660.5 427 c 128
 644.833333333 417 635.666666667 404.333333333 633 389 c 2
 608 266 l 1
 606.666666667 246.666666667 608.666666667 229.666666667 614 215 c 1
 623.333333333 199.666666667 634.333333333 192.333333333 647 193 c 2
 815 193 l 2
 830.333333333 193 844.5 198 857.5 208 c 128
 870.5 218 878.333333333 232 881 250 c 2
EndSplineSet
EndChar

StartChar: avowel
Encoding: 109 3205 103
Width: 1990
Flags: HW
LayerCount: 2
Fore
SplineSet
2116 281 m 2
 2099.33333333 204.333333333 2058.16666667 138.333333333 1992.5 83 c 128
 1926.83333333 27.6666666667 1855.33333333 0 1778 0 c 2
 698 0 l 2
 612 0 544 28.6666666667 494 86 c 1
 458.666666667 124 440.666666667 169.666666667 440 223 c 0
 440 247.666666667 441.333333333 266.333333333 444 279 c 2
 621 1118 l 2
 637.666666667 1196 678.666666667 1261.66666667 744 1315 c 128
 809.333333333 1368.33333333 880 1395 956 1395 c 2
 1317 1395 l 1
 1223 948 l 1
 1004 948 l 1
 1055 1200 l 1
 969 1200 l 2
 939 1200 911 1184.33333333 885 1153 c 1
 855 1123 835 1083.33333333 825 1034 c 2
 680 352 l 2
 678.666666667 345.333333333 678 336 678 324 c 0
 678 295.333333333 687.666666667 268.666666667 707 244 c 1
 741 214 777 199 815 199 c 2
 1720 199 l 2
 1748.66666667 199 1777.33333333 207.833333333 1806 225.5 c 128
 1834.66666667 243.166666667 1859.33333333 267 1880 297 c 1
 1890.66666667 316.333333333 1898.83333333 332 1904.5 344 c 128
 1910.16666667 356 1914.33333333 372.333333333 1917 393 c 1
 2064 1092 l 2
 2069.33333333 1120.66666667 2064.66666667 1147 2050 1171 c 1
 2029.33333333 1191.66666667 2004.66666667 1202 1976 1202 c 2
 1890 1202 l 1
 1860 1051 l 2
 1857.33333333 1031.66666667 1855.66666667 1018.66666667 1855 1012 c 0
 1855 954.666666667 1888.66666667 897.333333333 1956 840 c 1
 1917 645 l 1
 1077 645 l 1
 1116 840 l 1
 1704 840 l 1
 1656 900 1632 954.666666667 1632 1004 c 0
 1632 1016 1632.66666667 1024.66666667 1634 1030 c 2
 1710 1393 l 1
 2044 1393 l 2
 2102.66666667 1393 2151 1380.66666667 2189 1356 c 1
 2233 1334 2264.66666667 1303.33333333 2284 1264 c 1
 2294.66666667 1238 2300 1212 2300 1186 c 0
 2300 1164 2298.66666667 1147.66666667 2296 1137 c 2
 2116 281 l 2
EndSplineSet
EndChar

StartChar: aavowel
Encoding: 110 3206 104
Width: 2131
Flags: HW
LayerCount: 2
Fore
SplineSet
2413 1001 m 1
 2401 925.666666667 2363.5 860.5 2300.5 805.5 c 128
 2237.5 750.5 2172.33333333 723 2105 723 c 2
 2019 723 l 1
 2059.66666667 663 2077.66666667 617.333333333 2073 586 c 2
 1997 213 l 2
 1985 154.333333333 1950.16666667 104.166666667 1892.5 62.5 c 128
 1834.83333333 20.8333333333 1771.33333333 0 1702 0 c 2
 651 4 l 2
 578.333333333 4 522.333333333 31.3333333333 483 86 c 0
 454.333333333 124 440 167.666666667 440 217 c 0
 440 237.666666667 443 259 449 281 c 2
 625 1120 l 2
 641.666666667 1198 688.5 1263.66666667 765.5 1317 c 128
 842.5 1370.33333333 926.666666667 1397 1018 1397 c 2
 1298 1397 l 1
 1204 950 l 1
 981 950 l 1
 1032 1202 l 1
 987 1202 l 2
 955.666666667 1202 925 1189.33333333 895 1164 c 128
 865 1138.66666667 847.333333333 1111 842 1081 c 2
 688 354 l 2
 686.666666667 344.666666667 686 332.333333333 686 317 c 0
 686 288.333333333 692.333333333 264 705 244 c 1
 729.666666667 214 759 199 793 199 c 2
 1632 199 l 2
 1670 199 1706.5 214.666666667 1741.5 246 c 128
 1776.5 277.333333333 1797.33333333 313.333333333 1804 354 c 1
 1855 588 l 1
 1861.66666667 626 1846.66666667 672.333333333 1810 727 c 1
 1241 727 l 1
 1280 922 l 1
 1784 922 l 1
 1759.33333333 972.666666667 1747.66666667 1007.33333333 1749 1026 c 1
 1786 1194 l 2
 1796.66666667 1248.66666667 1830 1294.33333333 1886 1331 c 128
 1942 1367.66666667 2005 1386 2075 1386 c 2
 2255 1386 l 2
 2323 1386 2374 1363.66666667 2408 1319 c 1
 2436.66666667 1285 2451 1247.33333333 2451 1206 c 0
 2451 1195.33333333 2449.66666667 1179 2447 1157 c 1
 2413 1001 l 1
2189 1018 m 1
 2212 1114 l 2
 2213.33333333 1123.33333333 2214 1135.66666667 2214 1151 c 0
 2214 1181 2201 1196 2175 1196 c 2
 2093 1196 l 2
 2071 1196 2049.16666667 1187.5 2027.5 1170.5 c 128
 2005.83333333 1153.5 1994.33333333 1134.66666667 1993 1114 c 1
 1978 1047 l 2
 1975.33333333 1031.66666667 1974 1020.66666667 1974 1014 c 0
 1974 997.333333333 1976.5 983.5 1981.5 972.5 c 128
 1986.5 961.5 1995 946 2007 926 c 1
 2101 926 l 2
 2121.66666667 926 2140.5 934.5 2157.5 951.5 c 128
 2174.5 968.5 2185 990.666666667 2189 1018 c 1
EndSplineSet
EndChar

StartChar: ivowel
Encoding: 111 3207 105
Width: 1607
Flags: HW
LayerCount: 2
Fore
SplineSet
1663 0 m 1
 1524 0 l 2
 1456 0 1402 22 1362 66 c 0
 1332 100 1317 136.666666667 1317 176 c 0
 1317 182.666666667 1318.33333333 197 1321 219 c 1
 1350 358 l 1
 1126 358 l 2
 1063.33333333 358 1015 376 981 412 c 0
 955 438 942 469.333333333 942 506 c 0
 942 518 942.666666667 527.666666667 944 535 c 2
 975 686 l 2
 981.666666667 721.333333333 1007.66666667 754 1053 784 c 1
 1102.33333333 810 1153.33333333 823 1206 823 c 2
 1446 823 l 2
 1481.33333333 823 1513.33333333 812.333333333 1542 791 c 1
 1566.66666667 766.333333333 1581.66666667 736.666666667 1587 702 c 1
 1669 1094 l 2
 1674.33333333 1124 1667 1146.33333333 1647 1161 c 1
 1630.33333333 1177.66666667 1602.33333333 1186 1563 1186 c 2
 1411 1186 l 2
 1373 1186 1337.83333333 1174 1305.5 1150 c 128
 1273.16666667 1126 1254.33333333 1101 1249 1075 c 2
 1221 936 l 1
 1001 936 l 1
 1026 1065 l 2
 1032.66666667 1095 1024.83333333 1122.66666667 1002.5 1148 c 128
 980.166666667 1173.33333333 949.666666667 1186 911 1186 c 2
 725 1186 l 2
 691 1186 659.666666667 1174.66666667 631 1152 c 128
 602.333333333 1129.33333333 585.333333333 1103.66666667 580 1075 c 2
 551 936 l 2
 549.666666667 930.666666667 549 924.833333333 549 918.5 c 128
 549 909 549 909 549 907 c 0
 549 887.666666667 554.333333333 872.666666667 565 862 c 1
 575.666666667 840 593.333333333 829 618 829 c 2
 664 829 l 1
 625 635 l 1
 524 635 l 2
 454.666666667 635 399.333333333 661.666666667 358 715 c 0
 329.333333333 753 315 796.666666667 315 846 c 0
 315 868 316.333333333 885 319 897 c 2
 362 1106 l 2
 372.666666667 1156.66666667 396.166666667 1203.5 432.5 1246.5 c 128
 468.833333333 1289.5 511.333333333 1322.83333333 560 1346.5 c 128
 608.666666667 1370.16666667 659.666666667 1382 713 1382 c 2
 979 1382 l 2
 1032.33333333 1382 1077.33333333 1369.5 1114 1344.5 c 128
 1150.66666667 1319.5 1169 1286.33333333 1169 1245 c 1
 1195 1289 1228.66666667 1321.66666667 1270 1343 c 1
 1308 1369 1349.66666667 1382 1395 1382 c 2
 1647 1382 l 2
 1735.66666667 1382 1801.66666667 1354.66666667 1845 1300 c 1
 1879 1262 1896 1216.33333333 1896 1163 c 0
 1896 1141 1893.33333333 1119.33333333 1888 1098 c 2
 1815 745 l 2
 1789 625 1708.33333333 509.666666667 1573 399 c 1
 1544 260 l 1
 1538.66666667 243.333333333 1541.33333333 227 1552 211 c 1
 1567.33333333 195.666666667 1581 188 1593 188 c 2
 1694 188 l 1
 1663 0 l 1
1378 551 m 1
 1386 580 l 1
 1392.66666667 618 1378.33333333 637 1343 637 c 2
 1214 637 l 2
 1203.33333333 637 1194 633.833333333 1186 627.5 c 128
 1178 621.166666667 1172.33333333 612 1169 600 c 0
 1167.66666667 589.333333333 1169.83333333 579.166666667 1175.5 569.5 c 128
 1181.16666667 559.833333333 1188.66666667 555 1198 555 c 2
 1378 551 l 1
EndSplineSet
EndChar

StartChar: iivowel
Encoding: 112 3208 106
Width: 2496
Flags: HW
LayerCount: 2
Fore
SplineSet
2734 827 m 2
 2723.33333333 772.333333333 2692.66666667 718 2642 664 c 1
 2587.33333333 613.333333333 2525.33333333 575.666666667 2456 551 c 1
 2539.33333333 424.333333333 2577.33333333 341.666666667 2570 303 c 2
 2542 164 l 1
 2531.33333333 120 2510.83333333 83 2480.5 53 c 128
 2450.16666667 23 2417.33333333 8 2382 8 c 2
 1925 8 l 1
 1964 203 l 1
 2255 203 l 2
 2271.66666667 203 2290 210.333333333 2310 225 c 1
 2329.33333333 244.333333333 2339.66666667 261.333333333 2341 276 c 1
 2343 287 l 1
 2348.33333333 322.333333333 2336 355 2306 385 c 1
 2204 537 l 1
 1755 537 l 1
 1698 274 l 2
 1681.33333333 201.333333333 1642.66666667 138.5 1582 85.5 c 128
 1521.33333333 32.5 1452.66666667 6 1376 6 c 2
 674 6 l 2
 614 6 564.666666667 30 526 78 c 0
 500 109.333333333 487 149 487 197 c 0
 487 206.333333333 488.666666667 222 492 244 c 1
 553 535 l 1
 334 535 l 1
 373 729 l 1
 592 729 l 1
 631 911 l 1
 650.333333333 1009 726.666666667 1106 860 1202 c 1
 666 1202 l 1
 709 1397 l 1
 1714 1397 l 2
 1740 1397 1761.5 1405.5 1778.5 1422.5 c 128
 1795.5 1439.5 1806.66666667 1459 1812 1481 c 2
 1835 1591 l 1
 2060 1591 l 1
 2038 1481 l 1
 2026 1413 1989.66666667 1351.33333333 1929 1296 c 1
 1874.33333333 1241.33333333 1807.66666667 1206.66666667 1729 1192 c 1
 1774.33333333 1156.66666667 1807 1119 1827 1079 c 0
 1836.33333333 1062.33333333 1842.66666667 1044.5 1846 1025.5 c 128
 1849.33333333 1006.5 1849.66666667 989 1847 973 c 2
 1796 733 l 1
 2087 733 l 1
 2061 763 2048 798.666666667 2048 840 c 0
 2048 856.666666667 2050.66666667 875.666666667 2056 897 c 2
 2087 1051 l 1
 2102.33333333 1115 2135 1169.33333333 2185 1214 c 1
 2242.33333333 1259.33333333 2300.33333333 1282 2359 1282 c 2
 2593 1282 l 2
 2661 1282 2712 1257.33333333 2746 1208 c 1
 2772 1176.66666667 2785 1136.33333333 2785 1087 c 0
 2785 1075 2783.66666667 1058 2781 1036 c 1
 2734 827 l 2
2519 860 m 2
 2550 1012 l 2
 2555.33333333 1034 2553.16666667 1052.83333333 2543.5 1068.5 c 128
 2533.83333333 1084.16666667 2518.33333333 1092 2497 1092 c 2
 2386 1092 l 2
 2366.66666667 1092 2349.16666667 1084.5 2333.5 1069.5 c 128
 2317.83333333 1054.5 2309.33333333 1039.33333333 2308 1024 c 1
 2275 858 l 2
 2269.66666667 833.333333333 2272.66666667 811 2284 791 c 1
 2357 737 l 1
 2395 731.666666667 2430.16666667 742.666666667 2462.5 770 c 128
 2494.83333333 797.333333333 2513.66666667 827.333333333 2519 860 c 2
1571 737 m 1
 1624 989 l 1
 1626.66666667 1011 1628 1027.33333333 1628 1038 c 0
 1628 1112 1596 1169.33333333 1532 1210 c 1
 1098 1210 l 1
 962.666666667 1126.66666667 884 1032.66666667 862 928 c 2
 819 733 l 1
 1571 737 l 1
1495 358 m 1
 1532 539 l 1
 778 539 l 1
 733 330 l 2
 727.666666667 298.666666667 733.5 269.666666667 750.5 243 c 128
 767.5 216.333333333 790.333333333 203 819 203 c 2
 1319 203 l 2
 1354.33333333 203 1389.16666667 217.5 1423.5 246.5 c 128
 1457.83333333 275.5 1481.66666667 312.666666667 1495 358 c 1
EndSplineSet
EndChar

StartChar: uvowel
Encoding: 113 3209 107
Width: 2996
Flags: HW
LayerCount: 2
Fore
SplineSet
3125 297 m 2
 3114.33333333 243.666666667 3092 194.666666667 3058 150 c 1
 3028 104.666666667 2987.66666667 68.6666666667 2937 42 c 128
 2886.33333333 15.3333333333 2836.33333333 2 2787 2 c 2
 2406 2 l 2
 2348.66666667 2 2299.16666667 14.6666666667 2257.5 40 c 128
 2215.83333333 65.3333333333 2185 102 2165 150 c 1
 2154.33333333 181.333333333 2148.66666667 214 2148 248 c 0
 2148 256 2149.33333333 271 2152 293 c 1
 2324 1104 l 2
 2329.33333333 1132.66666667 2324.33333333 1155.5 2309 1172.5 c 128
 2293.66666667 1189.5 2271.66666667 1198 2243 1198 c 2
 1880 1198 l 2
 1859.33333333 1198 1836 1190 1810 1174 c 1
 1788 1153.33333333 1774.33333333 1130.66666667 1769 1106 c 2
 1595 279 l 2
 1583 225.666666667 1560.33333333 178.5 1527 137.5 c 128
 1493.66666667 96.5 1450.33333333 63.3333333333 1397 38 c 128
 1343.66666667 12.6666666667 1288.33333333 0 1231 0 c 2
 727 0 l 2
 635.666666667 0 564.666666667 31.3333333333 514 94 c 1
 476 138 457 189.333333333 457 248 c 0
 457 270 459.666666667 293.666666667 465 319 c 2
 627 1087 l 2
 637.666666667 1141.66666667 658.666666667 1193 690 1241 c 1
 706.666666667 1263 726.166666667 1283.5 748.5 1302.5 c 128
 770.833333333 1321.5 793 1337.33333333 815 1350 c 1
 868.333333333 1376 917.666666667 1389 963 1389 c 2
 1380 1389 l 1
 1294 989 l 2
 1277.33333333 912.333333333 1240.5 848.5 1183.5 797.5 c 128
 1126.5 746.5 1064.33333333 721 997 721 c 2
 846 721 l 1
 885 915 l 1
 979 915 l 2
 985.666666667 915 994.166666667 916.833333333 1004.5 920.5 c 128
 1014.83333333 924.166666667 1024.66666667 928.666666667 1034 934 c 1
 1050.66666667 946 1061.66666667 963 1067 985 c 2
 1110 1190 l 1
 971 1190 l 2
 939.666666667 1190 913 1179 891 1157 c 1
 862.333333333 1135 845.333333333 1109.66666667 840 1081 c 2
 678 313 l 2
 676.666666667 307.666666667 676 299 676 287 c 0
 676 262.333333333 682 242.333333333 694 227 c 0
 716 201 741.333333333 188 770 188 c 2
 1245 188 l 2
 1275 188 1301 198.333333333 1323 219 c 128
 1345 239.666666667 1360.66666667 265.666666667 1370 297 c 1
 1538 1100 l 2
 1554.66666667 1182 1594.33333333 1249.66666667 1657 1303 c 1
 1719.66666667 1360.33333333 1788 1389 1862 1389 c 2
 2308 1389 l 2
 2365.33333333 1389 2413.83333333 1376.33333333 2453.5 1351 c 128
 2493.16666667 1325.66666667 2520.33333333 1293 2535 1253 c 1
 2540.33333333 1233.66666667 2543.83333333 1219.33333333 2545.5 1210 c 128
 2547.16666667 1200.66666667 2548 1185.66666667 2548 1165 c 0
 2548 1154.33333333 2546.66666667 1138 2544 1116 c 1
 2376 319 l 2
 2374.66666667 312.333333333 2374 303 2374 291 c 0
 2374 271.666666667 2378.66666667 253.333333333 2388 236 c 1
 2410 210 2433.33333333 197 2458 197 c 2
 2775 197 l 2
 2805 197 2831 207.166666667 2853 227.5 c 128
 2875 247.833333333 2890.66666667 273.666666667 2900 305 c 1
 3066 1090 l 2
 3071.33333333 1114.66666667 3065.66666667 1134.33333333 3049 1149 c 1
 3038.33333333 1164.33333333 3017.33333333 1171.66666667 2986 1171 c 2
 2947 1171 l 1
 2994 1395 l 1
 3117 1395 l 2
 3186.33333333 1395 3237 1370.33333333 3269 1321 c 1
 3293.66666667 1289.66666667 3305.66666667 1251.33333333 3305 1206 c 0
 3305 1180 3303.66666667 1161 3301 1149 c 2
 3125 297 l 2
EndSplineSet
EndChar

StartChar: uuvowel
Encoding: 114 3210 108
Width: 3588
Flags: HW
LayerCount: 2
Fore
SplineSet
3709 281 m 2
 3692.33333333 201.666666667 3654.66666667 137.333333333 3596 88 c 1
 3533.33333333 30.6666666667 3468.66666667 2 3402 2 c 2
 3287 2 l 2
 3220.33333333 2 3167 26.6666666667 3127 76 c 0
 3101 107.333333333 3088 145.333333333 3088 190 c 0
 3088 216 3089.33333333 235.333333333 3092 248 c 2
 3131 442 l 1
 3355 442 l 1
 3316 248 l 2
 3313.33333333 237.333333333 3315.33333333 224.333333333 3322 209 c 1
 3332.66666667 198.333333333 3343.66666667 193 3355 193 c 2
 3422 193 l 2
 3434 193 3444.83333333 199.333333333 3454.5 212 c 128
 3464.16666667 224.666666667 3472.66666667 242 3480 264 c 1
 3647 1057 l 2
 3649.66666667 1076.33333333 3651.33333333 1090.66666667 3652 1100 c 0
 3652 1120.66666667 3646.33333333 1139 3635 1155 c 0
 3618.33333333 1181 3595.33333333 1194 3566 1194 c 2
 3289 1194 l 2
 3249.66666667 1194 3214.16666667 1180.33333333 3182.5 1153 c 128
 3150.83333333 1125.66666667 3130.33333333 1093 3121 1055 c 1
 2963 315 l 2
 2952.33333333 257.666666667 2929.33333333 204 2894 154 c 0
 2878.66666667 133.333333333 2859.83333333 112.666666667 2837.5 92 c 128
 2815.16666667 71.3333333333 2793 55 2771 43 c 0
 2721.66666667 13 2671.66666667 -2 2621 -2 c 2
 2216 -2 l 2
 2139.33333333 -2 2084 28 2050 88 c 1
 2024 128.666666667 2011 173.666666667 2011 223 c 0
 2011 247.666666667 2013.66666667 273 2019 299 c 2
 2185 1083 l 2
 2190.33333333 1113 2184.5 1139 2167.5 1161 c 128
 2150.5 1183 2127 1194 2097 1194 c 2
 1817 1194 l 2
 1787 1194 1758.33333333 1180.66666667 1731 1154 c 128
 1703.66666667 1127.33333333 1687 1099.66666667 1681 1071 c 2
 1524 326 l 2
 1503.33333333 233.333333333 1454.83333333 154.5 1378.5 89.5 c 128
 1302.16666667 24.5 1219.33333333 -8 1130 -8 c 2
 756 -8 l 2
 654.666666667 -8 575.333333333 23.3333333333 518 86 c 0
 477.333333333 130 457 183.333333333 457 246 c 0
 457 268 459.666666667 289.666666667 465 311 c 2
 631 1096 l 2
 647.666666667 1178 692.333333333 1246.5 765 1301.5 c 128
 837.666666667 1356.5 918 1384 1006 1384 c 2
 1386 1384 l 1
 1311 1022 l 2
 1294.33333333 945.333333333 1254 880.333333333 1190 827 c 1
 1130 772.333333333 1061.66666667 745 985 745 c 2
 891 745 l 1
 934 940 l 1
 999 940 l 2
 1014.33333333 940 1032.33333333 946 1053 958 c 1
 1073.66666667 974.666666667 1084.33333333 991.333333333 1085 1008 c 1
 1122 1188 l 1
 993 1188 l 2
 959 1188 927.666666667 1176.66666667 899 1154 c 128
 870.333333333 1131.33333333 853.333333333 1105.66666667 848 1077 c 2
 688 322 l 2
 681.333333333 286.666666667 689 253.666666667 711 223 c 1
 737 197 769 184 807 184 c 2
 1159 184 l 2
 1190.33333333 184 1219 197 1245 223 c 0
 1257 233.666666667 1267.83333333 248 1277.5 266 c 128
 1287.16666667 284 1293.33333333 302.666666667 1296 322 c 2
 1456 1077 l 2
 1466.66666667 1134.33333333 1491.83333333 1187 1531.5 1235 c 128
 1571.16666667 1283 1618.66666667 1319.5 1674 1344.5 c 128
 1729.33333333 1369.5 1783.66666667 1382 1837 1382 c 2
 2146 1382 l 2
 2204.66666667 1382 2255.5 1369.5 2298.5 1344.5 c 128
 2341.5 1319.5 2372.66666667 1282.33333333 2392 1233 c 0
 2404 1204.33333333 2410 1171 2410 1133 c 0
 2410 1123.66666667 2408.66666667 1105.66666667 2406 1079 c 1
 2241 295 l 2
 2238.33333333 279.666666667 2236.66666667 268.666666667 2236 262 c 0
 2236 245.333333333 2241.66666667 231.666666667 2253 221 c 1
 2269.66666667 199 2292.66666667 188 2322 188 c 2
 2585 188 l 2
 2620.33333333 188 2653 201.666666667 2683 229 c 128
 2713 256.333333333 2732.66666667 289.333333333 2742 328 c 1
 2896 1055 l 2
 2901.33333333 1085 2910.16666667 1113.33333333 2922.5 1140 c 128
 2934.83333333 1166.66666667 2951.33333333 1194.33333333 2972 1223 c 1
 3011.33333333 1273.66666667 3058.66666667 1313.5 3114 1342.5 c 128
 3169.33333333 1371.5 3225.66666667 1386 3283 1386 c 2
 3607 1386 l 2
 3667 1386 3719.33333333 1371.66666667 3764 1343 c 1
 3808 1311.66666667 3838 1271.66666667 3854 1223 c 1
 3866 1194.33333333 3872.33333333 1162 3873 1126 c 0
 3873 1105.33333333 3870.33333333 1082.33333333 3865 1057 c 2
 3709 281 l 2
EndSplineSet
EndChar

StartChar: rvocalicvowel.part
Encoding: 116 -1 110
Width: 2048
Flags: HW
LayerCount: 2
Fore
SplineSet
2167 297 m 2
 2150.33333333 217.666666667 2117.33333333 148.666666667 2068 90 c 1
 2010.66666667 31.3333333333 1955 2 1901 2 c 2
 1483 2 l 2
 1425.66666667 2 1374.83333333 15.6666666667 1330.5 43 c 128
 1286.16666667 70.3333333333 1255.66666667 108.666666667 1239 158 c 1
 1203.66666667 107.333333333 1166.83333333 68.6666666667 1128.5 42 c 128
 1090.16666667 15.3333333333 1055.33333333 2 1024 2 c 2
 549 2 l 2
 486.333333333 2 437.666666667 21.6666666667 403 61 c 0
 377 92.3333333333 364.333333333 128 365 168 c 0
 365 177.333333333 366.333333333 191.666666667 369 211 c 2
 449 586 l 1
 786 586 l 2
 854 586 907.333333333 566 946 526 c 0
 977.333333333 494.666666667 993 460 993 422 c 0
 993 415.333333333 991.666666667 402.333333333 989 383 c 2
 971 283 l 1
 748 283 l 1
 762 354 l 2
 767.333333333 380 753 393 719 393 c 2
 633 393 l 1
 610 283 l 1
 608.666666667 261 611.333333333 241.666666667 618 225 c 1
 633.333333333 208.333333333 652 200.333333333 674 201 c 2
 977 201 l 2
 1016.33333333 201 1051 211.166666667 1081 231.5 c 128
 1111 251.833333333 1131 277.666666667 1141 309 c 1
 1313 1122 l 2
 1318.33333333 1148 1311.16666667 1168.16666667 1291.5 1182.5 c 128
 1271.83333333 1196.83333333 1244 1204 1208 1204 c 2
 913 1204 l 2
 902.333333333 1204 890.833333333 1202.66666667 878.5 1200 c 128
 866.166666667 1197.33333333 849.833333333 1191.16666667 829.5 1181.5 c 128
 809.166666667 1171.83333333 796.333333333 1157 791 1137 c 2
 760 983 l 1
 846 983 l 2
 866.666666667 983 886.5 990.5 905.5 1005.5 c 128
 924.5 1020.5 936.666666667 1040.33333333 942 1065 c 2
 952 1122 l 1
 1176 1122 l 1
 1161 1055 l 2
 1144.33333333 982.333333333 1108.5 919.333333333 1053.5 866 c 128
 998.5 812.666666667 938 786 872 786 c 2
 492 786 l 1
 573 1178 l 1
 588.333333333 1238 624 1289.83333333 680 1333.5 c 128
 736 1377.16666667 800 1399 872 1399 c 2
 1321 1399 l 2
 1397.66666667 1399 1457.66666667 1373.66666667 1501 1323 c 0
 1531 1287.66666667 1546 1245.33333333 1546 1196 c 0
 1546 1171.33333333 1544.66666667 1153 1542 1141 c 2
 1380 371 l 1
 1392 323 1414.83333333 283 1448.5 251 c 128
 1482.16666667 219 1516.66666667 203 1552 203 c 2
 1815 203 l 2
 1846.33333333 203 1875 216 1901 242 c 0
 1913 252.666666667 1923.83333333 266.833333333 1933.5 284.5 c 128
 1943.16666667 302.166666667 1949.33333333 320.666666667 1952 340 c 2
 2099 1038 l 1
 2101.66666667 1060 2103 1075.66666667 2103 1085 c 0
 2103 1111 2095.66666667 1134.33333333 2081 1155 c 0
 2059 1186.33333333 2027.66666667 1202 1987 1202 c 2
 1690 1202 l 1
 1733 1397 l 1
 2056 1397 l 2
 2087.33333333 1397 2118.66666667 1410 2150 1436 c 1
 2176 1462 2194 1494.66666667 2204 1534 c 1
 2226 1645 l 1
 2449 1645 l 1
 2421 1505 l 2
 2410.33333333 1455.66666667 2389 1412 2357 1374 c 1
 2328.33333333 1334.66666667 2288.66666667 1304.66666667 2238 1284 c 1
 2278.66666667 1259.33333333 2304.66666667 1231 2316 1199 c 128
 2327.33333333 1167 2333 1147.16666667 2333 1139.5 c 128
 2333 1128 2333 1128 2333 1114 c 0
 2333 1103.33333333 2331.66666667 1087 2329 1065 c 1
 2167 297 l 2
EndSplineSet
EndChar

StartChar: lvocalicvowel.part
Encoding: 118 -1 112
Width: 1607
Flags: HW
LayerCount: 2
Fore
SplineSet
1491 297 m 1
 1485.66666667 267 1493 245.666666667 1513 233 c 0
 1522.33333333 227.666666667 1532.66666667 225 1544 225 c 0
 1575.33333333 225 1601.33333333 237.333333333 1622 262 c 1
 1882 545 l 1
 2028 430 l 1
 1718 111 l 1
 1678.66666667 60.3333333333 1633.66666667 29.3333333333 1583 18 c 0
 1551.66666667 11.3333333333 1510.66666667 15.8333333333 1460 31.5 c 128
 1409.33333333 47.1666666667 1368.33333333 73 1337 109 c 1
 1316.33333333 135 1302.66666667 152.666666667 1296 162 c 0
 1275.33333333 192 1265.33333333 224 1266 258 c 0
 1266 264.666666667 1267.33333333 276.5 1270 293.5 c 128
 1272.66666667 310.5 1324.33333333 381.333333333 1425 506 c 0
 1456.33333333 545.333333333 1506.33333333 606 1575 688 c 1
 1610.33333333 754.666666667 1637.66666667 844 1657 956 c 0
 1662.33333333 991.333333333 1667.66666667 1040.66666667 1673 1104 c 1
 1678.33333333 1134 1671 1156.33333333 1651 1171 c 1
 1634.33333333 1187.66666667 1606.33333333 1196 1567 1196 c 2
 1415 1196 l 2
 1377 1196 1342 1184 1310 1160 c 128
 1278 1136 1259 1111 1253 1085 c 2
 1225 946 l 1
 1006 946 l 1
 1030 1075 l 2
 1036.66666667 1105 1028.83333333 1132.66666667 1006.5 1158 c 128
 984.166666667 1183.33333333 953.666666667 1196 915 1196 c 2
 729 1196 l 2
 695 1196 663.666666667 1184.66666667 635 1162 c 128
 606.333333333 1139.33333333 589.333333333 1113.66666667 584 1085 c 2
 555 946 l 2
 553.666666667 940.666666667 553 935 553 929 c 128
 553 920 553 920 553 918 c 0
 553 898.666666667 558.333333333 883.333333333 569 872 c 1
 579.666666667 850 597.666666667 839.333333333 623 840 c 2
 668 840 l 1
 629 645 l 1
 528 645 l 2
 458.666666667 645 403.333333333 671.666666667 362 725 c 0
 333.333333333 763 319 806.666666667 319 856 c 0
 319 878 320.666666667 895 324 907 c 2
 367 1116 l 2
 377.666666667 1166.66666667 401.166666667 1213.5 437.5 1256.5 c 128
 473.833333333 1299.5 516.166666667 1333 564.5 1357 c 128
 612.833333333 1381 663.666666667 1393 717 1393 c 2
 983 1393 l 2
 1036.33333333 1393 1081.5 1380.33333333 1118.5 1355 c 128
 1155.5 1329.66666667 1174 1296.33333333 1174 1255 c 1
 1200 1299 1233.33333333 1332 1274 1354 c 1
 1312 1380 1353.66666667 1393 1399 1393 c 2
 1651 1393 l 2
 1739.66666667 1393 1805.66666667 1365.66666667 1849 1311 c 1
 1883 1273 1900.33333333 1227.33333333 1901 1174 c 0
 1901 1152 1898 1130 1892 1108 c 2
 1819 756 l 2
 1809.66666667 712 1790.33333333 669.666666667 1761 629 c 1
 1758.33333333 622.333333333 1697 550.666666667 1577 414 c 0
 1557.66666667 393.333333333 1543.33333333 378.333333333 1534 369 c 0
 1505.33333333 337.666666667 1491 313.666666667 1491 297 c 1
EndSplineSet
EndChar

StartChar: evowel
Encoding: 119 3214 113
Width: 1943
Flags: HW
LayerCount: 2
Fore
SplineSet
2066 297 m 2
 2049.33333333 217.666666667 2010.83333333 148.666666667 1950.5 90 c 128
 1890.16666667 31.3333333333 1825 2 1755 2 c 2
 1331 2 l 2
 1281.66666667 2 1241.33333333 15 1210 41 c 0
 1194.66666667 53 1184.33333333 66.8333333333 1179 82.5 c 128
 1173.66666667 98.1666666667 1171 116.333333333 1171 137 c 1
 1150.33333333 96.3333333333 1121 63.3333333333 1083 38 c 128
 1045 12.6666666667 1006.33333333 0 967 0 c 2
 643 0 l 2
 559.666666667 0 493.333333333 27.3333333333 444 82 c 0
 408.666666667 120 391 166.333333333 391 221 c 0
 391 231.666666667 392.333333333 250 395 276 c 1
 512 836 l 1
 846 836 l 2
 884 836 917.666666667 821.333333333 947 792 c 128
 976.333333333 762.666666667 996.666666667 723.333333333 1008 674 c 1
 1020 636 1026 594.333333333 1026 549 c 0
 1026 528.333333333 1025.33333333 513.333333333 1024 504 c 1
 807 446 l 1
 807 485.333333333 805.666666667 512.666666667 803 528 c 128
 800.333333333 543.333333333 793.333333333 563.333333333 782 588 c 1
 762.666666667 623.333333333 733.333333333 641 694 641 c 1
 629 332 l 1
 623.666666667 294 630.333333333 261 649 233 c 1
 671 207 699.666666667 194.333333333 735 195 c 2
 946 195 l 2
 981.333333333 195 1012 207.666666667 1038 233 c 0
 1054.66666667 248.333333333 1067 263.5 1075 278.5 c 128
 1083 293.5 1090 311.333333333 1096 332 c 2
 1124 471 l 1
 1350 471 l 1
 1325 348 l 2
 1323.66666667 341.333333333 1323 329.666666667 1323 313 c 0
 1323 288.333333333 1331.33333333 265.333333333 1348 244 c 0
 1374 212.666666667 1406 197 1444 197 c 2
 1677 197 l 2
 1716.33333333 197 1752.83333333 212 1786.5 242 c 128
 1820.16666667 272 1841.66666667 308.666666667 1851 352 c 2
 1995 1022 l 2
 1997.66666667 1041.33333333 1999 1055.66666667 1999 1065 c 0
 1999 1096.33333333 1988.66666667 1124.33333333 1968 1149 c 1
 1942 1183 1904.33333333 1200 1855 1200 c 2
 1669 1200 l 1
 1712 1395 l 1
 1927 1395 l 2
 1995 1395 2053.66666667 1380 2103 1350 c 128
 2152.33333333 1320 2188 1278.33333333 2210 1225 c 0
 2222 1193.66666667 2228 1157.33333333 2228 1116 c 0
 2228 1098 2225.33333333 1078.33333333 2220 1057 c 2
 2066 297 l 2
EndSplineSet
EndChar

StartChar: eevowel
Encoding: 120 3215 114
Width: 1937
Flags: HW
LayerCount: 2
Fore
SplineSet
2066 330 m 2
 2055.33333333 275.333333333 2028.33333333 219.333333333 1985 162 c 1
 1965.66666667 140 1943.33333333 118 1918 96 c 128
 1892.66666667 74 1865 55.6666666667 1835 41 c 1
 1768.33333333 12.3333333333 1706.33333333 -2 1649 -2 c 2
 1331 2 l 2
 1285.66666667 2 1249 16.3333333333 1221 45 c 1
 1209 60.3333333333 1198.16666667 77.8333333333 1188.5 97.5 c 128
 1178.83333333 117.166666667 1174 137.333333333 1174 158 c 1
 1101.33333333 52.6666666667 1014.33333333 0 913 0 c 2
 666 0 l 2
 572 0 500.333333333 30 451 90 c 1
 411.666666667 135.333333333 391.666666667 186.666666667 391 244 c 0
 391 256 392.333333333 275 395 301 c 1
 506 834 l 1
 844 834 l 2
 879.333333333 834 910.666666667 820.333333333 938 793 c 128
 965.333333333 765.666666667 986.333333333 725.333333333 1001 672 c 0
 1007.66666667 651.333333333 1011.83333333 627.333333333 1013.5 600 c 128
 1015.16666667 572.666666667 1016 540 1016 502 c 1
 793 444 l 1
 793 482 791.5 510 788.5 528 c 128
 785.5 546 778.666666667 564.666666667 768 584 c 0
 748.666666667 622 721.333333333 641 686 641 c 1
 621 332 l 1
 615.666666667 294 622.333333333 261 641 233 c 1
 663 207 691.666666667 194.333333333 727 195 c 2
 936 195 l 2
 974 195 1006 207.666666667 1032 233 c 0
 1048.66666667 248.333333333 1061 263.5 1069 278.5 c 128
 1077 293.5 1084 311.333333333 1090 332 c 2
 1118 471 l 1
 1343 471 l 1
 1319 348 l 2
 1317.66666667 341.333333333 1317 330.333333333 1317 315 c 0
 1317 290.333333333 1324.33333333 265.333333333 1339 240 c 1
 1365 210 1396 195 1432 195 c 2
 1671 195 l 2
 1709 195 1745.5 210.666666667 1780.5 242 c 128
 1815.5 273.333333333 1836.33333333 309.333333333 1843 350 c 1
 1987 1020 l 2
 1989.66666667 1039.33333333 1991 1053.66666667 1991 1063 c 0
 1991 1094.33333333 1980.66666667 1122.33333333 1960 1147 c 0
 1931.33333333 1181 1891.66666667 1198 1841 1198 c 2
 1632 1198 l 1
 1618 1130 l 2
 1608.66666667 1080.66666667 1577 1038 1523 1002 c 128
 1469 966 1408.33333333 948 1341 948 c 2
 1081 948 l 2
 1003 948 942.333333333 972.666666667 899 1022 c 0
 865 1058.66666667 848 1102.33333333 848 1153 c 0
 848 1162.33333333 849.333333333 1176.66666667 852 1196 c 1
 895 1391 l 1
 1118 1391 l 1
 1081 1225 l 1
 1078.33333333 1200.33333333 1084.16666667 1180.16666667 1098.5 1164.5 c 128
 1112.83333333 1148.83333333 1129.66666667 1141 1149 1141 c 2
 1329 1141 l 2
 1349.66666667 1141 1368 1151 1384 1171 c 1
 1403.33333333 1186.33333333 1415.66666667 1209.66666667 1421 1241 c 2
 1452 1389 l 1
 1911 1389 l 2
 1983.66666667 1389 2045.5 1373.16666667 2096.5 1341.5 c 128
 2147.5 1309.83333333 2181.5 1272.16666667 2198.5 1228.5 c 128
 2215.5 1184.83333333 2224 1145.33333333 2224 1110 c 0
 2224 1089.33333333 2221.33333333 1068.33333333 2216 1047 c 2
 2066 330 l 2
EndSplineSet
EndChar

StartChar: aivowel
Encoding: 121 3216 115
Width: 2054
Flags: HW
LayerCount: 2
Fore
SplineSet
2173 301 m 2
 2156.33333333 217.666666667 2111.83333333 146 2039.5 86 c 128
 1967.16666667 26 1889.33333333 -4 1806 -4 c 2
 1489 0 l 2
 1434.33333333 0 1386.66666667 15 1346 45 c 1
 1305.33333333 79 1279.33333333 120 1268 168 c 1
 1228.66666667 117.333333333 1184.66666667 77 1136 47 c 128
 1087.33333333 17 1041 2 997 2 c 2
 645 2 l 2
 561.666666667 2 495.333333333 29.3333333333 446 84 c 0
 410.666666667 122 393 168.333333333 393 223 c 0
 393 233.666666667 394.333333333 252.333333333 397 279 c 1
 463 584 l 1
 479.666666667 670 524.166666667 743 596.5 803 c 128
 668.833333333 863 748.666666667 893 836 893 c 2
 1225 893 l 1
 1163 602 l 1
 1156.33333333 562.666666667 1142 525.833333333 1120 491.5 c 128
 1098 457.166666667 1070 425.666666667 1036 397 c 0
 963.333333333 338.333333333 883 305.666666667 795 299 c 1
 780 494 l 1
 796.666666667 494 814.5 497 833.5 503 c 128
 852.5 509 869.666666667 517.333333333 885 528 c 0
 916.333333333 550 934.666666667 576 940 606 c 2
 956 688 l 1
 862 688 l 2
 818 688 780.666666667 675.666666667 750 651 c 1
 714.666666667 630.333333333 692 602.333333333 682 567 c 1
 639 356 l 1
 636.333333333 334 635 319.666666667 635 313 c 0
 635 291 642.333333333 268 657 244 c 1
 673.666666667 210 701.666666667 193 741 193 c 2
 981 193 l 2
 1029 193 1074.16666667 210 1116.5 244 c 128
 1158.83333333 278 1185.33333333 316.666666667 1196 360 c 1
 1212 442 l 1
 1438 442 l 1
 1421 360 l 2
 1418.33333333 340.666666667 1417 326.333333333 1417 317 c 0
 1417 288.333333333 1426.66666667 264 1446 244 c 1
 1468 210 1501.33333333 193 1546 193 c 2
 1815 193 l 2
 1846.33333333 193 1877.66666667 208.666666667 1909 240 c 1
 1939 275.333333333 1959.33333333 314.666666667 1970 358 c 1
 2116 1057 l 2
 2118.66666667 1076.33333333 2120 1090 2120 1098 c 0
 2120 1118.66666667 2113.5 1139.83333333 2100.5 1161.5 c 128
 2087.5 1183.16666667 2061.66666667 1194 2023 1194 c 2
 1784 1194 l 2
 1752.66666667 1194 1723.66666667 1182 1697 1158 c 128
 1670.33333333 1134 1654.33333333 1105 1649 1071 c 1
 1632 999 l 1
 1409 999 l 1
 1427 1081 l 1
 1432.33333333 1112.33333333 1422.33333333 1138.33333333 1397 1159 c 0
 1385 1168.33333333 1369.33333333 1175.83333333 1350 1181.5 c 128
 1330.66666667 1187.16666667 1308.66666667 1190 1284 1190 c 2
 938 1190 l 2
 906.666666667 1190 875.333333333 1177 844 1151 c 1
 812.666666667 1130.33333333 784 1097.66666667 758 1053 c 1
 614 1163 l 1
 658 1232.33333333 709.333333333 1286.5 768 1325.5 c 128
 826.666666667 1364.5 883.333333333 1384 938 1384 c 2
 1372 1384 l 2
 1430.66666667 1384 1477.5 1369.66666667 1512.5 1341 c 128
 1547.5 1312.33333333 1567.66666667 1277.66666667 1573 1237 c 1
 1604.33333333 1282.33333333 1642 1317.66666667 1686 1343 c 1
 1708 1358.33333333 1729.16666667 1368.66666667 1749.5 1374 c 128
 1769.83333333 1379.33333333 1792.33333333 1382 1817 1382 c 2
 2097 1382 l 2
 2154.33333333 1382 2203.83333333 1370.16666667 2245.5 1346.5 c 128
 2287.16666667 1322.83333333 2316.33333333 1289 2333 1245 c 0
 2343.66666667 1216.33333333 2349 1186.33333333 2349 1155 c 0
 2349 1145.66666667 2347.66666667 1130 2345 1108 c 1
 2173 301 l 2
EndSplineSet
EndChar

StartChar: ovowel
Encoding: 122 3218 116
Width: 1880
Flags: HW
LayerCount: 2
Fore
SplineSet
1982 240 m 2
 1966.66666667 170.666666667 1935.33333333 115.333333333 1888 74 c 1
 1842.66666667 26 1791.66666667 2 1735 2 c 2
 1305 2 l 2
 1261 2 1226 14.3333333333 1200 39 c 1
 1174 59.6666666667 1158.33333333 89.6666666667 1153 129 c 1
 1136.33333333 92.3333333333 1111 62 1077 38 c 128
 1043 14 1009 2 975 2 c 2
 584 2 l 2
 511.333333333 2 453.333333333 24 410 68 c 1
 376 99.3333333333 358.666666667 135.333333333 358 176 c 0
 358 182.666666667 359.333333333 197 362 219 c 1
 428 528 l 1
 705 690 l 2
 817 754 894.333333333 801.833333333 937 833.5 c 128
 979.666666667 865.166666667 1006 898 1016 932 c 1
 1053 1112 l 2
 1058.33333333 1138 1054.5 1158.16666667 1041.5 1172.5 c 128
 1028.5 1186.83333333 1011 1194 989 1194 c 2
 795 1194 l 1
 772 1083 l 1
 769.333333333 1062.33333333 773.5 1043.5 784.5 1026.5 c 128
 795.5 1009.5 813.333333333 1001 838 1001 c 2
 866 1001 l 1
 823 805 l 1
 727 805 l 2
 663 805 614 832.333333333 580 887 c 0
 554 927.666666667 541 972 541 1020 c 0
 541 1039.33333333 543.666666667 1059.66666667 549 1081 c 2
 614 1386 l 1
 1090 1386 l 2
 1135.33333333 1386 1175.33333333 1376.5 1210 1357.5 c 128
 1244.66666667 1338.5 1268 1316.33333333 1280 1291 c 128
 1292 1265.66666667 1298 1243 1298 1223 c 0
 1298 1216.33333333 1296.66666667 1203.33333333 1294 1184 c 2
 1227 860 l 1
 1221.66666667 826 1198.33333333 793.333333333 1157 762 c 0
 1132.33333333 742.666666667 1110 727 1090 715 c 0
 1039.33333333 683.666666667 966 639.333333333 870 582 c 2
 641 444 l 1
 612 305 l 2
 610.666666667 298.333333333 610 289.666666667 610 279 c 0
 610 262.333333333 617.166666667 244.5 631.5 225.5 c 128
 645.833333333 206.5 668 197 698 197 c 2
 950 197 l 2
 978.666666667 197 1007.33333333 209 1036 233 c 1
 1066 263 1084 293.333333333 1090 324 c 2
 1108 418 l 1
 1331 418 l 1
 1315 336 l 2
 1313.66666667 329.333333333 1313 319.666666667 1313 307 c 0
 1313 285 1319 263.333333333 1331 242 c 1
 1357 216 1387 203 1421 203 c 2
 1645 203 l 2
 1673.66666667 203 1702.33333333 215.333333333 1731 240 c 1
 1761 270 1778.66666667 300 1784 330 c 2
 1827 526 l 2
 1832.33333333 553.333333333 1827.83333333 575.5 1813.5 592.5 c 128
 1799.16666667 609.5 1779 618 1753 618 c 2
 1679 618 l 1
 1718 813 l 1
 1913 813 l 2
 1973 813 2015.33333333 795.333333333 2040 760 c 1
 2062 734 2073 703.333333333 2073 668 c 0
 2073 661.333333333 2071.33333333 647 2068 625 c 1
 1982 240 l 2
EndSplineSet
EndChar

